00000000: 4d54 6864 0000 0006 0001 0002 01e0 4d54  MThd..........MT
00000010: 726b 0000 001e 00ff 0307 324d 315f 414c  rk........2M1_AL
00000020: 4c00 ff51 0307 a120 00ff 5804 0402 1808  L..Q... ..X.....
00000030: 00ff 2f00 4d54 726b 0000 c30f 00ff 0307  ../.MTrk........
00000040: 5472 6163 6b20 3183 65f0 8384 7e42 3019  Track 1.e...~B0.
00000050: 5000 231c 0000 0001 0901 0000 1e00 7872  P.#...........xr
00000060: 7b76 0b09 117d 0306 027b 0000 0001 1805  {v...}...{......
00000070: 0000 0000 0002 1a05 0000 0000 0003 1c05  ................
00000080: 0000 0000 0004 1d05 0000 0000 0005 1f05  ................
00000090: 0000 0000 0006 2105 0000 0000 0007 2305  ......!.......#.
000000a0: 0000 0000 0008 2407 0000 0000 0809 2603  ......$.......&.
000000b0: 7800 0000 080a 2807 6e00 0000 000b 2904  x.....(.n.....).
000000c0: 0000 0000 000c 2b04 0000 0000 000d 2d04  ......+.......-.
000000d0: 0000 0000 000e 2f04 0000 0000 200f 3007  ....../..... .0.
000000e0: 0000 5d00 0010 3202 0700 0000 0011 3408  ..]...2.......4.
000000f0: 0000 0000 0012 3501 0400 0000 0013 3701  ......5.......7.
00000100: 0000 0000 0014 3906 0000 0000 0015 3b06  ......9.......;.
00000110: 0000 0000 0016 3c06 0000 0000 001e 3e05  ......<.......>.
00000120: 0000 0000 0018 4005 0000 0000 0019 4101  ......@.......A.
00000130: 0000 0000 001a 4309 0000 0000 001b 4504  ......C.......E.
00000140: 0000 0000 001c 4701 0000 0000 001d 4809  ......G.......H.
00000150: 0000 0000 0817 5405 5a00 0000 0801 1805  ......T.Z.......
00000160: 7600 1100 0806 1a05 7e00 0000 181b 1c08  v.......~.......
00000170: 645f 0000 100b 1d02 0071 0000 200c 1f02  d_.......q.. ...
00000180: 0000 6a00 200b 1e02 0000 7300 0803 1905  ..j. .....s.....
00000190: 7c00 0100 1807 1b05 7f5d 0000 0009 2602  |........]....&.
000001a0: 0800 0000 080a 2c05 7063 0000 000a 3008  ......,.pc....0.
000001b0: 1700 0000 200f 3207 0000 6d00 200c 2002  .... .2...m. . .
000001c0: 0000 1d00 0810 3403 4d00 0000 0010 3507  ......4.M.....5.
000001d0: 0000 0000 0011 3707 4e00 0000 0011 3605  ......7.N.....6.
000001e0: 0000 0000 0812 3800 0800 0000 0012 3902  ......8.......9.
000001f0: 0000 0000 0813 3a0a 0800 0000 0813 3b08  ......:.......;.
00000200: 7900 6300 0014 3c06 0000 0000 1815 3f04  y.c...<.......?.
00000210: 686b 6300 3016 4008 0067 1d00 0016 4107  hkc.0.@..g....A.
00000220: 0063 0000 0818 4203 7c00 0000 0817 4a05  .c....B.|.....J.
00000230: 6e00 0000 001d 4b04 5900 0000 2825 4c07  n.....K.Y...(%L.
00000240: 6c00 6400 281d 7305 3400 4300 1801 1805  l.d.(.s.4.C.....
00000250: 766c 0c00 0808 1905 7000 1400 0007 1a05  vl......p.......
00000260: 0046 0000 1815 1b08 716d 0000 0809 1d0a  .F......qm......
00000270: 7623 0000 100b 1e08 0947 0000 081b 2005  v#.......G.... .
00000280: 5b32 0000 000a 2105 0000 0000 100c 2209  [2....!.......".
00000290: 0756 0000 000a 2400 1300 0000 200f 2500  .V....$..... .%.
000002a0: 0032 4e00 200f 2608 1200 6600 1018 2809  .2N. .&...f...(.
000002b0: 094d 2000 1817 290a 084e 0000 0010 2a00  .M ...)..N....*.
000002c0: 0000 0000 1817 2d05 5e62 0000 0011 2e00  ......-.^b......
000002d0: 0000 0000 1017 3000 394e 3200 0022 3b05  ......0.9N2..";.
000002e0: 7c00 6300 0821 4105 6000 0000 0814 3d05  |.c..!A.`.....=.
000002f0: 4e00 0000 081e 4705 6000 0000 081f 4e05  N.....G.`.....N.
00000300: 6a00 0000 0003 0305 0063 0800 0804 4a05  j........c....J.
00000310: 6c63 0000 0005 4c05 0063 0000 0019 5405  lc....L..c....T.
00000320: 0000 0000 0000 0005 0000 0000 0000 0005  ................
00000330: 0000 0000 0000 0005 0000 0000 0801 1904  ................
00000340: 7463 0000 0803 1b04 6a63 0000 0802 1d04  tc......jc......
00000350: 5a63 0000 0804 1f03 4263 0000 0806 2103  Zc......Bc....!.
00000360: 7263 0000 2805 2303 5f63 1d00 2807 2503  rc..(.#._c..(.%.
00000370: 5a63 1d00 080a 2707 3000 6300 0809 2906  Zc....'.0.c...).
00000380: 6e63 6300 2812 2b09 4e63 5000 2813 2d08  ncc.(.+.NcP.(.-.
00000390: 0863 5d00 0817 3309 4232 6300 0810 3502  .c]...3.B2c...5.
000003a0: 6c00 5200 0811 3703 6700 0000 000b 3907  l.R...7.g.....9.
000003b0: 0000 0000 000c 3b07 0000 0000 000d 3d07  ......;.......=.
000003c0: 0c00 0000 000e 3f07 0c00 0000 280f 4102  ......?.....(.A.
000003d0: 4200 7000 380f 4304 6b71 6a00 380f 4506  B.p.8.C.kqj.8.E.
000003e0: 7f6c 5800 0818 4707 7963 0000 0016 4805  .lX...G.yc....H.
000003f0: 0063 0000 1014 4b02 0c6e 0000 081d 4e03  .c....K..n....N.
00000400: 6200 0000 1008 5004 0967 0000 001b 5205  b.....P..g....R.
00000410: 0000 0000 2825 5408 6a00 7600 0817 3105  ....(%T.j.v...1.
00000420: 2b32 6300 0817 2f01 1a32 6300 0046 696c  +2c.../..2c..Fil
00000430: 6d53 636f 0072 6520 0401 1616 0016 3232  mSco.re ......22
00000440: 6501 1f1a 4000 0f1e 2e00 007d 0032 0100  e...@......}.2..
00000450: 0000 0006 0006 1746 0000 037f 0800 7f01  .......F........
00000460: 7f00 2d0a 000c 000c 3c00 7f01 117f 001b  ..-.....<.......
00000470: 1474 0007 107f 007f 017f 0001 0019 0000  .t..............
00000480: 0c3c 007f 0201 7f00 0063 0000 2005 7f00  .<.......c.. ...
00000490: 7f01 7f10 0000 6300 0005 7f00 047f 017f  ......c.........
000004a0: 1000 6300 4000 057f 007f 017f 0010 0063  ..c.@..........c
000004b0: 0000 057f 0800 7f01 7f10 5061 006e 6b61  ..........Pa.nka
000004c0: 6c61 2020 0020 010b 0044 441a 001a 0000  la  . ...DD.....
000004d0: 1f63 0903 0000 0200 0b06 1e00 200a 5c30  .c.......... .\0
000004e0: 0001 7b0a 0041 0000 057f 007f 0201 7f00  ..{..A..........
000004f0: 2b1e 0000 2005 7f00 7f01 7f00 0000 6300  +... .........c.
00000500: 0005 7f00 0400 017f 1000 6300 4000 057f  ..........c.@...
00000510: 0000 017f 0010 0063 0000 057f 0800 0001  .......c........
00000520: 7f10 0063 0000 0005 7f00 0001 017f 1000  ...c............
00000530: 6300 0005 107f 0000 017f 1000 0063 0000  c............c..
00000540: 057f 0000 0201 7f10 526f 6e64 006f 2720  ........Rond.o' 
00000550: 2020 2004 0000 0b13 1328 2800 0000 1f19     ......((.....
00000560: 0019 7a50 0000 0003 6306 0300 000a 0004  ..zP....c.......
00000570: 051f 1000 4000 057f 007f 017b 0000 1f0b  ....@......{....
00000580: 0c00 057f 0800 6c01 7b00 2022 000c 0005  ......l.{. "....
00000590: 7f00 6c01 017d 0017 610c 0005 107f 007f  ..l..}..a.......
000005a0: 6d7d 0000 0063 0000 057f 007f 0201 7f10  m}...c..........
000005b0: 0063 0000 2005 7f00 7f01 7f10 0000 6300  .c.. .........c.
000005c0: 0005 7f00 047f 017f 1000 6300 4000 057f  ..........c.@...
000005d0: 007f 017f 0010 4272 6173 7320 0031 2632  ......Brass .1&2
000005e0: 2001 1600 0032 3213 1300 001f 0032 0100   ....22......2..
000005f0: 0000 0006 000a 1a00 1837 2e00 0200 7b48  .........7....{H
00000600: 3200 0005 107f 007f 017f 0002 0232 7400  2............2t.
00000610: 057f 007f 0201 7f00 0063 0000 2005 7f00  .........c.. ...
00000620: 0001 7f10 0000 6300 0005 7f00 0400 017f  ......c.........
00000630: 1000 6300 4000 057f 0000 017f 0010 0063  ..c.@..........c
00000640: 0000 057f 0800 0001 7f10 0063 0000 0005  ...........c....
00000650: 7f00 0001 017f 1000 6300 0005 107f 0000  ........c.......
00000660: 017f 1046 0075 6a69 2d73 616e 0020 2004  ...F.uji-san.  .
00000670: 1101 5050 001e 1e56 101f 5008 0002 2300  ..PP...V..P...#.
00000680: 000a 041c 4000 141e 2e00 007d 0004 4200  ....@......}..B.
00000690: 000c 4000 047f 017f 0012 5e00 4000 0c7f  ..@.......^.@...
000006a0: 417f 017d 0000 223e 0c00 0540 0800 7f01  A..}..">...@....
000006b0: 7f00 0063 0000 0005 7f00 7f01 017f 1000  ...c............
000006c0: 6300 0005 107f 007f 017f 1000 0063 0000  c............c..
000006d0: 057f 007f 0201 7f10 0063 0000 2005 7f00  .........c.. ...
000006e0: 7f01 7f10 0000 6300 0005 7f00 047f 017f  ......c.........
000006f0: 1031 2d4d 0061 6e2d 4261 6e64 0004 0b00  .1-M.an-Band....
00000700: 3232 1212 0000 001f 460d 0200 0001 0007  22......F.......
00000710: 0521 0028 1037 2e00 007b 4732 0174 0505  .!.(.7...{G2.t..
00000720: 7f00 7f01 617f 0009 1000 7b05 107f 007f  ....a.....{.....
00000730: 017f 0000 0063 0000 057f 007f 0201 7f10  .....c..........
00000740: 0063 0000 2005 7f00 7f01 7f10 0000 6300  .c.. .........c.
00000750: 0005 7f00 047f 017f 1000 6300 4000 057f  ..........c.@...
00000760: 007f 017f 0010 0063 0000 057f 0800 7f01  .......c........
00000770: 7f10 0063 0000 0005 7f00 7f01 017f 104f  ...c...........O
00000780: 7263 6865 0073 7472 6131 040b 0000 3131  rche.stra1....11
00000790: 1b1b 0165 001f 2218 0300 0f00 0004 0521  ...e.."........!
000007a0: 0015 4e4c 4400 007e 0726 007a 2003 7f33  ..NLD..~.&.z ..3
000007b0: 7f01 7f00 002a 3e00 0607 7f00 047f 017f  .....*>.........
000007c0: 0025 3900 4000 0c32 007f 017f 0000 0063  .%9.@..2.......c
000007d0: 0000 057f 0800 7f01 7f10 0063 0000 0005  ...........c....
000007e0: 7f00 7f01 017f 1000 6300 0005 107f 007f  ........c.......
000007f0: 017f 1000 0063 0000 057f 007f 0201 7f10  .....c..........
00000800: 0063 0000 2005 7f00 7f01 7f10 0031 3220  .c.. ........12 
00000810: 5374 7269 006e 6720 040b 0032 0032 1616  Stri.ng ...2.2..
00000820: 0000 1f63 0008 0300 0000 0305 0022 0024  ...c.........".$
00000830: 162a 0000 017b 3655 0002 057f 0800 7f01  .*...{6U........
00000840: 7f00 1f14 020c 7c05 4c00 7f01 217f 0036  ......|.L...!..6
00000850: 330c 7c05 1035 007f 017f 0006 0025 0000  3.|..5.......%..
00000860: 057f 4d7f 0201 7f00 0063 0000 2005 7f00  ..M......c.. ...
00000870: 7f01 7f10 0000 6300 0005 7f00 047f 017f  ......c.........
00000880: 1000 6300 4000 057f 007f 017f 0010 0063  ..c.@..........c
00000890: 0000 057f 0800 7f01 7f10 5079 0072 616d  ..........Py.ram
000008a0: 6964 7320 0020 040b 0232 321a 001a 5115  ids . ...22...Q.
000008b0: 1f63 0801 0000 1300 0605 1d00 120a 2a2e  .c............*.
000008c0: 007e 0041 0029 0c00 0c4d 007f 0201 7f00  .~.A.)...M......
000008d0: 4633 0000 2003 7f00 7f01 7f00 041b 2d74  F3.. .........-t
000008e0: 0007 7f00 047f 017f 0000 6300 4000 057f  ..........c.@...
000008f0: 007f 017f 0010 0063 0000 057f 0800 7f01  .......c........
00000900: 7f10 0063 0000 0005 7f00 7f01 017f 1000  ...c............
00000910: 6300 0005 107f 007f 017f 1000 0063 0000  c............c..
00000920: 057f 007f 0201 7f10 4261 7373 0026 5069  ........Bass.&Pi
00000930: 616e 6f04 0003 0119 190f 0f36 0033 0f07  ano........6.3..
00000940: 0000 5963 0400 0c7e 1a00 161e 002e 0000  ..Yc...~........
00000950: 0906 6300 4000 053c 007f 017d 0000 0144  ..c.@..<...}...D
00000960: 0000 0c7f 083d 7f01 7300 1a4c 0200 7905  .....=..s..L..y.
00000970: 3c00 7f01 017d 0000 6300 0005 107f 007f  <....}..c.......
00000980: 017f 1000 0063 0000 057f 007f 0201 7f10  .....c..........
00000990: 0063 0000 2005 7f00 7f01 7f10 0000 6300  .c.. .........c.
000009a0: 0005 7f00 047f 017f 1000 6300 4000 057f  ..........c.@...
000009b0: 007f 017f 0010 4d49 4449 5374 0061 636b  ......MIDISt.ack
000009c0: 3104 0b00 0032 3217 1765 011f 0063 0801  1....22..e...c..
000009d0: 0004 000a 0007 1c00 1e37 2e00 0000 0057  .........7.....W
000009e0: 5f00 0003 107f 007f 017f 001f 0019 0000  _...............
000009f0: 057f 007f 224b 7f00 1b5a 7400 200c 7f00  ...."K...Zt. ...
00000a00: 7f01 7f00 0002 6300 0005 7f00 047f 017f  ......c.........
00000a10: 1000 6300 4000 057f 007f 017f 0010 0063  ..c.@..........c
00000a20: 0000 057f 0800 7f01 7f10 0063 0000 0005  ...........c....
00000a30: 7f00 7f01 017f 1000 6300 0005 107f 007f  ........c.......
00000a40: 017f 1042 0065 6c6c 566f 6963 0065 7304  ...B.ellVoic.es.
00000a50: 0b01 4444 0020 2000 001f 630a 2003 0006  ..DD.  ...c. ...
00000a60: 000b 7d1a 4000 0a1e 1000 007d 003f 5500  ..}.@......}.?U.
00000a70: 0006 7f00 047f 017f 004b 5007 4000 047f  .........KP.@...
00000a80: 007f 017f 0800 2150 7400 057f 0800 7f01  ......!Pt.......
00000a90: 7f00 0a63 0000 0005 7f00 7f01 017f 1000  ...c............
00000aa0: 6300 0005 107f 007f 017f 1000 0063 0000  c............c..
00000ab0: 057f 007f 0201 7f10 0063 0000 2005 7f00  .........c.. ...
00000ac0: 7f01 7f10 0000 6300 0005 7f00 047f 017f  ......c.........
00000ad0: 1045 6e73 0065 6d62 6c65 2031 0004 0b01  .Ens.emble 1....
00000ae0: 2828 1414 0065 011c 6309 0300 0403 0079  ((...e..c......y
00000af0: 071a 0018 101e 2e00 007d 1260 0000 0007  .........}.`....
00000b00: 7f3c 7f01 017f 002a 4d0c 000c 107f 007f  .<.....*M.......
00000b10: 017f 0020 005c 0c00 037f 007f 0201 7f00  ... .\..........
00000b20: 0063 0000 2005 7f00 7f01 7f10 0000 6300  .c.. .........c.
00000b30: 0005 7f00 047f 017f 1000 6300 4000 057f  ..........c.@...
00000b40: 007f 017f 0010 0063 0000 057f 0800 7f01  .......c........
00000b50: 7f10 0063 0000 0005 7f00 7f01 017f 1053  ...c...........S
00000b60: 756e 5365 0063 7469 6f6e 0400 000b 0e0e  unSe.ction......
00000b70: 2828 0000 003f 0b00 187a 2e00 0000 0563  ((...?...z.....c
00000b80: 0903 000d 0000 030b 0a39 0000 2005 3c00  .........9.. .<.
00000b90: 7f01 7000 0006 4900 0005 3c00 0464 017c  ..p...I...<..d.|
00000ba0: 0024 4d00 4000 053c 007f 6578 1800 0c40  .$M.@..<..ex...@
00000bb0: 747b 037f 083d 7f01 7e00 023e 0174 0507  t{...=..~..>.t..
00000bc0: 7f3d 7f01 017e 0000 0000 0005 107f 007f  .=...~..........
00000bd0: 017e 1000 0000 0000 057f 007f 0201 7e10  .~............~.
00000be0: 0000 0000 2005 7f00 7f01 7e10 0041 746c  .... .....~..Atl
00000bf0: 616e 7469 0073 2020 0401 1119 0019 4b4b  anti.s  ......KK
00000c00: 0165 0f1e 4000 1414 1900 007d 004a 0802  .e..@......}.J..
00000c10: 0000 0007 0007 1738 0c00 0c3b 0800 7f01  .......8...;....
00000c20: 7f00 0848 0000 0005 7f3c 7f01 017f 001e  ...H.....<......
00000c30: 5b0c 0005 103b 007f 017f 0000 0063 0000  [....;.......c..
00000c40: 057f 007f 0201 7f10 0063 0000 2005 7f00  .........c.. ...
00000c50: 7f01 7f10 0000 6300 0005 7f00 047f 017f  ......c.........
00000c60: 1000 6300 4000 057f 007f 017f 0010 0063  ..c.@..........c
00000c70: 0000 057f 0800 7f01 7f10 5765 0061 7468  ..........We.ath
00000c80: 6572 4d61 006e 0419 1d1e 281d 1028 3333  erMa.n....(..(33
00000c90: 0f7a 0032 000a 2100 2837 0601 0032 0863  .z.2..!.(7...2.c
00000ca0: 1401 0006 0044 0000 0c3b 007f 0201 7d00  .....D...;....}.
00000cb0: 0b24 0000 200c 4f3c 7f01 7b00 003e 3a00  .$.. .O<..{..>:.
00000cc0: 0005 7f50 047f 017d 003e 3200 4000 0551  ...P...}.>2.@..Q
00000cd0: 487f 017d 0000 0063 0000 057f 0800 7f01  H..}...c........
00000ce0: 7f10 0063 0000 0005 7f00 7f01 017f 1000  ...c............
00000cf0: 6300 0005 107f 007f 017f 1000 0063 0000  c............c..
00000d00: 057f 007f 0201 7f10 4f72 6368 0065 7374  ........Orch.est
00000d10: 7261 3204 000b 0128 2819 1965 0001 1f63  ra2....((..e...c
00000d20: 0903 0001 0000 0004 1800 1220 0830 0000  ........... .0..
00000d30: 7d1a 3c00 4000 0c3c 007f 017f 0000 1247  }.<.@..<.......G
00000d40: 0000 0d7f 0830 7f01 7f00 1b46 0174 0005  .....0.....F.t..
00000d50: 7f00 7f01 017f 0020 2a00 000c 107f 007f  ....... *.......
00000d60: 017f 0000 0063 0000 057f 007f 0201 7f10  .....c..........
00000d70: 0063 0000 2005 7f00 7f01 7f10 0000 6300  .c.. .........c.
00000d80: 0005 7f00 047f 017f 1000 6300 4000 057f  ..........c.@...
00000d90: 007f 017f 0010 5065 7263 2d4f 0072 6761  ......Perc-O.rga
00000da0: 6e01 0b00 0041 4111 1100 001f 0063 0803  n....AA......c..
00000db0: 0003 000a 000c 1a00 1437 2e00 0000 0711  .........7......
00000dc0: 6300 0005 107f 007f 017f 004e 0032 0700  c..........N.2..
00000dd0: 057f 007f 0201 7f00 0063 0000 2005 7f00  .........c.. ...
00000de0: 0001 7f10 0000 6300 0005 7f00 0400 017f  ......c.........
00000df0: 1000 6300 4000 057f 0000 017f 0010 0063  ..c.@..........c
00000e00: 0000 057f 0800 0001 7f10 0063 0000 0005  ...........c....
00000e10: 7f00 0001 017f 1000 6300 0005 107f 0000  ........c.......
00000e20: 017f 1052 0068 7974 686d 4c6f 0072 6501  ...R.hythmLo.re.
00000e30: 1102 4b4b 0019 1965 011f 4b0b 0002 0000  ..KK...e..K.....
00000e40: 000b 0c21 2400 142a 2e00 7e00 001e 5500  ...!$..*..~...U.
00000e50: 0005 7f00 047f 017f 005f 370c 4000 0c7f  ........._7.@...
00000e60: 007f 017f 0000 0063 0000 057f 0800 0001  .......c........
00000e70: 7f10 0063 0000 0005 7f00 0001 017f 1000  ...c............
00000e80: 6300 0005 107f 0000 017f 1000 0063 0000  c............c..
00000e90: 057f 0000 0201 7f10 0063 0000 2005 7f00  .........c.. ...
00000ea0: 0001 7f10 0000 6300 0005 7f00 0400 017f  ......c.........
00000eb0: 1042 6173 0073 2642 7261 7373 0004 0b00  .Bas.s&Brass....
00000ec0: 2828 1b1b 0065 011f 6308 0300 0003 0009  ((...e..c.......
00000ed0: 0c0e 0014 0003 2800 0000 0663 0000 050c  ......(....c....
00000ee0: 3b00 7f01 017f 0048 6300 0005 107f 3c7f  ;......Hc.....<.
00000ef0: 017f 002e 0445 007b 053b 007f 0201 7f00  .....E.{.;......
00000f00: 0c39 0000 2005 7f3c 7f01 7f00 0000 6300  .9.. ..<......c.
00000f10: 0005 7f00 047f 017f 1000 6300 4000 057f  ..........c.@...
00000f20: 007f 017f 0010 0063 0000 057f 0800 7f01  .......c........
00000f30: 7f10 0063 0000 0005 7f00 7f01 017f 1043  ...c...........C
00000f40: 6872 6973 0074 6d61 7320 040b 0000 3232  hris.tmas ....22
00000f50: 1e1e 6501 001f 6309 0100 0900 0009 0a21  ..e...c........!
00000f60: 0014 372e 2400 007b 1b37 7400 2004 3b00  ..7.$..{.7t. .;.
00000f70: 7f01 7f00 0017 5000 000c 7f3c 047f 017f  ......P....<....
00000f80: 002d 2a0c 4000 0c3b 007f 017f 0000 1f0c  .-*.@..;........
00000f90: 0000 077f 083c 7f01 7f00 0063 0000 0005  .....<.....c....
00000fa0: 7f00 7f01 017f 1000 6300 0005 107f 007f  ........c.......
00000fb0: 017f 1000 0063 0000 057f 007f 0201 7f10  .....c..........
00000fc0: 0063 0000 2005 7f00 7f01 7f10 0041 6972  .c.. ........Air
00000fd0: 204d 616c 006c 6574 040b 0140 0040 1c1c   Mal.let...@.@..
00000fe0: 0000 1f63 000a 0300 0200 0702 001c 0012  ...c............
00000ff0: 1f2e 0000 097d 1c1d 7400 057f 0800 7f01  .....}..t.......
00001000: 7f00 084a 0174 0005 7f00 7f01 117f 000f  ...J.t..........
00001010: 3774 0005 107f 007f 017f 0000 0063 0000  7t...........c..
00001020: 057f 007f 0201 7f10 0063 0000 2005 7f00  .........c.. ...
00001030: 7f01 7f10 0000 6300 0005 7f00 047f 017f  ......c.........
00001040: 1000 6300 4000 057f 007f 017f 0010 0063  ..c.@..........c
00001050: 0000 057f 0800 7f01 7f10 4261 0072 6f71  ..........Ba.roq
00001060: 7565 2020 0020 0400 161e 1e64 0064 0000  ue  . .....d.d..
00001070: 3f13 0018 106f 6300 007b 6301 0000 0000  ?....oc..{c.....
00001080: 0003 061b 0063 0000 057f 0044 0201 7f00  .....c.....D....
00001090: 0c2d 0005 2005 7f00 7f4c 7f00 0017 6300  .-.. ....L....c.
000010a0: 0005 7f00 044c 017f 001b 4d00 4000 057f  .....L....M.@...
000010b0: 007f 457f 0000 483f 0c00 053c 0800 7f6d  ..E...H?...<...m
000010c0: 7f00 0063 0000 0005 7f00 7f01 017f 1000  ...c............
000010d0: 6300 0005 107f 007f 017f 1000 0063 0000  c............c..
000010e0: 057f 007f 0201 7f10 4479 6e61 0046 7573  ........Dyna.Fus
000010f0: 696f 6e04 0003 0b14 1428 2800 2000 3f0f  ion......((. .?.
00001100: 000a 4863 0400 037b 1f23 0300 000a 0003  ..Hc...{.#......
00001110: 0942 4a00 417c 053c 007f 017d 0000 064e  .BJ.A|.<...}...N
00001120: 0000 053c 0800 4301 7d00 1058 0000 0005  ...<..C.}..X....
00001130: 3c00 6c32 017d 002e 2f00 0005 103c 007f  <.l2.}../....<..
00001140: 767d 0038 004f 0000 053c 0078 2261 7900  v}.8.O...<.x"ay.
00001150: 1545 7403 2005 7f3d 7f01 7300 0c16 3174  .Et. ..=..s...1t
00001160: 7b05 7f3d 447f 5a7d 0002 2574 4000 057f  {..=D.Z}..%t@...
00001170: 3d59 0173 0000 4d6f 6e74 657a 0075 6d61  =Y.s..Montez.uma
00001180: 2001 0b00 0028 281c 1c00 651f 0063 0903   ....((...e..c..
00001190: 0005 0003 0003 2100 1137 2e00 0200 7b28  ......!..7....{(
000011a0: 4800 0005 107f 007f 017f 0050 0035 0000  H..........P.5..
000011b0: 057f 007f 0201 7f00 0063 0000 2005 7f00  .........c.. ...
000011c0: 0001 7f10 0000 6300 0005 7f00 0400 017f  ......c.........
000011d0: 1000 6300 4000 057f 0000 017f 0010 0063  ..c.@..........c
000011e0: 0000 057f 0800 0001 7f10 0063 0000 0005  ...........c....
000011f0: 7f00 0001 017f 1000 6300 0005 107f 0000  ........c.......
00001200: 017f 1050 006f 7765 7220 506c 0061 7904  ...P.ower Pl.ay.
00001210: 0b01 3232 0014 1465 011f 6309 0003 000a  ..22...e..c.....
00001220: 0008 0a12 4000 181e 2e00 007d 0829 2f00  ....@......}.)/.
00001230: 7b0c 7f00 047f 0179 000f 2e00 4005 047f  {......y....@...
00001240: 397f 017d 0000 4a45 0002 053b 0800 7f01  9..}..JE...;....
00001250: 7900 484e 0000 0006 7f39 7f48 017d 0017  y.HN.....9.H.}..
00001260: 4f00 000c 107f 0047 017f 0000 0063 0000  O......G.....c..
00001270: 057f 007f 0201 7f10 0063 0000 2005 7f00  .........c.. ...
00001280: 7f01 7f10 0000 6300 0005 7f00 047f 017f  ......c.........
00001290: 104f 7263 0068 6573 7261 2033 0004 0016  .Orc.hesra 3....
000012a0: 1919 6464 0000 003f 2100 1837 082e 0000  ..dd...?!..7....
000012b0: 7f63 0100 0000 0000 0405 1b32 0000 0003  .c.........2....
000012c0: 7f00 4401 017f 0008 3900 0004 107f 007f  ..D.....9.......
000012d0: 4c7f 0017 0051 0000 057f 3d4c 0201 7f00  L....Q....=L....
000012e0: 1b2b 0000 2006 7f00 7f45 7f00 0017 550c  .+.. ....E....U.
000012f0: 0007 3c00 047f 017f 0025 5e00 4000 0530  ..<......%^.@..0
00001300: 007f 7f7f 0000 201f 0700 057f 083d 7f45  ...... ......=.E
00001310: 7f00 1e63 000c 0005 3000 7f7f 017f 0043  ...c....0......C
00001320: 6c69 6b20 0050 6961 6e6f 040b 0001 3232  lik .Piano....22
00001330: 1212 6501 001f 630a 0300 0300 0003 031a  ..e...c.........
00001340: 001e 1f2d 2400 007d 1925 7400 200c 7f00  ...-$..}.%t. ...
00001350: 673d 7f00 000b 6300 0005 7f00 047f 017f  g=....c.........
00001360: 004e 4c0c 4000 0c7f 007f 687f 0000 4b12  .NL.@.....h...K.
00001370: 0000 057f 0800 3c01 7f00 0063 0000 0005  ......<....c....
00001380: 7f00 7f01 017f 1000 6300 0005 107f 007f  ........c.......
00001390: 017f 1000 0063 0000 057f 007f 0201 7f10  .....c..........
000013a0: 0063 0000 2005 7f00 7f01 7f10 0043 6c6f  .c.. ........Clo
000013b0: 636b 2053 0068 6f70 0403 091a 001a 4646  ck S.hop......FF
000013c0: 0100 0f03 0000 0a16 4c00 0301 1562 0037  ........L....b.7
000013d0: 0061 0000 0000 234f 0000 057f 0837 7f01  .a....#O.....7..
000013e0: 7f00 5f3d 000a 0005 7f37 7f01 017f 002d  .._=.....7.....-
000013f0: 5900 0005 107f 007f 017f 0044 0063 0c00  Y..........D.c..
00001400: 0c7f 377f 0201 7f00 2363 0c00 2005 3600  ..7.....#c.. .6.
00001410: 7f01 7f00 004c 6307 0005 3600 047f 017f  .....Lc...6.....
00001420: 1000 6300 4000 057f 007f 017f 0010 0063  ..c.@..........c
00001430: 0000 057f 0800 7f01 7f10 4261 0073 7326  ..........Ba.ss&
00001440: 5669 6265 0020 0403 2019 1917 0064 1353  Vibe. .. ....d.S
00001450: 0f07 0000 3059 6300 0c7e 7a00 0059 4363  ....0Yc..~z..YCc
00001460: 6600 0006 0063 0000 053c 007f 2201 7d00  f....c...<..".}.
00001470: 0f5a 7400 200c 7f3d 7f01 7300 081a 0d00  .Zt. ..=..s.....
00001480: 7905 3c00 047f 017d 0000 6300 4000 057f  y.<....}..c.@...
00001490: 007f 017f 0010 0063 0000 057f 0800 7f01  .......c........
000014a0: 7f10 0063 0000 0005 7f00 7f01 017f 1000  ...c............
000014b0: 6300 0005 107f 007f 017f 1000 0063 0000  c............c..
000014c0: 057f 007f 0201 7f10 5765 7374 0065 726e  ........West.ern
000014d0: 7320 2004 000b 0028 2813 1300 0000 1f63  s  ....((......c
000014e0: 0a03 0002 0000 0602 1e00 1423 4028 0004  ...........#@(..
000014f0: 0236 1c74 4004 057f 007f 017f 1000 5762  .6.t@.........Wb
00001500: 007c 057f 0800 7f01 7f00 443f 017b 0005  .|........D?.{..
00001510: 7f00 7f01 017f 0000 6300 0005 107f 007f  ........c.......
00001520: 017f 1000 0063 0000 057f 007f 0201 7f10  .....c..........
00001530: 0063 0000 2005 7f00 7f01 7f10 0000 6300  .c.. .........c.
00001540: 0005 7f00 047f 017f 1000 6300 4000 057f  ..........c.@...
00001550: 007f 017f 0010 4272 6561 7468 0079 2020  ......Breath.y  
00001560: 2004 0b00 0032 3219 195b 0b1f 0063 0b03   ....22..[...c..
00001570: 0003 0008 0000 1e00 0c37 2e00 0000 0008  .........7......
00001580: 2600 0003 107f 007f 017f 0021 003a 0002  &..........!.:..
00001590: 0c7f 007f 4201 7f00 2b3c 0c7e 2007 7f00  ....B...+<.~ ...
000015a0: 7f01 7f00 0000 6300 0005 7f00 047f 017f  ......c.........
000015b0: 1000 6300 4000 057f 007f 017f 0010 0063  ..c.@..........c
000015c0: 0000 057f 0800 7f01 7f10 0063 0000 0005  ...........c....
000015d0: 7f00 7f01 017f 1000 6300 0005 107f 007f  ........c.......
000015e0: 017f 1053 0074 7269 6e67 7320 0020 2001  ...S.trings .  .
000015f0: 0b02 3232 000f 0f00 001f 630a 0003 001e  ..22......c.....
00001600: 0005 071e 2400 141b 5700 7e06 001b 4100  ....$...W.~...A.
00001610: 0006 7f00 447f 017f 001b 4b74 4003 047f  ....D.....Kt@...
00001620: 007f 017f 0000 0063 0000 057f 0800 0001  .......c........
00001630: 7f10 0063 0000 0005 7f00 0001 017f 1000  ...c............
00001640: 6300 0005 107f 0000 017f 1000 0063 0000  c............c..
00001650: 057f 0000 0201 7f10 0063 0000 2005 7f00  .........c.. ...
00001660: 0001 7f10 0000 6300 0005 7f00 0400 017f  ......c.........
00001670: 1042 6967 0020 4369 7479 2020 0004 050b  .Big. City  ....
00001680: 1919 2828 0000 001f 0800 1414 003c 0000  ..((.........<..
00001690: 0363 0303 0000 0a00 0509 5135 0200 7e05  .c........Q5..~.
000016a0: 7f3b 7f01 017f 003d 2500 0205 107f 007f  .;.....=%.......
000016b0: 017f 0046 0428 0c7c 057f 007f 0201 7f00  ...F.(.|........
000016c0: 3238 0004 2005 7f00 3401 7f00 0001 1e00  28.. ...4.......
000016d0: 0005 3a00 047f 017f 0000 6300 4000 057f  ..:.......c.@...
000016e0: 007f 017f 0010 0063 0000 057f 0800 7f01  .......c........
000016f0: 7f10 0063 0000 0005 7f00 7f01 017f 1056  ...c...........V
00001700: 656e 6963 0065 2020 2020 0409 0000 1e1e  enic.e    ......
00001710: 1e1e 6501 021f 7a00 320a 0401 0006 091c  ..e...z.2.......
00001720: 0012 372e 2400 007b 2263 7400 0005 7f00  ..7.$..{"ct.....
00001730: 7f01 0f00 0022 3100 000c 7f00 007f 010f  ....."1.........
00001740: 0000 0000 0000 0000 0001 0107 0000 0000  ................
00001750: 0000 0000 0000 0101 0f00 0000 0000 0000  ................
00001760: 0000 0101 000f 0000 0000 0000 0000 0001  ................
00001770: 010f 0000 0000 0000 0000 0001 0001 0f00  ................
00001780: 0000 0000 0000 0000 0101 0f00 004d 756c  .............Mul
00001790: 7469 536f 0075 6e64 0400 000f 000f 0000  tiSo.und........
000017a0: 0000 0310 0400 0048 6300 0400 0000 0000  .......Hc.......
000017b0: 0000 0000 0000 2931 0000 057f 0800 7f01  ......)1........
000017c0: 7f00 1a55 0000 0005 3500 7f01 017d 0004  ...U....5....}..
000017d0: 3000 0005 1041 307f 017f 000c 0044 0000  0....A0......D..
000017e0: 054d 3c7f 0201 7d00 3e44 0000 2005 5948  .M<...}.>D.. .YH
000017f0: 7f01 7d00 0402 5e74 0005 7f54 047f 017d  ..}...^t...T...}
00001800: 0017 2e00 4000 057f 004c 017f 0000 0063  ....@....L.....c
00001810: 0000 057f 0800 7f01 7f10 4f72 0063 6865  ..........Or.che
00001820: 7374 7261 0034 0416 0032 3210 0010 0000  stra.4...22.....
00001830: 1c32 0100 0000 0000 0607 1e00 021a 0958  .2.............X
00001840: 0000 071b 0634 7479 057f 007f 0201 7f00  .....4ty........
00001850: 1b44 0007 2005 7f00 7f01 7f00 0802 2700  .D.. .........'.
00001860: 7b05 7f00 047f 017f 0048 4b0c 4005 057f  {........HK.@...
00001870: 007f 017f 0000 0063 0000 057f 0800 7f01  .......c........
00001880: 7f10 0063 0000 0005 7f00 7f01 017f 1000  ...c............
00001890: 6300 0005 107f 007f 017f 1000 0063 0000  c............c..
000018a0: 057f 007f 0201 7f10 4d75 6c74 0069 4261  ........Mult.iBa
000018b0: 7373 2004 0003 0b14 1423 2365 0001 3f08  ss ......##e..?.
000018c0: 000a 164c 0000 0001 6309 0300 000a 000a  ...L....c.......
000018d0: 0b42 5a00 417c 057f 007f 017f 0000 065a  .BZ.A|.........Z
000018e0: 0000 057f 0800 4301 7f00 1040 0000 000c  ......C....@....
000018f0: 7f00 6c38 017f 002e 4800 000c 107f 007f  ..l8....H.......
00001900: 767f 0038 0063 0000 057f 0078 0261 7f00  v..8.c.....x.a..
00001910: 3263 0000 2005 7f00 0101 7f10 0000 6300  2c.. .........c.
00001920: 0005 7f00 0401 017f 1000 6300 4000 057f  ..........c.@...
00001930: 007f 017f 0010 5061 7374 5469 006d 6520  ......PastTi.me 
00001940: 2004 0819 0064 6464 6433 330f 0010 0000   ....dddd33.....
00001950: 0000 0000 0000 1b01 000a 1700 0200 1617  ................
00001960: 1300 000d 107f 007f 017f 000f 0432 0c7c  .............2.|
00001970: 057f 007f 0201 7f00 0f63 0c05 200c 7f00  .........c.. ...
00001980: 7f01 7f00 0000 6300 0005 7f00 047f 017f  ......c.........
00001990: 1000 6300 4000 057f 007f 017f 0010 0063  ..c.@..........c
000019a0: 0000 057f 0800 7f01 7f10 0063 0000 0005  ...........c....
000019b0: 7f00 7f01 017f 1000 6300 0005 107f 007f  ........c.......
000019c0: 017f 1042 0061 7373 2652 6565 0064 2002  ...B.ass&Ree.d .
000019d0: 0b01 3232 0018 1865 011f 630c 0003 0004  ..22...e..c.....
000019e0: 0009 081a 4000 1a1e 2e00 007d 0006 3d00  ....@......}..=.
000019f0: 0005 4500 047f 017f 0020 3500 4000 0c7f  ..E...... 5.@...
00001a00: 467f 017f 0000 0063 0000 057f 0800 0001  F......c........
00001a10: 7f10 0063 0000 0005 7f00 0001 017f 1000  ...c............
00001a20: 6300 0005 107f 0000 017f 1000 0063 0000  c............c..
00001a30: 057f 0000 0201 7f10 0063 0000 2005 7f00  .........c.. ...
00001a40: 0001 7f10 0000 6300 0005 7f00 0400 017f  ......c.........
00001a50: 104d 4944 0049 5374 6163 6b32 0004 0b00  .MID.IStack2....
00001a60: 3232 1414 0065 011f 630b 0100 0002 000a  22...e..c.......
00001a70: 0a1a 0018 1029 1200 007f 243c 0000 010c  .....)....$<....
00001a80: 7f00 7f01 217f 0057 4000 7f05 107f 007f  ....!..W@.......
00001a90: 017f 0011 0063 0000 027f 407f 2201 7f00  .....c....@."...
00001aa0: 0222 7400 2002 7f00 7f01 7f00 0000 6300  ."t. .........c.
00001ab0: 0005 7f43 047f 017f 1000 6300 4000 057f  ...C......c.@...
00001ac0: 007f 017f 0010 0063 0000 057f 0800 7f01  .......c........
00001ad0: 7f10 0063 0000 0005 7f00 7f01 017f 1056  ...c...........V
00001ae0: 6f69 6365 0043 686f 6972 010b 0002 3232  oice.Choir....22
00001af0: 1919 5115 000f 630a 0300 0200 200c 0020  ..Q...c..... .. 
00001b00: 000a 2a2e 0000 0000 3f36 0000 2005 7f00  ..*.....?6.. ...
00001b10: 7f01 7f00 0017 2900 000c 7f00 047f 017f  ......).........
00001b20: 0000 6300 4000 057f 0000 017f 0010 0063  ..c.@..........c
00001b30: 0000 057f 0800 0001 7f10 0063 0000 0005  ...........c....
00001b40: 7f00 0001 017f 1000 6300 0005 107f 0000  ........c.......
00001b50: 017f 1000 0063 0000 057f 0000 0201 7f10  .....c..........
00001b60: 0063 0000 2005 7f00 0001 7f10 0053 7472  .c.. ........Str
00001b70: 696e 6720 004d 6978 010b 0032 0032 1717  ing .Mix...2.2..
00001b80: 6501 1f63 000a 0300 0300 060b 0020 0016  e..c......... ..
00001b90: 372e 0000 017b 1b28 0000 057f 0800 7f01  7....{.(........
00001ba0: 7f00 1a23 000c 000c 7f00 7f01 017f 0000  ...#............
00001bb0: 6300 0005 107f 0000 017f 1000 0063 0000  c............c..
00001bc0: 057f 0000 0201 7f10 0063 0000 2005 7f00  .........c.. ...
00001bd0: 0001 7f10 0000 6300 0005 7f00 0400 017f  ......c.........
00001be0: 1000 6300 4000 057f 0000 017f 0010 0063  ..c.@..........c
00001bf0: 0000 057f 0800 0001 7f10 5375 0070 6572  ..........Su.per
00001c00: 4272 6173 0073 010b 0028 2815 0015 0000  Bras.s...((.....
00001c10: 1f63 0903 0000 0300 0504 1e00 2018 372e  .c.......... .7.
00001c20: 0000 7d5c 003f 0000 057f 007f 2201 7f00  ..}\.?......"...
00001c30: 023f 7402 2005 7f00 7f01 7f00 0000 6300  .?t. .........c.
00001c40: 0005 7f00 0400 017f 1000 6300 4000 057f  ..........c.@...
00001c50: 0000 017f 0010 0063 0000 057f 0800 0001  .......c........
00001c60: 7f10 0063 0000 0005 7f00 0001 017f 1000  ...c............
00001c70: 6300 0005 107f 0000 017f 1000 0063 0000  c............c..
00001c80: 057f 0000 0201 7f10 426f 6d62 0061 7920  ........Bomb.ay 
00001c90: 2020 2004 000b 0132 3219 1900 0000 1f63     ....22......c
00001ca0: 0a01 0003 0000 0b00 1a00 1e1e 482e 0000  ............H...
00001cb0: 7d54 2c74 4000 057f 007f 017f 0000 2546  }T,t@.........%F
00001cc0: 0000 057f 0800 7f01 7f00 3611 0174 0005  ..........6..t..
00001cd0: 7f00 7f01 017f 0000 6300 0005 107f 007f  ........c.......
00001ce0: 017f 1000 0063 0000 057f 007f 0201 7f10  .....c..........
00001cf0: 0063 0000 2005 7f00 7f01 7f10 0000 6300  .c.. .........c.
00001d00: 0005 7f00 047f 017f 1000 6300 4000 057f  ..........c.@...
00001d10: 007f 017f 0010 4163 6f75 7374 0069 6320  ......Acoust.ic 
00001d20: 2004 0b00 0025 2512 1200 001f 0057 0b03   ....%%......W..
00001d30: 001a 0002 0004 1f00 1430 2e00 0200 7d06  .........0....}.
00001d40: 4700 0005 103f 007f 017f 001f 041a 007d  G....?.........}
00001d50: 067f 407f 0201 7b00 1263 0000 2005 7f40  ..@...{..c.. ..@
00001d60: 7f01 7d00 0436 3174 0404 5840 047f 017f  ..}..61t..X@....
00001d70: 0000 6300 4000 057f 007f 017f 0010 0063  ..c.@..........c
00001d80: 0000 057f 0800 7f01 7f10 0063 0000 0005  ...........c....
00001d90: 7f00 7f01 017f 1000 6300 0005 107f 007f  ........c.......
00001da0: 017f 1057 0069 6e64 2035 7468 0020 2004  ...W.ind 5th.  .
00001db0: 0301 2828 0019 1951 151f 0300 000a 164c  ..((...Q.......L
00001dc0: 0000 011a 4000 181e 2e00 007d 0020 2a0c  ....@......}. *.
00001dd0: 000c 7f00 447f 017f 0012 3d79 4000 057f  ....D.....=y@...
00001de0: 007f 017f 0000 0063 0000 057f 0800 7f01  .......c........
00001df0: 7f10 0063 0000 0005 7f00 7f01 017f 1000  ...c............
00001e00: 6300 0005 107f 007f 017f 1000 0063 0000  c............c..
00001e10: 057f 007f 0201 7f10 0063 0000 2005 7f00  .........c.. ...
00001e20: 7f01 7f10 0000 6300 0005 7f00 047f 017f  ......c.........
00001e30: 1054 7275 006d 7065 7426 4648 0001 1601  .Tru.mpet&FH....
00001e40: 3232 1111 0065 011f 3201 0000 0000 0003  22...e..2.......
00001e50: 061a 0018 101e 2e00 007d 342c 0000 0006  .........}4,....
00001e60: 7f00 7f01 017f 000c 3500 0004 107f 007f  ........5.......
00001e70: 017f 0000 0063 0000 057f 0000 0201 7f10  .....c..........
00001e80: 0063 0000 2005 7f00 0001 7f10 0000 6300  .c.. .........c.
00001e90: 0005 7f00 0400 017f 1000 6300 4000 057f  ..........c.@...
00001ea0: 0000 017f 0010 0063 0000 057f 0800 0001  .......c........
00001eb0: 7f10 0063 0000 0005 7f00 0001 017f 1043  ...c...........C
00001ec0: 6176 6572 006e 7320 2020 0409 0000 1e1e  aver.ns   ......
00001ed0: 1e1e 6501 221f 7a00 4600 7401 0006 0a1e  ..e.".z.F.t.....
00001ee0: 0013 5032 0400 007b 5921 0c00 200c 7f00  ..P2...{Y!.. ...
00001ef0: 7f01 7f00 041e 4f74 0005 7f00 047f 017f  ......Ot........
00001f00: 0000 6300 4000 057f 007f 017f 0010 0063  ..c.@..........c
00001f10: 0000 057f 0800 7f01 7f10 0063 0000 0005  ...........c....
00001f20: 7f00 7f01 017f 1000 6300 0005 107f 007f  ........c.......
00001f30: 017f 1000 0063 0000 057f 007f 0201 7f10  .....c..........
00001f40: 0063 0000 2005 7f00 7f01 7f10 0042 6173  .c.. ........Bas
00001f50: 7326 5361 0078 2020 040b 0032 0032 1414  s&Sa.x  ...2.2..
00001f60: 6501 1f63 000c 0300 0400 0a07 001e 0018  e..c............
00001f70: 372e 0000 0000 0646 0000 053f 0800 7f01  7......F...?....
00001f80: 7f00 1621 0174 000c 7f40 7f01 017f 0000  ...!.t...@......
00001f90: 6300 0005 107f 007f 017f 1000 0063 0000  c............c..
00001fa0: 057f 007f 0201 7f10 0063 0000 2005 7f00  .........c.. ...
00001fb0: 7f01 7f10 0000 6300 0005 7f00 047f 017f  ......c.........
00001fc0: 1000 6300 4000 057f 007f 017f 0010 0063  ..c.@..........c
00001fd0: 0000 057f 0800 7f01 7f10 5069 0061 6e6f  ..........Pi.ano
00001fe0: 566f 6963 0065 040b 0032 3215 0015 6501  Voic.e...22...e.
00001ff0: 1f63 0803 0000 0a00 0c00 1c00 000c 2912  .c............).
00002000: 0000 0401 003a 0000 0c7f 007f 0201 7f00  .....:..........
00002010: 175a 0000 200c 7f00 7f01 7f00 003f 4300  .Z.. ........?C.
00002020: 0005 7f00 047f 017f 0000 6300 4000 057f  ..........c.@...
00002030: 007f 017f 0010 0063 0000 057f 0800 7f01  .......c........
00002040: 7f10 0063 0000 0005 7f00 7f01 017f 1000  ...c............
00002050: 6300 0005 107f 007f 017f 1000 0063 0000  c............c..
00002060: 057f 007f 0201 7f10 566f 6963 0065 536c  ........Voic.eSl
00002070: 6170 7304 000b 0032 3216 164c 001a 1f63  aps....22..L...c
00002080: 0903 000a 0000 0903 1800 1237 0c2e 007f  ...........7....
00002090: 7b57 4200 4007 047f 007f 017f 1000 3f59  {WB.@.........?Y
000020a0: 0079 057f 0800 7f01 7f00 2e33 0000 0006  .y.........3....
000020b0: 7f00 7f01 017f 0002 6300 0005 107f 007f  ........c.......
000020c0: 017f 1000 0063 0000 057f 007f 0201 7f10  .....c..........
000020d0: 0063 0000 2005 7f00 7f01 7f10 0000 6300  .c.. .........c.
000020e0: 0005 7f00 047f 017f 1000 6300 4000 057f  ..........c.@...
000020f0: 007f 017f 0010 3520 5374 7269 006e 6773  ......5 Stri.ngs
00002100: 2001 0b00 0043 4337 3700 001f 0063 0b03   ....CC77....c..
00002110: 0000 0004 0008 2700 2837 2e00 0200 7b07  ......'.(7....{.
00002120: 3c00 0005 107f 007f 017f 005d 0042 0000  <..........].B..
00002130: 057f 007f 0201 7f00 0063 0000 2005 7f00  .........c.. ...
00002140: 0001 7f10 0000 6300 0005 7f00 0400 017f  ......c.........
00002150: 1000 6300 4000 057f 0000 017f 0010 0063  ..c.@..........c
00002160: 0000 057f 0800 0001 7f10 0063 0000 0005  ...........c....
00002170: 7f00 0001 017f 1000 6300 0005 107f 0000  ........c.......
00002180: 017f 1054 0065 6368 6e6f 4675 006e 6b04  ...T.echnoFu.nk.
00002190: 0b00 3232 0012 1265 011f 630a 0003 0000  ..22...e..c.....
000021a0: 000b 0618 4000 1437 2e00 007e 0001 3800  ....@..7...~..8.
000021b0: 0002 7f00 047f 017f 003b 3a0c 4000 037f  .........;:.@...
000021c0: 007f 017f 0000 3710 0800 077f 0800 7f01  ......7.........
000021d0: 7f00 0f59 0174 0008 7f00 7f01 017f 0000  ...Y.t..........
000021e0: 6300 0005 107f 007f 017f 1000 0063 0000  c............c..
000021f0: 057f 007f 0201 7f10 0063 0000 2005 7f00  .........c.. ...
00002200: 7f01 7f10 0000 6300 0005 7f00 047f 017f  ......c.........
00002210: 104a 616d 0061 6963 6120 2020 0004 0b00  .Jam.aica   ....
00002220: 4040 1919 0065 011f 630a 0300 0003 000b  @@...e..c.......
00002230: 0920 0016 1037 2e00 007b 1955 0000 000c  . ...7...{.U....
00002240: 7f00 7f01 017f 0032 2200 000c 107f 007f  .......2".......
00002250: 017f 002c 023f 7400 057f 007f 0201 7f00  ...,.?t.........
00002260: 0063 0000 2005 7f00 7f01 7f10 0000 6300  .c.. .........c.
00002270: 0005 7f00 047f 017f 1000 6300 4000 057f  ..........c.@...
00002280: 007f 017f 0010 0063 0000 057f 0800 7f01  .......c........
00002290: 7f10 0063 0000 0005 7f00 7f01 017f 1043  ...c...........C
000022a0: 6c75 6220 0044 6174 6520 040b 0000 0000  lub .Date ......
000022b0: 1414 0000 001f 6309 0300 0400 0007 071a  ......c.........
000022c0: 0018 372e 0400 007b 1a2f 0000 2005 3800  ..7....{./.. .8.
000022d0: 7f01 7f00 0029 2b00 0005 4c39 047f 017f  .....)+...L9....
000022e0: 003e 3700 4000 057f 4d7f 017d 0000 1763  .>7.@...M..}...c
000022f0: 0000 057f 0800 7f01 7d10 0063 0000 0005  ........}..c....
00002300: 7f00 7f01 017f 1000 6300 0005 107f 007f  ........c.......
00002310: 017f 1000 0063 0000 057f 007f 0201 7f10  .....c..........
00002320: 0063 0000 2005 7f00 7f01 7f10 0042 7261  .c.. ........Bra
00002330: 7373 2d4f 0072 6368 010b 0132 0032 1919  ss-O.rch...2.2..
00002340: 6501 1f63 000a 0300 0200 0706 001a 0017  e..c............
00002350: 1e2e 0000 017d 2a4b 0000 057f 0800 7f01  .....}*K........
00002360: 7f00 345a 0174 020c 7f00 7f01 017f 0000  ..4Z.t..........
00002370: 6300 0005 107f 0000 017f 1000 0063 0000  c............c..
00002380: 057f 0000 0201 7f10 0063 0000 2005 7f00  .........c.. ...
00002390: 0001 7f10 0000 6300 0005 7f00 0400 017f  ......c.........
000023a0: 1000 6300 4000 057f 0000 017f 0010 0063  ..c.@..........c
000023b0: 0000 057f 0800 0001 7f10 456c 0065 6347  ..........El.ecG
000023c0: 7569 7461 0072 0414 1d64 6416 0028 253a  uita.r...dd..(%:
000023d0: 0f00 0064 200d 0000 0506 7a00 0032 0a3c  ...d .....z..2.<
000023e0: 0901 000e 0633 747e 007f 007f 0201 7f00  .....3t~........
000023f0: 4a4f 0000 200c 7f00 7f01 7f00 0436 2174  JO.. ........6!t
00002400: 020c 7f00 047f 017f 0000 6300 4000 057f  ..........c.@...
00002410: 007f 017f 0010 0063 0000 057f 0800 7f01  .......c........
00002420: 7f10 0063 0000 0005 7f00 7f01 017f 1000  ...c............
00002430: 6300 0005 107f 007f 017f 1000 0063 0000  c............c..
00002440: 057f 007f 0201 7f10 476f 7468 0069 6361  ........Goth.ica
00002450: 2020 2001 0000 0a1b 1b1e 1e00 0000 1f1c     .............
00002460: 0010 0a2e 0800 0000 7a00 3200 0004 0109  ........z.2.....
00002470: 0a46 1300 4000 057f 007f 017f 0800 2249  .F..@........."I
00002480: 7400 057f 0800 7f01 7f00 0063 0000 0005  t..........c....
00002490: 7f00 0001 017f 1000 6300 0005 107f 0000  ........c.......
000024a0: 017f 1000 0063 0000 057f 0000 0201 7f10  .....c..........
000024b0: 0063 0000 2005 7f00 0001 7f10 0000 6300  .c.. .........c.
000024c0: 0005 7f00 0400 017f 1000 6300 4000 057f  ..........c.@...
000024d0: 0000 017f 0010 4261 7373 2648 006f 726e  ......Bass&H.orn
000024e0: 2002 0b00 0014 1412 1265 011f 0063 0a03   ........e...c..
000024f0: 0001 0004 0006 1a00 1437 2e00 0200 7c1a  .........7....|.
00002500: 3100 0005 103b 007f 017f 0034 004a 0000  1....;.....4.J..
00002510: 057f 3c7f 0201 7f00 0063 0000 2005 7f00  ..<......c.. ...
00002520: 0001 7f10 0000 6300 0005 7f00 0400 017f  ......c.........
00002530: 1000 6300 4000 057f 0000 017f 0010 0063  ..c.@..........c
00002540: 0000 057f 0800 0001 7f10 0063 0000 0005  ...........c....
00002550: 7f00 0001 017f 1000 6300 0005 107f 0000  ........c.......
00002560: 017f 1053 0061 696e 7450 6574 0065 7204  ...S.aintPet.er.
00002570: 0b00 2a2a 001b 1b00 001f 4b0e 0003 0014  ..**......K.....
00002580: 0004 0421 4000 1637 2e00 007b 0817 4b00  ...!@..7...{..K.
00002590: 7e07 7f00 047f 017f 0025 3500 4000 057f  ~........%5.@...
000025a0: 007f 017f 1000 2f26 007f 037f 0800 7f01  ....../&........
000025b0: 7f00 0063 0000 0005 7f00 7f01 017f 1000  ...c............
000025c0: 6300 0005 107f 007f 017f 1000 0063 0000  c............c..
000025d0: 057f 007f 0201 7f10 0063 0000 2005 7f00  .........c.. ...
000025e0: 7f01 7f10 0000 6300 0005 7f00 047f 017f  ......c.........
000025f0: 1043 656c 0065 7374 6961 6c20 0004 0208  .Cel.estial ....
00002600: 2828 6464 0001 650f 2400 0e78 242e 007e  ((dd..e.$..x$..~
00002610: 0046 4800 0000 0000 0c04 3c2f 0000 0005  .FH.......</....
00002620: 7f00 7f01 217f 0008 050c 7c0c 107f 007f  ....!.....|.....
00002630: 017f 0008 0005 0c04 0c7f 007f 0201 7f00  ................
00002640: 0063 0000 2005 7f00 7f01 7f10 0000 6300  .c.. .........c.
00002650: 0005 7f00 047f 017f 1000 6300 4000 057f  ..........c.@...
00002660: 007f 017f 0010 0063 0000 057f 0800 7f01  .......c........
00002670: 7f10 0063 0000 0005 7f00 7f01 017f 1053  ...c...........S
00002680: 7472 696e 0067 4265 6c6c 040b 0000 3232  trin.gBell....22
00002690: 1e1e 6006 001f 630b 0300 0200 0008 091e  ..`...c.........
000026a0: 0012 5032 2400 007c 1b32 7400 2005 7f00  ..P2$..|.2t. ...
000026b0: 7f01 7f00 0023 0a0c 000c 7f00 047f 017f  .....#..........
000026c0: 0000 6300 4000 057f 007f 017f 0010 0063  ..c.@..........c
000026d0: 0000 057f 0800 7f01 7f10 0063 0000 0005  ...........c....
000026e0: 7f00 7f01 017f 1000 6300 0005 107f 007f  ........c.......
000026f0: 017f 1000 0063 0000 057f 007f 0201 7f10  .....c..........
00002700: 0063 0000 2005 7f00 7f01 7f10 004d 6164  .c.. ........Mad
00002710: 6e65 7373 0020 2020 0406 0032 0032 1414  ness.   ...2.2..
00002720: 0000 1f0d 0000 0000 0000 0403 001a 0019  ................
00002730: 192e 0000 097b 132c 7400 057f 0800 7f01  .....{.,t.......
00002740: 7f00 3734 000c 0005 7f00 7f01 017f 003b  ..74...........;
00002750: 240c 0005 107f 007f 017f 001c 0232 7400  $............2t.
00002760: 057f 007f 0201 7f00 092e 0000 2105 7f00  ............!...
00002770: 7f01 7f00 0000 6300 0005 7f00 047f 017f  ......c.........
00002780: 1000 6300 4000 057f 007f 017f 0010 0063  ..c.@..........c
00002790: 0000 057f 0800 7f01 7f10 4368 0069 6e61  ..........Ch.ina
000027a0: 2020 2020 0020 0409 0219 1919 1019 6501      . ........e.
000027b0: 1f16 0019 0000 2c01 0808 2100 1212 2a30  ......,...!...*0
000027c0: 007e 0023 0017 0700 057f 007f 0201 7f00  .~.#............
000027d0: 5f3b 0c00 200c 7f00 7f01 7f00 004b 630c  _;.. ........Kc.
000027e0: 0005 7f00 047f 017f 0000 6300 4000 057f  ..........c.@...
000027f0: 007f 017f 0010 0063 0000 057f 0800 7f01  .......c........
00002800: 7f10 0063 0000 0005 7f00 7f01 017f 1000  ...c............
00002810: 6300 0005 107f 007f 017f 1000 0063 0000  c............c..
00002820: 057f 007f 0201 7f10 4c61 7965 0072 5061  ........Laye.rPa
00002830: 6420 2004 000b 003e 3e14 1400 0000 1f63  d  ....>>......c
00002840: 0b03 0002 0000 0a02 1c00 1223 0028 0003  ...........#.(..
00002850: 0233 2f00 4003 047f 007f 017f 1000 574a  .3/.@.........WJ
00002860: 007d 067f 0800 7f01 7f00 3705 000c 0005  .}........7.....
00002870: 7f00 7f01 017f 0000 6300 0005 107f 007f  ........c.......
00002880: 017f 1000 0063 0000 057f 007f 0201 7f10  .....c..........
00002890: 0063 0000 2005 7f00 7f01 7f10 0000 6300  .c.. .........c.
000028a0: 0005 7f00 047f 017f 1000 6300 4000 057f  ..........c.@...
000028b0: 007f 017f 0010 5468 6520 4875 006e 7465  ......The Hu.nte
000028c0: 7201 0b01 0032 321a 1a65 011f 0063 0903  r....22..e...c..
000028d0: 0003 0006 0006 1a00 161e 2e00 0200 7d57  ..............}W
000028e0: 4d00 0005 107f 007f 017f 0034 0650 747c  M..........4.Pt|
000028f0: 0c7f 007f 0201 7f00 0063 0000 2005 7f00  .........c.. ...
00002900: 0001 7f10 0000 6300 0005 7f00 0400 017f  ......c.........
00002910: 1000 6300 4000 057f 0000 017f 0010 0063  ..c.@..........c
00002920: 0000 057f 0800 0001 7f10 0063 0000 0005  ...........c....
00002930: 7f00 0001 017f 1000 6300 0005 107f 0000  ........c.......
00002940: 017f 1054 0050 2653 6178 2020 0020 2001  ...T.P&Sax  .  .
00002950: 1600 3232 0015 1565 011f 3201 0000 0000  ..22...e..2.....
00002960: 0002 080a 4000 1337 2e00 007f 003e 3c00  ....@..7.....><.
00002970: 0004 7f00 047f 017f 000c 3c00 4000 067f  ..........<.@...
00002980: 007f 017f 0000 0063 0000 057f 0800 0001  .......c........
00002990: 7f10 0063 0000 0005 7f00 0001 017f 1000  ...c............
000029a0: 6300 0005 107f 0000 017f 1000 0063 0000  c............c..
000029b0: 057f 0000 0201 7f10 0063 0000 2005 7f00  .........c.. ...
000029c0: 0001 7f10 0000 6300 0005 7f00 0400 017f  ......c.........
000029d0: 1044 6565 0070 4865 6172 7420 0004 010b  .Dee.pHeart ....
000029e0: 2828 2828 0000 000f 1a00 111f 082e 0000  ((((............
000029f0: 7d63 1303 0000 0e00 0605 1363 0174 0005  }c.........c.t..
00002a00: 7f00 7f01 117f 001e 4874 0005 107f 007f  ........Ht......
00002a10: 017f 0000 0063 0000 057f 007f 0201 7f10  .....c..........
00002a20: 0063 0000 2005 7f00 7f01 7f10 0000 6300  .c.. .........c.
00002a30: 0005 7f00 047f 017f 1000 6300 4000 057f  ..........c.@...
00002a40: 007f 017f 0010 0063 0000 057f 0800 7f01  .......c........
00002a50: 7f10 0063 0000 0005 7f00 7f01 017f 1053  ...c...........S
00002a60: 6178 2026 0020 4f72 6368 0409 0000 1e1e  ax &. Orch......
00002a70: 2020 2343 220f 7401 320a 7a00 0004 071a    #C".t.2.z.....
00002a80: 000f 372e 0400 007b 1b37 0c02 200c 3b00  ..7....{.7.. .;.
00002a90: 7f01 7300 0002 2d0c 020c 3b00 047f 0173  ..s...-...;....s
00002aa0: 003e 3200 4000 057f 3c7f 017d 1000 0232  .>2.@...<..}...2
00002ab0: 0c7e 053b 0800 7f01 7310 0563 0000 0005  .~.;....s..c....
00002ac0: 7f00 7f01 017f 1000 6300 0005 107f 007f  ........c.......
00002ad0: 017f 1000 0063 0000 057f 007f 0201 7f10  .....c..........
00002ae0: 0063 0000 2005 7f00 7f01 7f10 0042 616d  .c.. ........Bam
00002af0: 6275 2042 0065 6c6c 040b 0132 0032 1e1e  bu B.ell...2.2..
00002b00: 6501 1f63 000b 0300 0f00 0b00 001a 0014  e..c............
00002b10: 1e2e 0000 017d 323e 0000 0c7f 0800 7f01  .....}2>........
00002b20: 7f00 4b3d 0174 0004 7f00 7f01 017f 003f  ..K=.t.........?
00002b30: 4d00 0006 107f 007f 017f 0000 0063 0000  M............c..
00002b40: 057f 007f 0201 7f10 0063 0000 2005 7f00  .........c.. ...
00002b50: 7f01 7f10 0000 6300 0005 7f00 047f 017f  ......c.........
00002b60: 1000 6300 4000 057f 007f 017f 0010 0063  ..c.@..........c
00002b70: 0000 057f 0800 7f01 7f10 4169 0072 486f  ..........Ai.rHo
00002b80: 726e 7320 0020 040b 0132 3219 0019 6501  rns . ...22...e.
00002b90: 1f63 0a03 1000 0400 0c7d 1c00 200f 1e30  .c.......}.. ..0
00002ba0: 0000 7d57 0046 0002 037f 007f 2201 7f00  ..}W.F......"...
00002bb0: 213c 7400 2005 7f00 7f01 7f00 083f 1e00  !<t. ........?..
00002bc0: 7e07 7f00 047f 017f 0000 6300 4000 057f  ~.........c.@...
00002bd0: 007f 017f 0010 0063 0000 057f 0800 7f01  .......c........
00002be0: 7f10 0063 0000 0005 7f00 7f01 017f 1000  ...c............
00002bf0: 6300 0005 107f 007f 017f 1000 0063 0000  c............c..
00002c00: 057f 007f 0201 7f10 4d75 7369 0063 2042  ........Musi.c B
00002c10: 6f78 2001 000b 0332 322c 2c65 0001 1f63  ox ....22,,e...c
00002c20: 0903 0002 0000 0304 0000 0002 0063 000c  .............c..
00002c30: 014b 6300 4000 0c7f 007f 017f 0000 193f  .Kc.@..........?
00002c40: 0000 057f 0800 7f01 7f00 0063 0000 0005  ...........c....
00002c50: 7f00 0001 017f 1000 6300 0005 107f 0000  ........c.......
00002c60: 017f 1000 0063 0000 057f 0000 0201 7f10  .....c..........
00002c70: 0063 0000 2005 7f00 0001 7f10 0000 6300  .c.. .........c.
00002c80: 0005 7f00 0400 017f 1000 6300 4000 057f  ..........c.@...
00002c90: 0000 017f 0010 456c 6563 7472 0069 6320  ......Electr.ic 
00002ca0: 2004 000b 000f 0f1d 1d00 001f 000b 000e   ...............
00002cb0: 372e 0000 017b 6307 0300 0f00 2008 0c3d  7....{c..... ..=
00002cc0: 2d0c 7d05 1043 007f 017f 005e 0032 0002  -.}..C.....^.2..
00002cd0: 057f 437f 0201 7f00 5e2d 0c00 2005 4300  ..C.....^-.. .C.
00002ce0: 7f01 7f00 0036 2800 0005 4300 047f 017f  .....6(...C.....
00002cf0: 003d 410c 417f 057f 007f 017f 0800 362c  .=A.A.........6,
00002d00: 7402 057f 0843 7f01 7f00 0a63 0174 0005  t....C.....c.t..
00002d10: 7f00 7f01 017f 1000 6300 0005 107f 007f  ........c.......
00002d20: 017f 1041 006e 696d 6174 696f 006e 2001  ...A.nimatio.n .
00002d30: 0b00 2828 0023 2365 011f 630b 0003 0003  ..((.##e..c.....
00002d40: 000b 011b 4000 1219 3200 007b 000d 2a00  ....@...2..{..*.
00002d50: 0006 7f00 447f 017f 004b 6374 4000 047f  ....D....Kct@...
00002d60: 007f 017f 0000 0063 0000 057f 0800 0001  .......c........
00002d70: 7f10 0063 0000 0005 7f00 0001 017f 1000  ...c............
00002d80: 6300 0005 107f 0000 017f 1000 0063 0000  c............c..
00002d90: 057f 0000 0201 7f10 0063 0000 2005 7f00  .........c.. ...
00002da0: 0001 7f10 0000 6300 0005 7f00 0400 017f  ......c.........
00002db0: 1044 6972 0074 7942 7261 7373 0001 0b00  .Dir.tyBrass....
00002dc0: 3232 1414 0000 001f 6308 0300 0002 0003  22......c.......
00002dd0: 051e 001a 1006 3300 047c 5c41 0000 0004  ......3..|\A....
00002de0: 7f00 7f01 017f 003d 3700 0006 107f 007f  .......=7.......
00002df0: 017f 0000 0063 0000 057f 0000 0201 7f10  .....c..........
00002e00: 0063 0000 2005 7f00 0001 7f10 0000 6300  .c.. .........c.
00002e10: 0005 7f00 0400 017f 1000 6300 4000 057f  ..........c.@...
00002e20: 0000 017f 0010 0063 0000 057f 0800 0001  .......c........
00002e30: 7f10 0063 0000 0005 7f00 0001 017f 1053  ...c...........S
00002e40: 7472 2650 0069 616e 6f20 010b 0001 2323  tr&P.iano ....##
00002e50: 1414 6501 001f 6308 0100 0400 000c 061a  ..e...c.........
00002e60: 0018 1e2e 0400 007d 013c 0000 200c 7f00  .......}.<.. ...
00002e70: 7f01 7f00 041b 2374 0005 7f00 047f 017f  ......#t........
00002e80: 0000 6300 4000 057f 0000 017f 0010 0063  ..c.@..........c
00002e90: 0000 057f 0800 0001 7f10 0063 0000 0005  ...........c....
00002ea0: 7f00 0001 017f 1000 6300 0005 107f 0000  ........c.......
00002eb0: 017f 1000 0063 0000 057f 0000 0201 7f10  .....c..........
00002ec0: 0063 0000 2005 7f00 0001 7f10 0053 6178  .c.. ........Sax
00002ed0: 5365 6374 0069 6f6e 0116 0132 0032 0f0f  Sect.ion...2.2..
00002ee0: 0000 1f32 0001 0000 0000 0105 001a 000e  ...2............
00002ef0: 1e2e 0000 017e 3e4c 0000 077f 0800 7f01  .....~>L........
00002f00: 7f00 4855 0000 0003 7f00 7f01 017f 0000  ..HU............
00002f10: 6300 0005 107f 0000 017f 1000 0063 0000  c............c..
00002f20: 057f 0000 0201 7f10 0063 0000 2005 7f00  .........c.. ...
00002f30: 0001 7f10 0000 6300 0005 7f00 0400 017f  ......c.........
00002f40: 1000 6300 4000 057f 0000 017f 0010 0063  ..c.@..........c
00002f50: 0000 057f 0800 0001 7f10 4469 0067 6974  ..........Di.git
00002f60: 616c 426f 0078 0417 0064 6428 0028 3333  alBo.x...dd(.(33
00002f70: 0f2c 0000 0000 0000 0102 1500 2216 483b  .,..........".H;
00002f80: 000c 7d4b 0063 0000 057f 007f 0201 7f00  ..}K.c..........
00002f90: 1945 0000 2005 7f00 7f01 7f00 0408 0e74  .E.. ..........t
00002fa0: 000c 7f00 046c 017f 0029 320c 4000 0c7f  .....l...)2.@...
00002fb0: 007f 6d7f 0000 0063 0000 057f 0800 7f01  ..m....c........
00002fc0: 7f10 0063 0000 0005 7f00 7f01 017f 1000  ...c............
00002fd0: 6300 0005 107f 007f 017f 1000 0063 0000  c............c..
00002fe0: 057f 007f 0201 7f10 5069 616e 006f 2645  ........Pian.o&E
00002ff0: 5031 2001 000b 0132 3214 1400 0000 1f63  P1 ....22......c
00003000: 0903 0004 0000 0a06 1a00 181e 082e 0000  ................
00003010: 7d01 3c00 4000 047f 007f 017f 1000 0b4f  }.<.@..........O
00003020: 007f 067f 0800 7f01 7f00 0063 0000 0005  ...........c....
00003030: 7f00 0001 017f 1000 6300 0005 107f 0000  ........c.......
00003040: 017f 1000 0063 0000 057f 0000 0201 7f10  .....c..........
00003050: 0063 0000 2005 7f00 0001 7f10 0000 6300  .c.. .........c.
00003060: 0005 7f00 0400 017f 1000 6300 4000 057f  ..........c.@...
00003070: 0000 017f 0010 5468 6550 6c61 006e 6574  ......ThePla.net
00003080: 7304 0b02 0028 2819 1965 011f 0063 0903  s....((..e...c..
00003090: 0003 000a 0005 2400 1278 2e00 117e 0000  ......$..x...~..
000030a0: 3274 000c 107f 007f 017f 001b 0214 7400  2t............t.
000030b0: 057f 007f 0201 7f00 0063 0000 2005 7f00  .........c.. ...
000030c0: 7f01 7f10 0000 6300 0005 7f00 047f 017f  ......c.........
000030d0: 1000 6300 4000 057f 007f 017f 0010 0063  ..c.@..........c
000030e0: 0000 057f 0800 7f01 7f10 0063 0000 0005  ...........c....
000030f0: 7f00 7f01 017f 1000 6300 0005 107f 007f  ........c.......
00003100: 017f 1042 0061 7262 6172 6961 006e 7301  ...B.arbaria.ns.
00003110: 0016 1b1b 0064 6400 001f 0b00 4200 4863  .....dd.....B.Hc
00003120: 0000 0025 0003 0000 0000 0204 0017 3200  ...%..........2.
00003130: 0005 7f00 447f 017f 0061 2874 4000 057f  ....D....a(t@...
00003140: 007f 017f 0000 0063 0000 057f 0800 0001  .......c........
00003150: 7f10 0063 0000 0005 7f00 0001 017f 1000  ...c............
00003160: 6300 0005 107f 0000 017f 1000 0063 0000  c............c..
00003170: 057f 0000 0201 7f10 0063 0000 2005 7f00  .........c.. ...
00003180: 0001 7f10 0000 6300 0005 7f00 0400 017f  ......c.........
00003190: 1041 746d 006f 7370 6865 7265 0004 0b00  .Atm.osphere....
000031a0: 3232 1919 0065 011f 630a 0300 0003 000c  22...e..c.......
000031b0: 0a1e 000f 1037 2e00 007b 0419 0374 7e0c  .....7...{...t~.
000031c0: 7f00 7f01 017f 001c 0700 0205 107f 427f  ..............B.
000031d0: 017f 001c 0005 0002 0c41 007f 0201 7f00  .........A......
000031e0: 571e 0002 2003 7f39 7f01 7f00 0057 1e00  W... ..9.....W..
000031f0: 0007 3800 047f 017f 0000 6300 4000 057f  ..8.......c.@...
00003200: 007f 017f 0010 0063 0000 057f 0800 7f01  .......c........
00003210: 7f10 0063 0000 0005 7f00 7f01 017f 104d  ...c...........M
00003220: 6574 616c 0020 436c 6176 040b 0000 3232  etal. Clav....22
00003230: 1414 6501 001f 6309 0300 0200 0007 0714  ..e...c.........
00003240: 0018 372e 0400 007c 3d19 0000 2003 7f00  ..7....|=... ...
00003250: 7f01 7f00 0037 1e07 000c 7f00 447f 017f  .....7......D...
00003260: 0026 3274 4000 077f 007f 017f 0000 3b23  .&2t@.........;#
00003270: 0c00 057f 0800 7f01 7f00 0063 0000 0005  ...........c....
00003280: 7f00 7f01 017f 1000 6300 0005 107f 007f  ........c.......
00003290: 017f 1000 0063 0000 057f 007f 0201 7f10  .....c..........
000032a0: 0063 0000 2005 7f00 7f01 7f10 0048 616d  .c.. ........Ham
000032b0: 6d65 7248 0065 6164 0416 0364 0064 1b1b  merH.ead...d.d..
000032c0: 3333 1f63 0004 0000 0000 0002 0006 000a  33.c............
000032d0: 164d 0000 1001 2e2d 007c 063b 0000 7f01  .M.....-.|.;....
000032e0: 0f00 3b28 0000 0005 7f00 7f01 000f 004c  ..;(...........L
000032f0: 3c00 0404 007f 007f 010f 0040 0028 0000  <..........@.(..
00003300: 057f 3b7f 0001 0f00 3063 0000 0000 7f00  ..;.....0c......
00003310: 7f01 0f10 001c 6300 0000 7f00 007f 010f  ......c.........
00003320: 101f 6300 0000 007f 007f 010f 0010 1163  ..c............c
00003330: 0000 007f 0000 7f01 0f10 4e75 0074 7326  ..........Nu.ts&
00003340: 426f 6c74 0073 040b 0132 3218 0018 6501  Bolt.s...22...e.
00003350: 1f63 0a03 0000 0400 0c02 1a00 201c 1e2e  .c.......... ...
00003360: 0000 7d5b 022d 7400 027f 007f 0201 7f00  ..}[.-t.........
00003370: 4e14 0000 2003 7f00 7f01 7f00 0037 0808  N... ........7..
00003380: 000c 7f39 447f 017f 000f 2d74 4000 087f  ...9D.....-t@...
00003390: 007f 017f 0000 0063 0000 057f 0800 7f01  .......c........
000033a0: 7f10 0063 0000 0005 7f00 7f01 017f 1000  ...c............
000033b0: 6300 0005 107f 007f 017f 1000 0063 0000  c............c..
000033c0: 057f 007f 0201 7f10 4f72 6761 006e 4368  ........Orga.nCh
000033d0: 6f69 7201 000b 0228 2816 1665 0001 1f63  oir....((..e...c
000033e0: 0903 0003 4000 0805 2400 122a 042e 007e  ....@...$..*...~
000033f0: 0217 4f00 4000 057f 007f 017f 0000 2f1c  ..O.@........./.
00003400: 0000 057f 0800 7f01 7f00 0063 0000 0005  ...........c....
00003410: 7f00 0001 017f 1000 6300 0005 107f 0000  ........c.......
00003420: 017f 1000 0063 0000 057f 0000 0201 7f10  .....c..........
00003430: 0063 0000 2005 7f00 0001 7f10 0000 6300  .c.. .........c.
00003440: 0005 7f00 0400 017f 1000 6300 4000 057f  ..........c.@...
00003450: 0000 017f 0010 5069 616e 6f28 004c 2b52  ......Piano(.L+R
00003460: 2904 010b 0011 1132 3200 0013 0017 0014  )......22.......
00003470: 1e2e 0001 017d 000d 0000 0000 0006 0729  .....}.........)
00003480: 4600 0001 002b 007f 010b 0029 0046 0000  F....+.....).F..
00003490: 0233 2c7f 0001 0b00 2946 0000 0003 3b34  .3,.....)F....;4
000034a0: 7f01 0b00 0029 4600 0004 433c 007f 010b  .....)F...C<....
000034b0: 0029 4600 0000 064b 447f 010b 0000 2946  .)F....KD.....)F
000034c0: 0000 0753 004c 7f01 0b00 2946 0000 0008  ...S.L....)F....
000034d0: 5b54 7f01 000b 0029 4600 0009 007f 5c7f  [T.....)F.....\.
000034e0: 010b 0053 0070 6163 6520 5261 0063 6501  ...S.pace Ra.ce.
000034f0: 0a00 1e1e 2000 0000 000f 3400 0050 0a68  .... .....4..P.h
00003500: 0100 0000 0000 0000 0000 0000 0039 2b00  .............9+.
00003510: 0005 7f00 047f 017f 0058 2e00 4000 057f  .........X..@...
00003520: 007f 017f 0000 0063 0000 057f 0800 0001  .......c........
00003530: 7f10 0063 0000 0005 7f00 0001 017f 1000  ...c............
00003540: 6300 0005 107f 0000 017f 1000 0063 0000  c............c..
00003550: 057f 0000 0201 7f10 0063 0000 2005 7f00  .........c.. ...
00003560: 0001 7f10 0000 6300 0005 7f00 0400 017f  ......c.........
00003570: 104c 756e 0061 2d50 6164 2020 0001 0b00  .Lun.a-Pad  ....
00003580: 4646 2323 0065 011f 6309 0300 0003 0004  FF##.e..c.......
00003590: 0a1c 0012 1019 3200 007b 3c56 0000 0005  ......2..{<V....
000035a0: 7f00 7f01 017f 0014 1a0c 000c 107f 007f  ................
000035b0: 017f 0000 0063 0000 057f 0000 0201 7f10  .....c..........
000035c0: 0063 0000 2005 7f00 0001 7f10 0000 6300  .c.. .........c.
000035d0: 0005 7f00 0400 017f 1000 6300 4000 057f  ..........c.@...
000035e0: 0000 017f 0010 0063 0000 057f 0800 0001  .......c........
000035f0: 7f10 0063 0000 0005 7f00 0001 017f 1042  ...c...........B
00003600: 6561 7574 0079 2020 2020 010b 0002 2828  eaut.y    ....((
00003610: 1414 6501 001f 6309 0300 0300 000c 0524  ..e...c........$
00003620: 0015 782e 0000 0000 5328 0000 2005 7f00  ..x.....S(.. ...
00003630: 7f01 7f00 0001 2800 0005 7f00 047f 017f  ......(.........
00003640: 0000 6300 4000 057f 0000 017f 0010 0063  ..c.@..........c
00003650: 0000 057f 0800 0001 7f10 0063 0000 0005  ...........c....
00003660: 7f00 0001 017f 1000 6300 0005 107f 0000  ........c.......
00003670: 017f 1000 0063 0000 057f 0000 0201 7f10  .....c..........
00003680: 0063 0000 2005 7f00 0001 7f10 0057 6176  .c.. ........Wav
00003690: 654d 616c 006c 6574 040b 0032 0032 1414  eMal.let...2.2..
000036a0: 6006 1f63 000b 0300 0500 0700 001a 0012  `..c............
000036b0: 372e 0000 0009 4c32 0004 027f 0800 7f01  7.....L2........
000036c0: 7f00 5650 0000 0008 7f00 7f01 317f 001c  ..VP........1...
000036d0: 1e74 7c0c 107f 007f 017f 0002 0063 0000  .t|..........c..
000036e0: 057f 007f 0201 7f10 0063 0000 2005 7f00  .........c.. ...
000036f0: 7f01 7f10 0000 6300 0005 7f00 047f 017f  ......c.........
00003700: 1000 6300 4000 057f 007f 017f 0010 0063  ..c.@..........c
00003710: 0000 057f 0800 7f01 7f10 4d61 006c 6c65  ..........Ma.lle
00003720: 7473 2020 0020 0409 010a 0a14 1014 6501  ts  . ........e.
00003730: 1f7a 0032 0200 4800 0808 1a00 2016 1e2e  .z.2..H..... ...
00003740: 0000 7d0f 003c 0000 057f 007f 0201 7f00  ..}..<..........
00003750: 1c19 0000 200c 7f00 7f01 7f00 0019 0d00  .... ...........
00003760: 0005 7f00 047f 017f 0000 6300 4000 057f  ..........c.@...
00003770: 007f 017f 0010 0063 0000 057f 0800 7f01  .......c........
00003780: 7f10 0063 0000 0005 7f00 7f01 017f 1000  ...c............
00003790: 6300 0005 107f 007f 017f 1000 0063 0000  c............c..
000037a0: 057f 007f 0201 7f10 506c 7563 006b 4f72  ........Pluc.kOr
000037b0: 6761 6e04 000b 0142 4214 1465 0001 1f63  gan....BB..e...c
000037c0: 0803 0002 0000 0c0a 1800 0f1e 482e 0000  ............H...
000037d0: 7d43 3274 4000 057f 007f 017f 0000 4f0a  }C2t@.........O.
000037e0: 0c00 057f 0800 7f01 7f00 0063 0000 0005  ...........c....
000037f0: 7f00 7f01 017f 1000 6300 0005 107f 007f  ........c.......
00003800: 017f 1000 0063 0000 057f 007f 0201 7f10  .....c..........
00003810: 0063 0000 2005 7f00 7f01 7f10 0000 6300  .c.. .........c.
00003820: 0005 7f00 047f 017f 1000 6300 4000 057f  ..........c.@...
00003830: 007f 017f 0010 452e 5069 616e 006f 4d69  ......E.Pian.oMi
00003840: 7801 0b00 0040 4019 1965 011f 0063 0b03  x....@@..e...c..
00003850: 0005 000c 0005 1e00 1c37 2e00 0200 7b33  .........7....{3
00003860: 2300 0007 107f 007f 017f 0047 0232 7400  #..........G.2t.
00003870: 037f 007f 0201 7f00 0063 0000 2005 7f00  .........c.. ...
00003880: 0001 7f10 0000 6300 0005 7f00 0400 017f  ......c.........
00003890: 1000 6300 4000 057f 0000 017f 0010 0063  ..c.@..........c
000038a0: 0000 057f 0800 0001 7f10 0063 0000 0005  ...........c....
000038b0: 7f00 0001 017f 1000 6300 0005 107f 0000  ........c.......
000038c0: 017f 1053 0075 7065 7253 796e 0074 6804  ...S.uperSyn.th.
000038d0: 0b00 3232 0014 144c 1a1f 6309 0003 000a  ..22...L..c.....
000038e0: 0009 0918 4000 1837 2e00 007b 084c 2800  ....@..7...{.L(.
000038f0: 7c04 3c00 047f 017f 0057 2800 4004 057f  |.<......W(.@...
00003900: 007f 017f 1000 2428 007e 063c 0800 7f01  ......$(.~.<....
00003910: 7f00 5c37 0000 0205 7f3c 7f01 017f 0000  ..\7.....<......
00003920: 6300 0005 107f 007f 017f 1000 0063 0000  c............c..
00003930: 057f 007f 0201 7f10 0063 0000 2005 7f00  .........c.. ...
00003940: 7f01 7f10 0000 6300 0005 7f00 047f 017f  ......c.........
00003950: 1050 6173 0073 6167 6573 2020 0004 0b01  .Pas.sages  ....
00003960: 3232 1717 0065 011f 6309 0300 0002 000c  22...e..c.......
00003970: 091a 0010 001e 2e00 0001 342d 0174 000c  ..........4-.t..
00003980: 7f00 7f01 017f 0020 2300 000c 107f 007f  ....... #.......
00003990: 017f 000f 0232 7400 057f 007f 0201 7f00  .....2t.........
000039a0: 0063 0000 2005 7f00 7f01 7f10 0000 6300  .c.. .........c.
000039b0: 0005 7f00 047f 017f 1000 6300 4000 057f  ..........c.@...
000039c0: 007f 017f 0010 0063 0000 057f 0800 7f01  .......c........
000039d0: 7f10 0063 0000 0005 7f00 7f01 017f 104f  ...c...........O
000039e0: 6374 6176 0065 4261 7373 040b 0000 3232  ctav.eBass....22
000039f0: 1111 0000 001f 630c 0300 0400 000c 0b14  ......c.........
00003a00: 0028 372e 0000 0003 063c 0000 2003 7f00  .(7......<.. ...
00003a10: 7f01 7f00 0442 1e74 0007 7f30 047f 017f  .....B.t...0....
00003a20: 0000 6300 4000 057f 007f 017f 0010 0063  ..c.@..........c
00003a30: 0000 057f 0800 7f01 7f10 0063 0000 0005  ...........c....
00003a40: 7f00 7f01 017f 1000 6300 0005 107f 007f  ........c.......
00003a50: 017f 1000 0063 0000 057f 007f 0201 7f10  .....c..........
00003a60: 0063 0000 2005 7f00 7f01 7f10 0053 7562  .c.. ........Sub
00003a70: 2d53 7061 0063 6520 0411 0264 0064 1919  -Spa.ce ...d.d..
00003a80: 0165 1f63 000c 0259 0000 0b06 481e 000a  .e.c...Y....H...
00003a90: 2a2e 007e 0800 552d 7400 057f 0800 7f01  *..~..U-t.......
00003aa0: 7f00 4128 0174 000c 7f00 7f01 017f 0000  ..A(.t..........
00003ab0: 6300 0005 107f 007f 017f 1000 0063 0000  c............c..
00003ac0: 057f 007f 0201 7f10 0063 0000 2005 7f00  .........c.. ...
00003ad0: 7f01 7f10 0000 6300 0005 7f00 047f 017f  ......c.........
00003ae0: 1000 6300 4000 057f 007f 017f 0010 0063  ..c.@..........c
00003af0: 0000 057f 0800 7f01 7f10 506c 0065 6173  ..........Pl.eas
00003b00: 657e 7e7e 007e 0401 0b18 181b 001b 0000  e~~~.~..........
00003b10: 1f21 0000 011c 6400 0602 3520 0003 001e  .!....d...5 ....
00003b20: 0008 0361 0063 0000 057f 007f 0001 0f00  ...a.c..........
00003b30: 6228 0000 0005 7f00 7f01 0f00 0062 1e07  b(...........b..
00003b40: 0005 7f00 007f 010f 0063 2f00 0000 057f  .........c/.....
00003b50: 007f 010f 0000 0363 0000 057f 0000 7f01  .......c........
00003b60: 0f10 0e63 0000 0005 7f00 7f01 004f 1006  ...c.........O..
00003b70: 6300 0005 007f 007f 010f 104c 0063 0000  c..........L.c..
00003b80: 057f 007f 0001 0410 556e 6976 0065 7273  ........Univ.ers
00003b90: 6520 2001 0020 1e00 2a00 0000 0000 3c3a  e  .. ..*.....<:
00003ba0: 0000 6035 0000 0000 0000 0000 0002 0006  ..`5............
00003bb0: 0006 0005 0009 1414 3232 1600 003f 1600  ........22...?..
00003bc0: 0014 3c00 4403 0377 0050 001e 2001 0300  ..<.D..w.P.. ...
00003bd0: 6200 6f00 0005 0000 0000 4f00 0063 0000  b.o.......O..c..
00003be0: 3700 6251 0429 6360 2453 5434 0000 3d00  7.bQ.)c`$ST4..=.
00003bf0: 142a 634a 4043 0032 5100 4208 0201 1d4a  .*cJ@C.2Q.B....J
00003c00: 634f 0a01 0000 003f 0000 0000 0000 6300  cO.....?......c.
00003c10: 0000 0000 0000 0000 2a00 0062 0000 0000  ........*..b....
00003c20: 6332 2a3b 002f 3b63 6363 0050 0069 616e  c2*;./;ccc.P.ian
00003c30: 6f20 3136 2027 2000 0000 7f00 1000 0000  o 16 ' .........
00003c40: 0060 4000 0000 6040 0000 0000 0000 0000  .`@...`@........
00003c50: 0200 0500 0005 0009 0164 6413 0013 0000  .........dd.....
00003c60: 1f0a 0030 000e 0500 0304 1a00 2028 1e2e  ...0........ (..
00003c70: 0000 7d00 0000 0000 0000 0000 0428 3646  ..}..........(6F
00003c80: 2f00 005a 0000 635b 0150 0063 0063 4f00  /..Z..c[.P.c.cO.
00003c90: 004a 0000 0000 5a10 635d 001a 0000 0000  .J....Z.c]......
00003ca0: 0000 0000 0000 0000 0000 0000 0000 0000  ................
00003cb0: 0000 0000 0000 0000 0000 0000 0000 0000  ................
00003cc0: 0000 0000 0000 0000 0000 0000 0000 0042  ...............B
00003cd0: 7261 7373 0020 3120 2020 0020 0020 0000  rass. 1   . . ..
00003ce0: 0000 0000 007c 4000 0060 4000 0000 0002  .....|@..`@.....
00003cf0: 0f00 0f02 0007 0600 0600 010b 000f 0f28  ...............(
00003d00: 2800 003f 4019 0010 1449 007f 0009 3c09  (..?@....I....<.
00003d10: 0300 0a00 000a 0800 5900 0000 0000 0000  ........Y.......
00003d20: 1a6a 0063 0000 6363 062f 4f16 0263 6e63  .j.c..cc./O..cnc
00003d30: 0040 3e00 0027 0057 0263 4959 0050 5606  .@>..'.W.cIY.PV.
00003d40: 0001 0001 0000 0000 0000 0000 0000 6300  ..............c.
00003d50: 0000 0000 0000 0000 0000 0000 0000 0032  ...............2
00003d60: 0000 0000 0000 0063 0063 0063 0000 4040  .......c.c.c..@@
00003d70: 4000 4f6f 0068 2f41 6868 2020 5020 0100  @.Oo.h/Ahh  P ..
00003d80: 1d7f 1e7f 0000 0500 2040 0002 0020 4000  ........ @... @.
00003d90: 0000 0000 0000 0002 0006 0006 0000 0b00  ................
00003da0: 3232 1e1e 0000 001f 1e3b 1d00 000a 0007  22.......;......
00003db0: 0521 0014 3037 2e00 007d 7402 0800 002a  .!..07...}t....*
00003dc0: 7f00 1400 2268 5233 0000 6d00 0063 4f2d  ...."hR3..m..cO-
00003dd0: 5739 2a29 081e 3a00 4400 0004 0063 4646  W9*)..:.D....cFF
00003de0: 4443 2e00 0000 6600 0001 0000 4800 0000  DC....f.....H...
00003df0: 7e21 0062 0863 0000 7300 4746 003e 423c  ~!.b.c..s.GF.>B<
00003e00: 3030 2800 0000 6300 0002 632a 0044 553e  00(...c...c*.DU>
00003e10: 2f00 0000 0000 4775 6974 6172 0020 3120  /.....Guitar. 1 
00003e20: 2000 0008 0000 0000 0000 0060 0042 0000   ..........`.B..
00003e30: 6042 0000 0000 0200 0000 0200 0006 0006  `B..............
00003e40: 0000 0012 0012 0707 0000 1f15 2000 0a27  ............ ..'
00003e50: 0b00 7d04 002d 0028 372e 0000 017b 0000  ..}..-.(7....{..
00003e60: 0000 0000 1000 0019 306c 3f35 001d 4200  ........0l?5..B.
00003e70: 601f 205d 200f 0600 6348 6045 0056 0400  `. ] ...cH`E.V..
00003e80: 634d 0000 1000 0522 2e08 2200 0000 0000  cM....."..".....
00003e90: 0000 0000 0063 0000 0000 0000 0000 0000  .....c..........
00003ea0: 0000 0000 0000 3200 0000 0000 0000 6300  ......2.......c.
00003eb0: 6300 6300 0000 0000 0042 6f74 0074 6c65  c.c......Bot.tle
00003ec0: 4265 6c6c 2801 001c 7f14 7f07 4400 0020  Bell(.......D.. 
00003ed0: 3d03 0360 003d 0000 0003 0000 000e 0200  =..`.=..........
00003ee0: 0600 0900 000b 0032 321c 1c00 0000 1f63  .......22......c
00003ef0: 0b03 0002 0400 057e 2100 0a37 182e 0000  .......~!..7....
00003f00: 7b7e 0c00 0000 0000 2314 6336 0000 0000  {~......#.c6....
00003f10: 0046 0063 0063 6363 6363 6337 0036 0032  .F.c.cccccc7.6.2
00003f20: 0040 0063 0063 6363 6334 0000 0000 0102  .@.c.cccc4......
00003f30: 0c00 0000 2000 0000 1436 5047 0000 002d  .... ....6PG...-
00003f40: 0063 1917 0017 1763 6300 3630 0030 0000  .c.....cc.60.0..
00003f50: 0063 6363 0063 6334 0000 0000 0046 7265  .ccc.cc4.....Fre
00003f60: 746c 6573 4073 2020 0000 107f 0000 0000  tles@s  ........
00003f70: 0000 6040 0000 0060 4000 0000 2006 0000  ..`@...`@... ...
00003f80: 0002 7d08 0000 0800 0b00 3232 0012 1200  ..}.......22....
00003f90: 001f 630c 0003 0002 0004 051e 0000 1637  ..c............7
00003fa0: 2e00 0000 0000 0000 0000 0000 0800 1436  ...............6
00003fb0: 4e3c 0000 0050 0063 5500 0000 0022 0e4b  N<...P.cU....".K
00003fc0: 3600 4622 0000 0063 5800 0000 0005 0200  6.F"...cX.......
00003fd0: 0200 0000 0000 0000 0000 0063 0000 0000  ...........c....
00003fe0: 0000 0000 0000 0000 0000 0000 0032 0000  .............2..
00003ff0: 0000 0000 0063 0063 0063 0000 0000 0000  .....c.c.c......
00004000: 5379 6d70 0068 6f6e 6963 2001 1400 1f7f  Symp.honic .....
00004010: 5b7f 000d 0000 6047 3f01 6047 0000 0000  [.....`G?.`G....
00004020: 0200 0000 0002 0006 0009 000b 0000 4343  ..............CC
00004030: 2828 0000 001f 630b 0300 0000 0004 0223  ((....c........#
00004040: 0018 372e 0400 007c 0000 0000 4000 0000  ..7....|....@...
00004050: 005a 3674 001d 0000 0000 634c 0049 514b  .Z6t......cL.IQK
00004060: 2b00 593a 0000 3600 3128 634a 0056 3357  +.Y:..6.1(cJ.V3W
00004070: 2d00 0000 000f 0204 0000 0000 0000 0000  -...............
00004080: 0000 3e00 0000 0000 5658 594d 0059 4f48  ..>.....VXYM.YOH
00004090: 2800 004e 0000 291b 635a 533c 005d 1f00  (..N..).cZS<.]..
000040a0: 0000 0f50 0061 6e20 466c 7574 0065 2000  ...P.an Flut.e .
000040b0: 001b 0000 1000 0000 0060 3e10 0201 603e  .........`>...`>
000040c0: 1001 0002 0000 0506 020c 0201 0003 0101  ................
000040d0: 1914 1464 0029 0000 1f18 000e 001f 2e00  ...d.)..........
000040e0: 0102 1b00 001d 0a1c 0028 3700 0000 0000  .........(7.....
000040f0: 0000 0000 0018 0000 2d00 0056 0000 634e  ........-..V..cN
00004100: 4343 435a 0063 4536 0032 0063 0005 6363  CCCZ.cE6.2.c..cc
00004110: 6363 6302 0000 0000 0100 0000 0000 0000  ccc.............
00004120: 0000 0000 0000 0000 0000 0000 0000 0000  ................
00004130: 0000 0000 0000 0000 0000 0000 0000 0000  ................
00004140: 0000 0000 0000 0044 7275 6d73 0020 2331  .......Drums. #1
00004150: 2020 0222 0200 7f00 0000 0000 007c 4200    .".........|B.
00004160: 0060 4200 0000 0003 1601 2102 0012 0300  .`B.......!.....
00004170: 0f00 1601 0064 6412 1200 003f 0063 0200  .....dd....?.c..
00004180: 0000 0001 0009 1500 1c1e 4a00 037a 7d00  ..........J..z}.
00004190: 0000 0000 2000 0000 1b44 5c63 0000 6363  .... ....D\c..cc
000041a0: 0063 6363 0063 6363 6060 3e00 0055 0063  .ccc.ccc``>..U.c
000041b0: 0063 6000 2000 0001 0041 0801 0000 0000  .c`. ....A......
000041c0: 0000 0000 0000 6300 0000 0000 0000 0000  ......c.........
000041d0: 0000 0000 0000 0032 0000 0000 0000 0000  .......2........
000041e0: 0000 0000 0000 4040 4000 5061 006e 4d61  ......@@@.Pa.nMa
000041f0: 6c6c 6574 1020 0100 1b7f 1700 0007 0000  llet. ..........
00004200: 6042 0000 0060 4200 0000 0000 0000 0002  `B...`B.........
00004210: 0006 002a 0000 0b00 3232 1919 0000 001f  ...*....22......
00004220: 6309 0300 0002 0008 0424 0011 005a 3c00  c........$...Z<.
00004230: 0200 0805 0000 0000 0000 0000 027f 1d63  ...............c
00004240: 0000 6200 0062 1a1a 1a1a 6362 0040 3a00  ..b..b....cb.@:.
00004250: 6200 6300 0063 0e32 4653 1500 0000 0201  b.c..c.2FS......
00004260: 0a00 0000 0000 0000 0000 0000 0044 0000  .............D..
00004270: 0000 620e 0032 0032 0063 1c00 0000 4c00  ..b..2.2.c....L.
00004280: 6100 6339 0039 3939 1800 0000 0000 452e  a.c9.999......E.
00004290: 5069 616e 006f 2031 2000 0001 017f 0000  Pian.o 1 .......
000042a0: 0000 0060 0044 0000 6044 0000 0000 0000  ...`.D..`D......
000042b0: 0000 0200 0005 0007 000b 0132 0032 1212  ...........2.2..
000042c0: 0000 1f63 000a 0300 0100 0300 001a 0014  ...c............
000042d0: 1f2d 0000 017d 0000 0000 0000 1000 000c  .-...}..........
000042e0: 3653 4a00 0000 5000 6353 1746 0000 6363  6SJ...P.cS.F..cc
000042f0: 3200 0044 0000 0000 635c 0000 0000 0600  2..D....c\......
00004300: 0000 0000 0000 0000 0000 0000 0063 0000  .............c..
00004310: 0000 0000 0000 0000 0000 0000 0000 3200  ..............2.
00004320: 0000 0000 0000 6300 6300 6300 0000 0000  ......c.c.c.....
00004330: 0054 7275 006d 7065 7420 2020 0000 2024  .Tru.mpet   .. $
00004340: 0000 0000 0000 007c 4700 0060 0045 0000  .......|G..`.E..
00004350: 0003 0f03 0021 0200 0200 0500 0001 0a0f  .....!..........
00004360: 0f10 1000 0000 3f1c 0018 1f03 0000 0209  ......?.........
00004370: 0801 1900 001f 0107 0700 5900 0000 0000  ..........Y.....
00004380: 0000 0930 0000 6300 1963 0062 0056 1663  ...0..c..c.b.V.c
00004390: 1c63 004a 003e 0034 0063 0263 0049 4d50  .c.J.>.4.c.c.IMP
000043a0: 4d01 0043 0108 0100 0000 0000 0000 0000  M..C............
000043b0: 6300 0000 0000 0000 0000 0000 0000 0000  c...............
000043c0: 0032 0000 0000 0000 0063 0063 0000 6300  .2.......c.c..c.
000043d0: 4040 4000 004e 696d 6275 7320 0020 2020  @@@..Nimbus .   
000043e0: 0100 6300 2027 0000 000f 2040 0400 0760  ..c. '.... @...`
000043f0: 4000 0000 0002 1800 0002 0005 0000 0b00  @...............
00004400: 010e 1e1e 0032 3200 001f 1a00 0010 0a33  .....22........3
00004410: 0002 0063 400a 0500 0000 0375 0000 0000  ...c@......u....
00004420: 0000 0000 0000 3236 0000 0000 0028 0063  ......26.....(.c
00004430: 6363 6363 0063 633d 3600 3200 0063 0263  cccc.cc=6.2..c.c
00004440: 6363 6363 0048 0000 0001 050a 0000 0000  cccc.H..........
00004450: 0000 002e 0036 0000 0000 2b02 0063 6363  .....6....+..ccc
00004460: 6363 6363 0038 0000 2600 0000 0063 6363  cccc.8..&....ccc
00004470: 6363 4800 0000 0000 4469 7374 0047 7569  ccH.....Dist.Gui
00004480: 7461 7201 0020 0a00 4d00 000a 0000 7c45  tar.. ..M.....|E
00004490: 0000 6045 0000 0000 0400 0000 0002 0006  ..`E............
000044a0: 0009 0015 001d 6464 1732 0000 003f 0000  ......dd.2...?..
000044b0: 6408 0000 0400 0c7a 0024 1663 0009 0000  d......z.$.c....
000044c0: 0037 0000 4005 0000 000b 3452 0063 0030  .7..@.....4R.c.0
000044d0: 3c00 5151 0042 6300 3900 4a2e 0000 625b  <.QQ.Bc.9.J...b[
000044e0: 0000 6363 0034 003c 0406 4202 0002 3700  ..cc.4.<..B...7.
000044f0: 000a 0a00 0000 0063 0000 0000 0000 6300  .......c......c.
00004500: 0000 0000 0000 0000 0800 0062 0000 0000  ...........b....
00004510: 6341 6300 0063 0263 6363 0056 0069 6265  cAc..c.ccc.V.ibe
00004520: 7320 2020 0020 2000 0013 0000 1000 0000  s   .  .........
00004530: 0060 3e00 0000 603e 0000 0000 0000 0000  .`>...`>........
00004540: 0200 0600 0012 0000 1114 145f 005f 0000  ..........._._..
00004550: 1f1d 001c 001f 2100 0102 4b63 0003 1900  ......!...Kc....
00004560: 0007 0700 0000 0000 0000 0000 0410 2369  ..............#i
00004570: 5063 015f 0000 6341 1111 113e 0026 2837  Pc._..cA...>.&(7
00004580: 0049 1f01 0000 6359 0000 0017 0000 2202  .I....cY......".
00004590: 2200 0000 0000 0000 0000 6300 0000 0000  ".........c.....
000045a0: 0000 0000 0000 0000 0000 0032 0000 0000  ...........2....
000045b0: 0000 0063 0000 6300 6300 0000 0000 0050  ...c..c.c......P
000045c0: 6963 6b20 0042 6173 7320 0000 020e 7f00  ick .Bass ......
000045d0: 0000 0000 0160 4000 0060 4000 0000 0002  .....`@..`@.....
000045e0: 0000 0002 0000 0500 0f00 0b00 0032 3212  .............22.
000045f0: 1200 001c 0000 0002 0000 0008 000b 0e00  ................
00004600: 143c 5000 0200 7b00 0000 0000 2000 0000  .<P...{..... ...
00004610: 2336 4933 0000 0041 0063 4100 0000 0063  #6I3...A.cA....c
00004620: 6363 0000 004e 0000 0063 4e00 0000 0005  cc...N...cN.....
00004630: 0000 0000 0000 0000 0000 0000 0000 6300  ..............c.
00004640: 0000 0000 0000 0000 0000 0000 0000 0032  ...............2
00004650: 0000 0000 0000 0063 0063 0063 0000 0000  .......c.c.c....
00004660: 0000 4f72 0067 616e 2032 2020 1020 0000  ..Or.gan 2  . ..
00004670: 067f 0000 0800 0000 6042 0000 0160 4200  ........`B...`B.
00004680: 0000 0300 0000 0002 0008 0010 0000 0b00  ................
00004690: 3c3c 1212 0000 001f 6309 0300 0000 000c  <<......c.......
000046a0: 0c21 0014 0005 3200 0006 0000 0000 0000  .!....2.........
000046b0: 0000 0046 0036 0000 0000 0000 0063 6362  ...F.6.......ccb
000046c0: 6363 6363 001e 0000 0000 0000 0063 6363  cccc.........ccc
000046d0: 6363 0400 0000 0000 0000 0000 0000 0000  cc..............
000046e0: 0063 0000 0000 0000 0000 0000 0000 0000  .c..............
000046f0: 0000 3200 0000 0000 0000 6300 0063 0063  ..2.......c..c.c
00004700: 0000 0000 0000 466c 7574 6520 0020 2020  ......Flute .   
00004710: 2000 201a 0000 0000 0000 007c 003e 0000   . ........|.>..
00004720: 603e 0000 0000 0207 0300 0200 0003 0008  `>..............
00004730: 0001 170f 000f 0e0e 1600 3f1a 0000 141f  ..........?.....
00004740: 2e00 0009 0006 0000 0000 0006 0002 0037  ...............7
00004750: 0000 0500 0000 0000 5500 4600 0063 2303  ........U.F..c#.
00004760: 6237 3063 0020 5f00 285c 0031 0000 630b  b70c. _.(\.1..c.
00004770: 631d 4e63 103c 0100 4108 0100 0000 0000  c.Nc.<..A.......
00004780: 0000 0000 0063 0000 0000 0000 0000 0000  .....c..........
00004790: 0000 0000 0000 3200 0000 0000 0000 6300  ......2.......c.
000047a0: 6300 6300 0040 4040 0050 6f6c 0065 2020  c.c..@@@.Pol.e  
000047b0: 2020 2020 0000 002e 0000 0000 0000 0000      ............
000047c0: 4200 0000 0042 0000 0000 0000 0000 0200  B....B..........
000047d0: 0900 0a00 0008 0b28 2832 3200 0000 1f46  .......((22....F
000047e0: 4000 0000 0000 040a 6309 0300 000e 0007  @.......c.......
000047f0: 0c00 0000 0000 1400 1163 0000 0000 6300  .........c....c.
00004800: 6327 0063 005f 5754 4b41 6323 0000 0050  c'.c._WTKAc#...P
00004810: 0000 0063 0063 0000 003b 0001 0000 0000  ...c.c...;......
00004820: 0000 0000 0000 0000 6300 0000 0000 0000  ........c.......
00004830: 0000 0000 0000 0000 0032 0000 0000 0000  .........2......
00004840: 0063 0063 0000 6300 0000 0000 0044 7265  .c.c..c......Dre
00004850: 616d 2050 4061 6420 0100 5b7f 205c 0000  am P@ad ..[. \..
00004860: 0a05 403f 0003 0660 3f00 0000 0000 0000  ..@?...`?.......
00004870: 0e02 0032 0000 0700 1719 3232 0028 3000  ...2......22.(0.
00004880: 001f 5100 4000 0000 0001 017a 0000 320a  ..Q.@......z..2.
00004890: 2100 2837 0000 0000 0000 0000 0000 2e36  !.(7...........6
000048a0: 0010 0000 0029 0056 4214 1313 0063 633c  .....).VB....cc<
000048b0: 3600 3532 0040 5058 481d 1d1d 0034 0000  6.52.@PXH....4..
000048c0: 0101 0409 017f 1000 0000 002e 024e 7800  .............Nx.
000048d0: 0000 2900 0056 4214 1313 6363 004e 3600  ..)..VB...cc.N6.
000048e0: 3500 3228 0058 481d 1d1d 3400 0000 0001  5.2(.XH...4.....
000048f0: 4d61 6769 0063 5069 616e 6f01 0000 0000  Magi.cPiano.....
00004900: 0700 0009 0000 603f 0000 603f 0000 0000  ......`?..`?....
00004910: 0000 0000 0002 0006 0009 000b 0000 3232  ..............22
00004920: 1212 0000 001f 630b 0300 0000 0003 081c  ......c.........
00004930: 000c 2a63 0000 000c 0000 0000 4000 0000  ..*c........@...
00004940: 0000 404b 0063 0347 6300 635e 1562 105a  ..@K.c.Gc.c^.b.Z
00004950: 4e74 2840 017b 2b06 2600 631f 005e 5700  Nt(@.{+.&.c..^W.
00004960: 1322 000e 0002 6300 0000 0000 1000 000d  ."....c.........
00004970: 406c 6300 0002 6300 6320 1663 2023 4141  @lc...c.c .c #AA
00004980: 2848 7f46 0000 0000 6363 0000 0000 0500  (H.F....cc......
00004990: 0000 0053 006f 6c6f 2053 6178 0020 2000  ...S.olo Sax.  .
000049a0: 2022 0000 0000 0000 007c 4700 0000 6042   ".......|G...`B
000049b0: 0000 0002 0007 0303 0112 0300 0005 0001  ................
000049c0: 0512 1211 0011 0000 3f13 0018 001f 2e00  ........?.......
000049d0: 0000 0800 0019 143c 0000 0300 0059 0000  .......<.....Y..
000049e0: 0000 0000 041b 3028 5900 0462 0000 625a  ......0(Y..b..bZ
000049f0: 2163 2963 0000 633f 1f26 0063 0002 6349  !c)c..c?.&.c..cI
00004a00: 5950 5604 0400 4308 0100 0000 0000 0000  YPV...C.........
00004a10: 0000 6300 0000 0000 0000 0000 0000 0000  ..c.............
00004a20: 0000 0032 0000 0000 0000 0063 0000 6300  ...2.......c..c.
00004a30: 6300 4040 0040 0043 686f 6972 0020 2020  c.@@.@.Choir.   
00004a40: 2020 0000 021e 7f00 0000 0000 1160 4002    ...........`@.
00004a50: 0060 4000 0000 0002 0000 0202 0000 0500  .`@.............
00004a60: 0500 0116 0019 194b 4b00 0013 001a 0028  .......KK......(
00004a70: 1f0c 0000 017d 3203 0000 0000 0408 0a7d  .....}2........}
00004a80: 0800 0000 2000 2314 5136 4e00 0000 0021  .... .#.Q6N....!
00004a90: 0063 6363 0063 6363 6332 3600 0040 0008  .ccc.cccc26..@..
00004aa0: 0b63 5350 4052 512c 0000 0009 0000 0000  .cSP@RQ,........
00004ab0: 0000 0000 0000 6300 0000 0000 0000 0000  ......c.........
00004ac0: 0000 0000 0000 0032 0000 0000 0000 0063  .......2.......c
00004ad0: 0063 0063 0000 0000 0000 3132 002d 5374  .c.c......12.-St
00004ae0: 7269 6e67 5020 0100 087f 097f 0a00 7c0a  ringP ........|.
00004af0: 2040 0000 0160 4000 0000 0200 0000 0002   @...`@.........
00004b00: 0006 0006 0000 0b00 3232 1414 0000 001f  ........22......
00004b10: 6308 0300 0003 0003 0022 0013 1016 2a00  c........"....*.
00004b20: 007b 0000 0000 0000 0000 0014 0242 5346  .{...........BSF
00004b30: 0000 4100 0063 5503 5e00 6363 004f 4200  ..A..cU.^.cc.OB.
00004b40: 4600 0000 0063 5b00 0000 0300 0000 0000  F....c[.........
00004b50: 0000 0000 4000 0000 0014 4253 0046 0000  ....@.....BS.F..
00004b60: 4100 6355 0003 6300 6362 2a43 0000 2d00  A.cU..c.cb*C..-.
00004b70: 0000 635b 0000 0000 0300 0000 0000 4b61  ..c[..........Ka
00004b80: 6c69 6d62 0061 2020 2000 0017 4000 0000  limb.a   ...@...
00004b90: 0000 0060 003e 0000 603e 0000 0000 0000  ...`.>..`>......
00004ba0: 0000 0200 000c 0032 0000 0a14 0014 6464  .......2......dd
00004bb0: 0000 1f1e 4000 1832 2e00 017c 0014 0000  ....@..2...|....
00004bc0: 0600 0006 0004 0000 0000 0000 1000 0018  ................
00004bd0: 384f 5400 000e 6300 6342 0000 2000 6314  8OT...c.cB.. .c.
00004be0: 3c40 7246 001d 0a00 6350 0000 0000 2400  <@rF....cP....$.
00004bf0: 0200 0000 0000 0000 0000 0000 0063 0000  .............c..
00004c00: 0000 0000 0000 0000 0000 0000 0000 3200  ..............2.
00004c10: 0000 0000 0000 6300 6300 6300 0000 0000  ......c.c.c.....
00004c20: 0041 2e42 0061 7373 2020 2020 0800 000d  .A.B.ass    ....
00004c30: 7f00 0000 0400 0060 3900 0060 0039 0000  .......`9..`.9..
00004c40: 0004 0000 0000 0200 0400 0f00 0003 0014  ................
00004c50: 140b 0b00 0000 1f0c 000b 164c 0000 0004  ...........L....
00004c60: 1b00 0737 082e 0000 7b00 0000 0000 0000  ...7....{.......
00004c70: 0000 2b36 0145 3200 2e62 0063 004f 0000  ..+6.E2..b.c.O..
00004c80: 0063 635e 0036 004b 3163 0063 004b 0000  .cc^.6.K1c.c.K..
00004c90: 0000 0002 0002 0000 0000 0000 0000 0000  ................
00004ca0: 6300 0000 0000 0000 0000 0000 0000 0000  c...............
00004cb0: 0032 0000 0000 0000 0063 0063 0000 6300  .2.......c.c..c.
00004cc0: 0000 0000 0053 7472 696e 6773 0020 2020  .....Strings.   
00004cd0: 0000 1f00 2000 0000 0000 6040 0402 0360  .... .....`@...`
00004ce0: 4000 0000 0003 0200 0102 0003 0000 1900  @...............
00004cf0: 1600 3232 0014 1400 001c 3201 0000 0000  ..22......2.....
00004d00: 0006 0624 4000 1832 2d00 007b 0000 0000  ...$@..2-..{....
00004d10: 0000 0023 0814 362a 732d 0000 001b 0263  ...#..6*s-.....c
00004d20: 5555 5957 0053 4b4f 2900 4300 003c 0c63  UUYW.SKO).C..<.c
00004d30: 5252 5252 0021 0000 0001 0000 0000 0000  RRRR.!..........
00004d40: 0000 0063 0000 0000 0000 0000 0000 0000  ...c............
00004d50: 0000 0000 0032 0000 0000 0000 0063 0063  .....2.......c.c
00004d60: 0063 0000 0000 0000 5379 6e4d 0061 6c6c  .c......SynM.all
00004d70: 6574 2000 0000 1900 0000 0000 0200 603e  et ...........`>
00004d80: 0000 603e 0000 0000 0400 0000 0002 000c  ..`>............
00004d90: 0028 0000 001d 1414 1028 0000 001f 1e00  .(.......(......
00004da0: 1437 2e00 0600 7b7a 0032 223c 0019 0100  .7....{z.2"<....
00004db0: 0000 0000 4000 0000 001e 3853 0054 000e  ....@.....8S.T..
00004dc0: 6300 6338 0014 1414 6314 6300 0000 4a1c  c.c8....c.c...J.
00004dd0: 0000 634a 0019 191f 2400 0202 0000 0000  ..cJ....$.......
00004de0: 0000 0000 0000 0063 0000 0000 0000 0000  .......c........
00004df0: 0000 0000 0000 0000 3200 0000 0000 0000  ........2.......
00004e00: 6300 6300 0063 0000 0000 0044 0072 756d  c.c..c.....D.rum
00004e10: 7320 2332 2020 2002 2001 7f00 0000 0000  s #2   . .......
00004e20: 323c 4100 0000 2042 0000 0003 0016 0121  2<A... B.......!
00004e30: 0212 0300 0005 0001 0b12 1215 0015 0000  ................
00004e40: 3f1a 001c 101f 2e00 007d 1c09 0003 000f  ?........}......
00004e50: 0008 0800 0059 0000 0000 0000 0426 445c  .....Y.......&D\
00004e60: 6363 0063 0000 634f 0000 0037 0036 603e  cc.c..cO...7.6`>
00004e70: 0055 2100 0000 6360 0000 0001 0002 4002  .U!...c`......@.
00004e80: 0000 2522 000a 0a01 0000 0000 0000 0000  ..%"............
00004e90: 0063 0000 0000 0000 0000 004f 0000 0000  .c.........O....
00004ea0: 0000 6300 0000 3f00 0000 6363 0063 004c  ..c...?...cc.c.L
00004eb0: 6f72 6520 0020 2020 2020 0000 022a 7f00  ore .     ...*..
00004ec0: 0000 0000 1160 4002 0360 4000 0000 0002  .....`@..`@.....
00004ed0: 0000 0402 0000 0900 1e00 0b02 0032 321e  .............22.
00004ee0: 1e00 001f 0063 0503 0000 0005 1005 2100  .....c........!.
00004ef0: 102a 2e00 017e 0200 0000 0000 2000 2314  .*...~...... .#.
00004f00: 3936 5127 0000 002d 0063 5354 0058 5558  96Q'...-.cST.XUX
00004f10: 5a32 3600 0045 004a 1463 5759 0058 573e  Z26..E.J.cWY.XW>
00004f20: 0000 0001 0000 0000 0000 0000 0000 6300  ..............c.
00004f30: 0000 0000 0000 0000 0000 0000 0000 0032  ...............2
00004f40: 0000 0000 0000 0063 0063 0063 0000 0000  .......c.c.c....
00004f50: 0000 4861 0072 7073 6963 6f72 1064 0000  ..Ha.rpsicor.d..
00004f60: 047f 0000 0000 0000 6044 0000 0160 4400  ........`D...`D.
00004f70: 0000 0000 0000 0002 0003 0006 0000 010a  ................
00004f80: 0a0a 2727 0000 001f 1a00 141c 042e 007c  ..''...........|
00004f90: 0005 0016 000a 1900 0104 0000 0000 0000  ................
00004fa0: 0000 000d 0243 5343 090e 1700 0063 5900  .....CSC.....cY.
00004fb0: 0000 0063 0459 0c7d 4100 0000 0063 5100  ...c.Y.}A....cQ.
00004fc0: 0000 0502 0000 0000 0000 0000 0000 0000  ................
00004fd0: 0063 0000 0000 0000 0000 0000 0000 0000  .c..............
00004fe0: 0000 3200 0000 0000 0000 6300 0063 0063  ..2.......c..c.c
00004ff0: 0000 0000 0000 446f 7562 6c65 0052 6565  ......Double.Ree
00005000: 6400 0026 417f 0000 0000 0060 0840 0a01  d..&A......`.@..
00005010: 6040 0000 0000 0200 0015 0200 0001 0007  `@..............
00005020: 000b 0000 0000 1212 0000 1c00 0000 0300  ................
00005030: 0000 0405 0021 0010 372e 0000 0003 0000  .....!..7.......
00005040: 0000 0000 0000 0013 3a12 4500 0000 6300  ........:.E...c.
00005050: 6358 5158 0047 0a0e 3636 0030 0000 3f02  cXQX.G..66.0..?.
00005060: 6352 5557 0057 0204 0000 0100 0000 0000  cRUW.W..........
00005070: 0000 0000 0063 0000 0000 0000 0000 0000  .....c..........
00005080: 0000 0000 0000 3200 0000 0000 0000 6300  ......2.......c.
00005090: 6300 6300 0000 0000 0042 6f74 0074 6c65  c.c......Bot.tle
000050a0: 7320 2020 0000 001c 0000 0000 4400 0060  s   ........D..`
000050b0: 4000 0060 0018 0000 0002 0000 0000 0200  @..`............
000050c0: 0500 0b00 000b 0232 3214 1400 0000 1f63  .......22......c
000050d0: 0b03 000f 4400 0a7e 2200 0a2a 002e 0000  ....D..~"..*....
000050e0: 0100 0000 0000 0000 0000 3d2a 0137 2700  ..........=*.7'.
000050f0: 0032 0063 0043 4657 4b58 4763 022a 6c3e  .2.c.CFWKXGc.*l>
00005100: 0040 0263 0050 5051 500a 0000 0000 0100  .@.c.PPQP.......
00005110: 0000 0000 0000 0000 6300 0000 0000 0000  ........c.......
00005120: 0000 0000 0000 0000 0032 0000 0000 0000  .........2......
00005130: 0063 0063 0000 6300 0000 0000 004b 6f74  .c.c..c......Kot
00005140: 6f20 5472 0065 6d20 0020 2701 0000 0000  o Tr.em . '.....
00005150: 0000 7c41 001d 0460 4100 0000 0000 0000  ..|A...`A.......
00005160: 0002 1203 0000 2800 0509 0707 0021 2100  ......(......!!.
00005170: 003f 1d00 0000 003c 0003 0546 0001 3f0c  .?.....<...F..?.
00005180: 0401 080b 0000 5900 0000 0000 0000 0830  ......Y........0
00005190: 0063 0063 0019 0063 4643 634a 0035 6346  .c.c...cFCcJ.5cF
000051a0: 3e00 3200 0063 0063 3021 5020 002b 0041  >.2..c.c0!P .+.A
000051b0: 0001 0000 0000 0000 0000 0063 0000 0000  ...........c....
000051c0: 0000 0000 0000 0000 0000 0000 0032 0000  .............2..
000051d0: 0000 0000 0063 0063 0063 0040 0040 4000  .....c.c.c.@.@@.
000051e0: 4265 6c6c 0020 5269 6e67 2000 0000 1600  Bell. Ring .....
000051f0: 0000 0000 0200 6040 0000 6040 0000 0000  ......`@..`@....
00005200: 0000 0000 0002 0007 0023 0009 0001 1414  .........#......
00005210: 1414 0000 221f 7a00 3200 7401 0001 001a  ....".z.2.t.....
00005220: 000c 1f2e 0400 007d 0000 0000 0000 0000  .......}........
00005230: 0000 3600 003c 6300 3c00 6363 0063 6363  ..6..<c.<.cc.ccc
00005240: 6363 5900 0000 3a00 0000 6363 0063 6363  ccY...:...cc.ccc
00005250: 3002 0000 0000 0000 0000 0000 0000 0063  0..............c
00005260: 0000 0000 0000 0000 0000 0000 0000 0000  ................
00005270: 3200 0000 0000 0000 6300 6300 0063 0000  2.......c.c..c..
00005280: 0000 0053 0079 6e74 6842 6173 2073 3100  ...S.ynthBas s1.
00005290: 0011 7f00 1000 0000 0060 4100 0000 6041  .........`A...`A
000052a0: 0000 0003 0000 0200 0200 0600 000f 0000  ................
000052b0: 0b0a 0a32 0032 0000 1f1a 000f 0014 3d00  ...2.2........=.
000052c0: 0004 2012 0003 0014 0004 0b00 0000 0000  .. .............
000052d0: 0000 0000 0413 373f 6300 005e 0000 6354  ......7?c..^..cT
000052e0: 0000 0063 0063 4900 0027 0000 0000 635c  ...c.cI..'....c\
000052f0: 1111 1405 0000 0000 0000 0000 0000 0000  ................
00005300: 0000 6300 0000 0000 0000 0000 0000 0000  ..c.............
00005310: 0000 0032 0000 0000 0000 0063 0000 6300  ...2.......c..c.
00005320: 6300 0000 0000 0054 696d 7026 0042 656c  c......Timp&.Bel
00005330: 6c73 0100 0215 7f63 0000 0000 0060 4200  ls.....c.....`B.
00005340: 0060 4200 0000 0000 0000 0002 0000 0600  .`B.............
00005350: 1400 000b 0018 1828 2800 0013 001a 0018  .......((.......
00005360: 3c46 0000 0000 3c09 0300 0a00 0203 7f00  <F....<.........
00005370: 0000 0000 0000 0000 0034 6348 0063 0000  .........4cH.c..
00005380: 0063 5205 4063 0050 3916 2b7a 0000 3500  .cR.@c.P9.+z..5.
00005390: 0063 4d01 2843 0034 0800 0800 2016 0600  .cM.(C.4.... ...
000053a0: 001a 7f00 0000 0000 0063 0000 0000 0036  .........c.....6
000053b0: 171a 6300 104a 0031 321d 0000 0000 0363  ..c..J.12......c
000053c0: 5100 0000 0051 0000 0000 536f 006c 6f20  Q....Q....So.lo 
000053d0: 5379 6e74 0068 0020 5b00 0000 0000 0000  Synt.h. [.......
000053e0: 7c46 0000 0060 4600 0000 0519 0000 2802  |F...`F.......(.
000053f0: 0005 0007 0000 0017 1616 3232 0000 003f  ..........22...?
00005400: 1e00 1937 0028 0002 0232 0000 2000 0000  ...7.(...2.. ...
00005410: 0505 7c00 0000 0000 0062 0000 0240 4b63  ..|......b...@Kc
00005420: 0000 6200 0063 033a 322b 6300 002d 3200  ..b..c.:2+c..-2.
00005430: 2414 0000 0063 6048 294b 0263 004a 0a00  $....c`H)K.c.J..
00005440: 0000 0000 0000 0000 0063 0000 0000 0000  .........c......
00005450: 0000 0000 0000 0000 0000 3200 0000 0000  ..........2.....
00005460: 0000 6300 0063 0063 0040 4040 0000 506f  ..c..c.c.@@@..Po
00005470: 7020 2020 0020 2020 2000 0033 4001 0000  p   .    ..3@...
00005480: 0000 0060 0040 0000 6040 0000 0000 0200  ...`.@..`@......
00005490: 0000 0200 000c 0032 000a 041d 401d 1919  .......2....@...
000054a0: 0000 1f74 0801 3c00 7a00 0500 000d 0014  ...t..<.z.......
000054b0: 1e4c 0004 0002 0000 0000 0000 0000 0049  .L.............I
000054c0: 3600 0000 0000 0000 6300 0000 2000 0000  6.......c... ...
000054d0: 6336 653c 0000 0000 631e 0000 0000 0000  c6e<....c.......
000054e0: 0000 0000 0000 0000 0000 0000 0063 0000  .............c..
000054f0: 0000 0000 0000 0000 0000 0000 0000 3200  ..............2.
00005500: 0000 0000 0000 6300 6300 6300 0000 0000  ......c.c.c.....
00005510: 004d 6167 0069 6369 616e 2020 2001 201b  .Mag.ician   . .
00005520: 0021 7f00 0006 0b5c 3400 0740 003f 0000  .!.....\4..@.?..
00005530: 0000 0000 0000 0200 1200 3e00 0001 1621  ..........>....!
00005540: 2155 5500 0000 3f1e 000a 0c4b 0000 0206  !UU...?....K....
00005550: 4b02 0000 1000 0005 037a 0c04 0000 3a51  K........z....:Q
00005560: 3063 6346 0000 0000 0047 0062 0039 4c63  0ccF.....G.b.9Lc
00005570: 335f 0017 0065 0029 0063 2663 0019 4b06  3_...e.).c&c..K.
00005580: 532d 0042 0108 0100 2500 0a0a 0001 0000  S-.B....%.......
00005590: 0000 0063 0000 0017 1962 2444 4021 4518  ...c.....b$D@!E.
000055a0: 561c 3f65 0026 0000 1f63 633f 0063 6345  V.?e.&...cc?.ccE
000055b0: 6363 6300 0050 6961 6e6f 2038 0027 2020  ccc..Piano 8.'  
000055c0: 0000 0000 0000 0000 0000 6040 0000 0060  ..........`@...`
000055d0: 4000 0000 0000 0000 0002 0004 0000 0e00  @...............
000055e0: 000b 1010 0013 1300 001f 1000 2010 2723  ............ .'#
000055f0: 0000 7b32 0003 0100 0a00 0606 0000 0000  ..{2............
00005600: 0000 0000 0800 1632 4340 0405 004a 0060  .......2C@...J.`
00005610: 601f 4700 0063 6363 4006 4b00 0000 005d  `.G..ccc@.K....]
00005620: 3a61 5a00 000a 0202 0800 0000 0000 0000  :aZ.............
00005630: 0000 0063 0000 0000 0000 0000 0000 0000  ...c............
00005640: 0000 0000 0032 0000 0000 0000 0063 0063  .....2.......c.c
00005650: 0063 0000 0000 0000 4f76 6572 0074 7572  .c......Over.tur
00005660: 6520 2001 1420 207f 1f7f 000d 000e 5c22  e  ..  .......\"
00005670: 0003 2054 0003 0000 0400 0000 0008 000c  .. T............
00005680: 0005 0002 000b 1919 3131 0000 103f 2100  ........11...?!.
00005690: 0a2a 6400 000c 0063 0a03 0004 0000 040a  .*d....c........
000056a0: 0201 0000 4000 0000 0007 444e 0053 0000  ....@.....DN.S..
000056b0: 2401 3c34 0048 5d43 6300 3b3e 0000 3a00  $.<4.H]Cc.;>..:.
000056c0: 0c0a 634f 4032 3735 3002 4208 0001 0000  ..cO@2750.B.....
000056d0: 0000 0000 1000 0026 4364 1d00 0000 6216  .......&Cd....b.
000056e0: 2863 263e 0024 6300 0b00 003a 0000 0006  (c&>.$c....:....
000056f0: 635f 3f63 0023 3063 6363 0041 006e 6765  c_?c.#0ccc.A.nge
00005700: 6c73 2020 2020 2001 001d 7f1d 157f 0072  ls     ........r
00005710: 0540 4103 0204 6040 0000 0003 0000 0000  .@A...`@........
00005720: 0200 0600 000a 0016 0264 641e 001e 0000  .........dd.....
00005730: 1f34 0100 1000 0000 077c 1e00 520c 2a2e  .4.......|..R.*.
00005740: 007e 007d 000c 0000 0000 0005 0063 3600  .~.}.........c6.
00005750: 0000 0046 0000 6363 6363 6363 0063 2736  ...F..cccccc.c'6
00005760: 0032 0040 0006 6363 6363 6334 0000 0000  .2.@..ccccc4....
00005770: 0103 0c00 0000 0000 0000 6336 0000 0000  ..........c6....
00005780: 0046 0063 0063 6363 6363 6327 0036 3030  .F.c.cccccc'.600
00005790: 0000 0663 0063 6363 6334 0000 0000 0053  ...c.cccc4.....S
000057a0: 6974 6172 0020 3120 2020 0020 000b 0000  itar. 1   . ....
000057b0: 0000 0000 007c 4500 0060 5700 0000 0003  .....|E..`W.....
000057c0: 3e00 0002 0000 0500 3203 000b 0014 1432  >.......2......2
000057d0: 3200 003f 001c 000e 372e 0002 0009 6308  2..?....7.....c.
000057e0: 0300 1500 0004 0500 3700 0005 2000 0000  ........7... ...
000057f0: 0a34 7a63 0063 033c 0063 5340 0045 5b4c  .4zc.c.<.cS@.E[L
00005800: 6359 2e00 0062 4100 0063 1430 005a 001b  cY...bA..c.0.Z..
00005810: 0642 0606 0000 0000 0000 0000 0000 6300  .B............c.
00005820: 0000 0000 0000 0000 0000 0000 0000 0032  ...............2
00005830: 0000 0000 0000 0063 0063 0063 0000 4040  .......c.c.c..@@
00005840: 4000 5475 0062 756c 6172 2020 0020 0000  @.Tu.bular  . ..
00005850: 1500 0000 0000 0000 603b 0003 0060 3b00  ........`;...`;.
00005860: 0000 0000 0000 0002 020c 000d 0000 0b02  ................
00005870: 3232 1818 0000 001f 320f 0300 0416 007f  22......2.......
00005880: 0821 004c 0101 3100 0006 0000 0000 0000  .!.L..1.........
00005890: 0000 0014 023c 445d 0000 4500 0063 3514  .....<D]..E..c5.
000058a0: 1414 5f30 0045 341b 4b00 0000 0063 5700  .._0.E4.K....cW.
000058b0: 0000 3e00 0000 0000 0000 0000 0000 0000  ..>.............
000058c0: 0063 0000 0000 0000 0000 0000 0000 0000  .c..............
000058d0: 0000 3200 0000 0000 0000 6300 0063 0063  ..2.......c..c.c
000058e0: 0000 0000 0000 536c 6170 2042 0061 7373  ......Slap B.ass
000058f0: 2000 000f 017f 0000 0000 0060 003e 0000   ..........`.>..
00005900: 603e 0000 0000 0300 0000 0200 0003 0012  `>..............
00005910: 000b 0032 0032 0d0d 0000 1c63 0000 0300  ...2.2.....c....
00005920: 0000 040c 0010 000f 372e 0000 017b 0000  ........7....{..
00005930: 0000 0000 0000 001b 0062 2754 2000 6300  .........b'T .c.
00005940: 5f2a 6200 0162 0000 5e30 0441 001f 0000  _*b..b..^0.A....
00005950: 6350 0000 0000 0102 0046 0000 0000 0000  cP.......F......
00005960: 0000 0000 0063 0000 0000 0000 0000 0000  .....c..........
00005970: 0000 0000 0000 3200 0000 0000 0000 6300  ......2.......c.
00005980: 6300 6300 0000 0000 0050 6970 0065 204f  c.c......Pip.e O
00005990: 7267 616e 0800 2057 7f00 0000 0000 007c  rgan.. W.......|
000059a0: 4b00 0060 004b 0000 0000 0000 0000 0200  K..`.K..........
000059b0: 0200 1400 0002 171a 1a26 2600 2000 3f21  .........&&. .?!
000059c0: 0018 2a42 0000 070c 1c00 0000 0000 000c  ..*B............
000059d0: 0c01 0200 0000 0000 0000 3e44 012d 1900  ..........>D.-..
000059e0: 3100 0263 004b 4e63 4e51 001e 003e 0000  1..c.KNcNQ...>..
000059f0: 000b 0163 0033 4537 4602 0042 0108 0100  ...c.3E7F..B....
00005a00: 0000 0000 0000 0000 6300 0000 0000 0000  ........c.......
00005a10: 0000 0000 0000 0000 0032 0000 0000 0000  .........2......
00005a20: 0063 0063 0000 6300 4040 4000 0057 6972  .c.c..c.@@@..Wir
00005a30: 6520 2020 4020 2020 0000 457f 0000 0000  e   @   ..E.....
00005a40: 0000 6043 0000 0060 4300 0000 0002 0000  ..`C...`C.......
00005a50: 0402 0004 0000 0700 0b00 3232 0012 1200  ..........22....
00005a60: 001f 5010 0003 0001 0001 0b1e 0000 1137  ..P............7
00005a70: 2e00 0002 0000 0000 0000 0023 0014 1d36  ...........#...6
00005a80: 003e 0000 003a 0063 5546 5846 0054 4b33  .>...:.cUFXF.TK3
00005a90: 3600 3a00 0063 0463 6363 6363 000e 0000  6.:..c.ccccc....
00005aa0: 0001 0000 0000 0000 0000 0063 0000 0000  ...........c....
00005ab0: 0000 0000 0000 0000 0000 0000 0032 0000  .............2..
00005ac0: 0000 0000 0063 0063 0063 0000 0000 0000  .....c.c.c......
00005ad0: 4472 756d 0020 2333 2020 2002 0422 027f  Drum. #3   .."..
00005ae0: 0000 0000 0000 7c42 0000 6042 0000 0000  ......|B..`B....
00005af0: 0316 0121 0002 0007 0023 0001 000b 1212  ...!.....#......
00005b00: 1515 0000 003f 1a00 1f1f 2e00 0200 7d1c  .....?........}.
00005b10: 0903 000f 0000 0809 0059 0000 4000 0000  .........Y..@...
00005b20: 0026 445c 0063 0063 6300 6363 0063 6363  .&D\.c.cc.cc.ccc
00005b30: 6363 603e 0000 5500 6300 6360 4000 0000  cc`>..U.c.c`@...
00005b40: 0100 4108 0001 0000 0000 0000 0000 0063  ..A............c
00005b50: 0000 0000 0000 0000 0000 0000 0000 0000  ................
00005b60: 3200 0000 0000 0000 6300 6300 0063 0040  2.......c.c..c.@
00005b70: 4040 0042 0061 6d62 7520 5472 2065 6d00  @@.B.ambu Tr em.
00005b80: 2028 7f00 0000 0000 007c 411d 0004 6042   (.......|A...`B
00005b90: 0000 0000 0000 0000 0212 0300 0031 0001  .............1..
00005ba0: 0a1e 1e18 0018 0000 3f1d 001e 281e 2e00  ........?...(...
00005bb0: 7d04 3400 0173 0868 0105 0700 0059 0000  }.4..s.h.....Y..
00005bc0: 0000 0000 000c 3c00 6300 6326 0000 6346  ......<.c.c&..cF
00005bd0: 4363 3b16 0063 404a 0041 0063 0000 6339  Cc;..c@J.A.c..c9
00005be0: 4450 411f 0400 4108 0100 0000 0000 0000  DPA...A.........
00005bf0: 0000 6300 0000 0000 0000 0000 0000 0000  ..c.............
00005c00: 0000 0032 0000 0000 0000 0063 0000 6300  ...2.......c..c.
00005c10: 6300 4040 0040 0045 2e50 6961 006e 6f20  c.@@.@.E.Pia.no 
00005c20: 3420 0000 024f 7f00 0000 0000 0060 4000  4 ...O.......`@.
00005c30: 0060 4000 0000 0000 0000 0002 0000 0400  .`@.............
00005c40: 1200 0b00 0032 321c 1c00 001f 0063 0a03  .....22......c..
00005c50: 0005 0006 0002 1100 0f37 2d00 0200 7b00  .........7-...{.
00005c60: 0000 0000 2000 0000 3b36 5918 0000 1962  .... ...;6Y....b
00005c70: 0063 1200 0000 0063 6363 3600 0041 0000  .c.....ccc6..A..
00005c80: 0063 4900 0000 0006 0002 0000 0000 0000  .cI.............
00005c90: 0000 0000 0000 6300 0000 0000 0000 0000  ......c.........
00005ca0: 0000 0000 0000 0032 0000 0000 0000 0063  .......2.......c
00005cb0: 0063 0063 0000 0000 0000 5475 0062 6146  .c.c......Tu.baF
00005cc0: 6c75 6765 006c 0000 2500 0000 0800 0000  luge.l..%.......
00005cd0: 6040 0a01 0160 4000 0000 0205 0006 1602  `@...`@.........
00005ce0: 0002 000f 0000 0b00 0000 1414 0000 001c  ................
00005cf0: 0000 0300 0000 0006 0621 000e 0037 2e00  .........!...7..
00005d00: 0002 0000 0000 0000 0000 0025 0236 4e25  ...........%.6N%
00005d10: 0063 4400 0063 2950 4423 0a0e 003b 3600  .cD..c)PD#...;6.
00005d20: 4a00 6300 0063 5255 5757 0204 0001 0001  J.c..cRUWW......
00005d30: 0000 0000 0000 0000 0063 0000 0000 0000  .........c......
00005d40: 0000 0000 0000 0000 0000 3200 0000 0000  ..........2.....
00005d50: 0000 6300 0063 0063 0000 0000 0000 566f  ..c..c.c......Vo
00005d60: 6963 6520 0057 6176 6500 004a 017f 0000  ice .Wave..J....
00005d70: 0000 0060 0040 0a01 6040 0000 0000 0200  ...`.@..`@......
00005d80: 0004 0200 0003 0005 000b 0032 0032 1414  ...........2.2..
00005d90: 0000 1f63 0009 0300 0200 0809 401b 0016  ...c........@...
00005da0: 372e 007f 037b 7e02 0000 0000 0024 192f  7....{~......$./
00005db0: 3600 6300 0000 2800 6312 120f 0012 6363  6.c...(.c.....cc
00005dc0: 4a36 0032 0000 5803 6363 6363 0063 0600  J6.2..X.cccc.c..
00005dd0: 0000 0100 0000 0000 0000 0000 0063 0000  .............c..
00005de0: 0000 0000 0000 0000 0000 0000 0000 3200  ..............2.
00005df0: 0000 0000 0000 6300 6300 6300 0000 0000  ......c.c.c.....
00005e00: 0047 7569 0074 6172 2032 2020 0000 0009  .Gui.tar 2  ....
00005e10: 0000 0000 0000 0060 4100 0060 0041 0000  .......`A..`.A..
00005e20: 0002 0000 0000 0200 0600 0d00 000b 0021  ...............!
00005e30: 2116 1600 0000 1f63 0703 0002 0000 0002  !......c........
00005e40: 1400 1937 082d 0000 7b00 0000 0000 0000  ...7.-..{.......
00005e50: 0000 102a 0155 5636 0049 0063 0040 215c  ...*.UV6.I.c.@!\
00005e60: 0063 6363 0000 0041 0000 0063 005b 0000  .ccc...A...c.[..
00005e70: 0001 2200 0000 0000 0000 0000 0000 0000  ..".............
00005e80: 6300 0000 0000 0000 0000 0000 0000 0000  c...............
00005e90: 0032 0000 0000 0000 0063 0063 0000 6300  .2.......c.c..c.
00005ea0: 0000 0000 004d 6574 616c 2048 0069 7420  .....Metal H.it 
00005eb0: 0020 3d00 0000 0000 0000 7c41 0000 0060  . =.......|A...`
00005ec0: 4100 0000 0000 0000 0002 1203 0000 0900  A...............
00005ed0: 030d 3131 003c 3c00 003f 0500 000a 514c  ..11.<<..?....QL
00005ee0: 0000 0963 0000 0600 0300 0706 0000 5900  ...c..........Y.
00005ef0: 0000 0000 0000 6375 0000 0063 0062 0063  ......cu...c.b.c
00005f00: 6300 6300 0052 0054 3e00 5500 0063 0063  c.c..R.T>.U..c.c
00005f10: 4f00 5000 083c 0041 0801 0000 0000 0000  O.P..<.A........
00005f20: 0000 0063 0000 0000 0000 0000 0000 0000  ...c............
00005f30: 0000 0000 0032 0000 0000 0000 0000 0000  .....2..........
00005f40: 0000 0040 0040 4000 5379 6e74 0068 4261  ...@.@@.Synt.hBa
00005f50: 7373 3200 0400 127f 0000 0000 2200 6040  ss2.........".`@
00005f60: 0000 6040 0000 0000 0300 0000 0002 000c  ..`@............
00005f70: 000f 000b 0000 3232 1010 0000 001f 6306  ......22......c.
00005f80: 0300 0200 000b 0c0c 000f 3730 0000 0005  ..........70....
00005f90: 0000 0000 4000 0000 0016 3649 0042 0000  ....@.....6I.B..
00005fa0: 5a00 6348 0000 0000 6363 2300 0000 4200  Z.cH....cc#...B.
00005fb0: 0000 6356 0000 0000 0200 0000 0000 0000  ..cV............
00005fc0: 0000 0000 0000 0063 0000 0000 0000 0000  .......c........
00005fd0: 0000 0000 0000 0000 3200 0000 0000 0000  ........2.......
00005fe0: 6300 6300 0063 0000 0000 0053 0074 7269  c.c..c.....S.tri
00005ff0: 6e67 5269 0073 6501 0016 001f 0000 0000  ngRi.se.........
00006000: 2460 4200 0000 6042 0000 0000 0000 0000  $`B...`B........
00006010: 0200 0600 0036 000a 0217 171c 101c 0000  .....6..........
00006020: 1f60 0050 020a 7401 0000 1d00 4028 782e  .`.P..t.....@(x.
00006030: 0000 001d 0013 0000 3463 0000 0063 0000  ........4c...c..
00006040: 6300 0000 0000 6363 6363 6363 0000 2700  c.....cccccc..'.
00006050: 0000 0000 0000 631d 5200 3719 0000 0000  ......c.R.7.....
00006060: 0000 0000 0400 6276 0000 0000 0000 6300  ......bv......c.
00006070: 0000 0063 005c 635d 5c50 3945 0000 0000  ...c.\c]\P9E....
00006080: 0000 0063 0055 5045 5049 0000 0000 0050  ...c.UPEPI.....P
00006090: 616e 2057 0061 7665 2020 0000 0046 0000  an W.ave  ...F..
000060a0: 0000 0000 0060 4500 0060 4500 0000 0006  .....`E..`E.....
000060b0: 0002 0002 0000 0600 1a00 0b00 0028 2817  .............((.
000060c0: 1700 001f 0063 0503 0002 0005 000a 1000  .....c..........
000060d0: 0c37 2e00 0200 7b00 0000 0000 2000 0000  .7....{..... ...
000060e0: 4436 4a10 0000 0028 0063 4119 0040 1640  D6J....(.cA..@.@
000060f0: 1459 3600 0032 0058 0063 5352 0053 5002  .Y6..2.X.cSR.SP.
00006100: 0000 0001 0000 0000 0000 0000 0000 6300  ..............c.
00006110: 0000 0000 0000 0000 0000 0000 0000 0032  ...............2
00006120: 0000 0000 0000 0063 0063 0063 0000 0000  .......c.c.c....
00006130: 0000 4861 006d 6d65 7220 2020 0020 0000  ..Ha.mmer   . ..
00006140: 3c01 0000 0000 0000 603e 0000 0060 3e00  <.......`>...`>.
00006150: 0000 0200 0000 0002 000c 0032 0000 1600  ...........2....
00006160: 4b4b 1414 0000 001f 320a 0000 0000 0005  KK......2.......
00006170: 0630 0013 0037 2e00 0002 0000 0000 0000  .0...7..........
00006180: 0000 004c 0236 3555 0000 2d00 0063 5e00  ...L.65U..-..c^.
00006190: 0000 6363 0059 0000 3a00 0000 0063 5f00  ..cc.Y..:....c_.
000061a0: 0014 2a00 0000 0000 0000 0000 0000 0000  ..*.............
000061b0: 0063 0000 0000 0000 0000 0000 0000 0000  .c..............
000061c0: 0000 3200 0000 0000 0000 6300 0063 0063  ..2.......c..c.c
000061d0: 0000 0000 0000 436c 6f75 6420 004e 696e  ......Cloud .Nin
000061e0: 6501 2014 0401 1f7f 0000 003c 003a 0000  e. ........<.:..
000061f0: 203a 000c 0000 0000 0000 0200 0003 0020   :............. 
00006200: 0005 091a 001a 1616 0000 3f1b 0000 1635  ..........?....5
00006210: 6400 0003 0179 0055 2723 0102 0008 0037  d....y.U'#.....7
00006220: 0000 0500 0000 0000 3162 6300 0023 0000  ........1bc..#..
00006230: 623b 1463 0160 4f00 5934 0062 0000 1400  b;.c.`O.Y4.b....
00006240: 6348 0000 1000 3d00 4208 0100 0025 000a  cH....=.B....%..
00006250: 0a01 0000 0412 425d 6300 0063 0000 6248  ......B]c..c..bH
00006260: 1363 002c 0056 5900 0062 0000 0019 6351  .c.,.VY..b....cQ
00006270: 3f21 203e 0063 6363 0043 6c61 0076 2020  ?! >.ccc.Cla.v  
00006280: 2020 2020 0800 2003 7f00 0000 0000 007c      .. ........|
00006290: 4500 0060 0045 0000 0000 0000 0000 0200  E..`.E..........
000062a0: 0500 1100 0000 0d0b 0b32 3200 0000 1f21  .........22....!
000062b0: 000e 372e 0400 007b 3e0b 072b 0005 0002  ..7....{>..+....
000062c0: 0600 3700 0000 0500 0000 054c 013e 5519  ..7........L.>U.
000062d0: 0062 0058 0053 1a59 0015 004a 003e 004a  .b.X.S.Y...J.>.J
000062e0: 1000 0063 0025 3c51 0004 434a 000e 0200  ...c.%<Q..CJ....
000062f0: 0000 0000 0000 0000 6300 0000 0000 0000  ........c.......
00006300: 0000 0000 0000 0000 0032 0000 0000 0000  .........2......
00006310: 0063 0063 0000 6300 4040 4000 0054 656e  .c.c..c.@@@..Ten
00006320: 6f72 2053 4061 7820 0000 227f 0000 0000  or S@ax ..".....
00006330: 0000 6040 000a 0160 4000 0000 0002 0000  ..`@...`@.......
00006340: 0c02 0005 0000 0800 1600 3232 0016 1600  ..........22....
00006350: 001f 3201 0000 0000 0003 031a 4000 1937  ..2.........@..7
00006360: 2e00 007b 0000 0000 0000 0023 0014 2536  ...{.......#..%6
00006370: 0026 0000 0058 0063 5754 5555 005c 633b  .&...X.cWTUU.\c;
00006380: 3600 4600 0040 0163 6363 6363 0002 0000  6.F..@.ccccc....
00006390: 0001 0000 0000 0000 0000 0063 0000 0000  ...........c....
000063a0: 0000 0000 0000 0000 0000 0000 0032 0000  .............2..
000063b0: 0000 0000 0063 0063 0063 0000 0000 0000  .....c.c.c......
000063c0: 566f 6963 0065 7320 2020 2000 0400 1d7f  Voic.es    .....
000063d0: 0000 0000 0000 6036 0204 6036 0000 0000  ......`6..`6....
000063e0: 0200 0108 0002 0003 000d 0001 0016 2929  ..............))
000063f0: 6464 0000 003f 1f00 0d0c 4b00 0007 005b  dd...?....K....[
00006400: 0200 0000 0400 077b 0408 0000 4000 0000  .......{....@...
00006410: 004a 366a 0004 0000 2800 6363 0063 6363  .J6j....(.cc.ccc
00006420: 6363 3136 0000 3600 190b 634d 004e 4d4a  cc16..6...cM.NMJ
00006430: 1500 0000 0001 0000 0000 0000 0000 0063  ...............c
00006440: 0000 0000 0000 0000 0000 0000 0000 0000  ................
00006450: 3200 0000 0000 0000 6300 6300 0063 0000  2.......c.c..c..
00006460: 0000 0052 006f 636b 4775 6974 2061 7201  ...R.ockGuit ar.
00006470: 000a 7f03 117f 0004 0760 4800 0000 6048  .........`H...`H
00006480: 0000 0005 0000 0000 0200 0500 000d 000b  ................
00006490: 0036 3616 0016 0000 1f63 0c03 0000 1700  .66......c......
000064a0: 0b0a 2100 3016 372e 007f 7b00 0000 0000  ..!.0.7...{.....
000064b0: 0000 0000 441e 3653 4e00 0757 0000 6362  ....D.6SN..W..cb
000064c0: 1e5f 0063 0063 2800 003a 0000 0000 6353  ._.c.c(..:....cS
000064d0: 585e 0004 0000 0200 0000 0000 0400 017f  X^..............
000064e0: 0000 0336 0150 6300 0000 0047 0008 3d62  ...6.Pc....G..=b
000064f0: 0f36 0228 0000 0000 0000 0031 0004 6363  .6.(.......1..cc
00006500: 000e 0000 0000 0057 696e 6442 0065 6c6c  .......WindB.ell
00006510: 7320 0000 002d 0000 0000 0000 0060 4002  s ...-.......`@.
00006520: 0060 4000 0000 0002 0000 0807 0000 0800  .`@.............
00006530: 1700 0b00 0018 1814 1400 001f 0063 0903  .............c..
00006540: 000a 0000 0002 2800 0a37 2e00 0000 0000  ......(..7......
00006550: 0000 0000 2000 2314 3b36 3e1e 0000 0036  .... .#.;6>....6
00006560: 0063 5155 0054 5055 5759 3600 004b 0063  .cQU.TPUWY6..K.c
00006570: 0f63 6363 0063 6341 0000 0001 0000 0000  .ccc.ccA........
00006580: 0000 0000 0000 6300 0000 0000 0000 0000  ......c.........
00006590: 0000 0000 0000 0032 0000 0000 0000 0063  .......2.......c
000065a0: 0063 0063 0000 0000 0000 5379 006e 7468  .c.c......Sy.nth
000065b0: 4261 7373 1033 0020 537f 0000 0000 0000  Bass.3. S.......
000065c0: 7c3e 0000 0060 4203 0000 0410 0002 0002  |>...`B.........
000065d0: 0004 0008 0000 050b 1616 1616 0000 003f  ...............?
000065e0: 0300 0014 003c 0002 003c 1b03 0000 1200  .....<...<......
000065f0: 060b 0000 0000 0000 0000 0000 023c 4d4e  .............<MN
00006600: 3131 5a00 1063 3e41 6357 2300 0020 3e00  11Z..c>AcW#.. >.
00006610: 2e00 0000 0063 4e00 0000 0502 0242 0801  .....cN......B..
00006620: 0000 0000 0000 0000 0063 0000 0000 0000  .........c......
00006630: 0000 0000 0000 0000 0000 3200 0000 0000  ..........2.....
00006640: 0000 6300 0063 0063 0040 4040 0000 4f72  ..c..c.c.@@@..Or
00006650: 6761 6e20 0031 2020 2000 0005 0000 0000  gan .1   .......
00006660: 0000 0060 0049 0000 6049 0000 0000 0400  ...`.I..`I......
00006670: 0000 0200 0004 0029 0018 0064 0064 1414  .......)...d.d..
00006680: 0000 3f3e 0000 0400 0000 0000 0016 0010  ..?>............
00006690: 372e 0005 017d 0000 0000 0000 0000 0034  7....}.........4
000066a0: 3613 0000 0000 0000 6363 6263 0063 6363  6.......ccbc.ccc
000066b0: 1e00 0000 0000 0000 6363 6363 0063 0000  ........cccc.c..
000066c0: 0000 0000 0000 0000 0000 0000 0063 0000  .............c..
000066d0: 0000 0000 0000 0000 0000 0000 0000 3200  ..............2.
000066e0: 0000 0000 0000 6300 6300 6300 0000 0000  ......c.c.c.....
000066f0: 0042 6c6f 0063 6b20 2020 2020 0800 0030  .Blo.ck     ...0
00006700: 7f00 0000 0000 0060 4000 0060 0040 0000  .......`@..`.@..
00006710: 0002 0000 0000 0200 0a00 3200 0016 0064  ..........2....d
00006720: 6414 1400 0000 1f32 0500 0000 0000 0000  d......2........
00006730: 2100 1437 082e 0000 7b00 0000 0000 0000  !..7....{.......
00006740: 0000 3036 014a 2600 002d 0063 0046 0000  ..06.J&..-.c.F..
00006750: 0049 4963 0000 003a 0000 0063 004b 0000  .IIc...:...c.K..
00006760: 1434 0000 0000 0000 0000 0000 0000 0000  .4..............
00006770: 6300 0000 0000 0000 0000 0000 0000 0000  c...............
00006780: 0032 0000 0000 0000 0063 0063 0000 6300  .2.......c.c..c.
00006790: 0000 0000 0046 696e 6765 7253 406e 6170  .....FingerS@nap
000067a0: 0000 327f 0200 7f00 0000 6041 0000 0060  ..2.......`A...`
000067b0: 4100 0000 0000 0000 0002 0006 0000 0c00  A...............
000067c0: 070a 1919 0016 1600 001f 0114 0000 0000  ................
000067d0: 0000 0246 0000 060a 0000 0504 0000 0000  ...F............
000067e0: 0000 0000 0800 133b 7641 001a 0063 0063  .......;vA...c.c
000067f0: 4416 4e19 001f 2663 0c1c 3c36 005a 0063  D.N...&c..<6.Z.c
00006800: 564b 4543 1027 0003 022a 000f 0000 0000  VKEC.'...*......
00006810: 0000 0063 0000 0000 0000 0000 0000 0000  ...c............
00006820: 0000 0000 0032 0000 0000 0000 0063 0063  .....2.......c.c
00006830: 0063 0000 0000 0000 4d61 6769 0063 4f72  .c......Magi.cOr
00006840: 6761 6e00 0400 077f 0000 0000 0000 6042  gan...........`B
00006850: 0000 6042 0000 0000 0300 0000 0002 0005  ..`B............
00006860: 001e 000d 0000 2d2d 1919 0000 001f 6305  ......--......c.
00006870: 0700 0000 0004 0420 000a 372e 0000 0005  ....... ..7.....
00006880: 0000 0000 0000 0000 0050 3600 0000 0000  .........P6.....
00006890: 0000 6363 0062 6363 6363 4200 0000 3000  ..cc.bccccB...0.
000068a0: 0000 6363 0063 6363 2600 0000 0000 0000  ..cc.ccc&.......
000068b0: 0000 0000 0000 0063 0000 0000 0000 0000  .......c........
000068c0: 0000 0000 0000 0000 3200 0000 0000 0000  ........2.......
000068d0: 6300 6300 0063 0000 0000 0045 002e 5069  c.c..c.....E..Pi
000068e0: 616e 6f20 0032 2000 0002 0000 0000 0000  ano .2 .........
000068f0: 0060 4400 0000 6044 0000 0000 0000 0000  .`D...`D........
00006900: 0200 0400 0014 000b 0032 3216 0016 0000  .........22.....
00006910: 1f63 0903 0000 0100 0607 2100 2018 372e  .c........!. .7.
00006920: 0000 7b00 0000 0000 0000 0000 0428 2a53  ..{..........(*S
00006930: 3500 005a 0000 6351 0000 0063 0063 6300  5..Z..cQ...c.cc.
00006940: 003e 0000 0000 6354 0000 0006 0000 0000  .>....cT........
00006950: 0000 0000 0000 0000 0000 6300 0000 0000  ..........c.....
00006960: 0000 0000 0000 0000 0000 0032 0000 0000  ...........2....
00006970: 0000 0063 0000 6300 6300 0000 0000 0042  ...c..c.c......B
00006980: 7261 7373 0020 3220 2020 0020 0221 7f20  rass. 2   . .!. 
00006990: 0000 0d02 007c 4700 0060 4700 0000 0002  .....|G..`G.....
000069a0: 0c00 0c02 0000 0400 0500 0116 000e 0e20  ............... 
000069b0: 2000 003f 000e 0017 1f2e 0000 0007 6301   ..?..........c.
000069c0: 0000 0000 0008 0c00 5900 0000 2000 0000  ........Y... ...
000069d0: 133c 6063 0000 5663 0349 4f17 001a 2038  .<`c..Vc.IO... 8
000069e0: 0038 470e 0028 0057 0163 4959 2050 5604  .8G..(.W.cIY PV.
000069f0: 0041 0801 0000 0000 000a 0000 0000 0000  .A..............
00006a00: 0063 0063 0063 034a 1933 0838 0008 3f07  .c.c.c.J.3.8..?.
00006a10: 0000 2c00 0042 0463 0e31 2833 0008 6363  ..,..B.c.1(3..cc
00006a20: 6301 4656 0020 5761 7665 2020 1020 0020  c.FV. Wave  . . 
00006a30: 487f 0000 0000 0000 7c43 0004 0060 4300  H.......|C...`C.
00006a40: 0000 0300 0000 0002 0004 0007 0000 000b  ................
00006a50: 1b1b 4646 4000 003f 1e00 1004 0063 0004  ..FF@..?.....c..
00006a60: 0563 0a03 2000 0400 0b08 7b05 0001 6363  .c.. .....{...cc
00006a70: 0000 4100 0242 5763 0063 3100 0063 593e  ..A..BWc.c1..cY>
00006a80: 574a 5423 001e 3e00 3200 630d 0063 2946  WJT#..>.2.c..c)F
00006a90: 6300 3100 0241 0801 0000 0000 0000 0000  c.1..A..........
00006aa0: 0063 0000 0000 0000 0000 0000 0000 0000  .c..............
00006ab0: 0000 3200 0000 0000 0000 6300 0063 0063  ..2.......c..c.c
00006ac0: 0040 4040 0000 5069 636b 4775 0069 7461  .@@@..PickGu.ita
00006ad0: 7201 003f 057f 037f 000c 0040 0045 0000  r..?.......@.E..
00006ae0: 6045 0000 0000 0400 0100 0201 0006 000c  `E..............
00006af0: 0014 0b64 0064 2828 0000 1f00 200c 6407  ...d.d((.... .d.
00006b00: 0000 7f04 0063 0c03 0015 0001 0004 0000  .....c..........
00006b10: 0000 0000 1000 0013 404b 4745 0047 3100  ........@KGE.G1.
00006b20: 6349 1414 4014 2a00 3140 0052 001e 4100  cI..@.*.1@.R..A.
00006b30: 635e 0000 0000 0700 0008 0000 0000 0000  c^..............
00006b40: 0000 0000 040a 406c 4800 0263 0000 6356  ......@lH..c..cV
00006b50: 1313 1303 0946 3148 7f63 0000 0000 635c  .....F1H.c....c\
00006b60: 0000 0007 0000 0000 0044 6967 0069 2d42  .........Dig.i-B
00006b70: 656c 6c73 2000 2014 011f 7f00 0000 007c  ells . ........|
00006b80: 3a00 0060 003a 000c 0000 0000 0000 0200  :..`.:..........
00006b90: 0300 1300 0005 091a 1a16 1600 0000 3f1b  ..............?.
00006ba0: 0014 3564 0800 0003 7900 5527 0023 0107  ..5d....y.U'.#..
00006bb0: 0c00 3700 0000 0500 0000 0031 0062 6300  ..7........1.bc.
00006bc0: 2300 0062 083b 1463 604f 0023 0034 0062  #..b.;.c`O.#.4.b
00006bd0: 0014 0063 0048 0000 003d 0042 0108 0100  ...c.H...=.B....
00006be0: 2500 0a0a 2001 0000 1242 5d63 0000 0063  %... ....B]c...c
00006bf0: 0062 4813 0063 002c 5623 0000 0062 0000  .bH..c.,V#...b..
00006c00: 1963 513f 0021 203e 6363 6300 0041 6e61  .cQ?.! >ccc..Ana
00006c10: 6c6f 6742 4061 7373 0000 5d7f 0000 0000  logB@ass..].....
00006c20: 0000 6044 0000 0060 4400 0000 0000 0000  ..`D...`D.......
00006c30: 0002 0004 0000 1200 000b 1414 0032 3200  .............22.
00006c40: 001f 2200 201b 3c30 0000 7b63 000a 0300  ..". .<0..{c....
00006c50: 0100 0707 0000 0000 0000 0000 0800 3236  ..............26
00006c60: 5825 0000 503c 0063 195a 1c55 021b 582e  X%..P<.c.Z.U..X.
00006c70: 0000 3a00 0000 0063 4d48 4b4b 0007 0000  ..:....cMHKK....
00006c80: 0000 0000 0000 0000 0000 0063 0000 0000  ...........c....
00006c90: 0000 0000 0000 0000 0000 0000 0032 0000  .............2..
00006ca0: 0000 0000 0063 0063 0063 0000 0000 0000  .....c.c.c......
00006cb0: 5069 6e67 0020 5761 7665 2000 0400 477f  Ping. Wave ...G.
00006cc0: 0000 0000 2200 6042 0a05 6042 0000 0000  ....".`B..`B....
00006cd0: 0300 0501 0002 0004 0014 000d 0000 3232  ..............22
00006ce0: 1e1e 0000 001f 6309 0700 0200 000c 001c  ......c.........
00006cf0: 000a 372e 0000 0007 0f04 0000 4063 0100  ..7.........@c..
00006d00: 0044 364d 0000 0000 280c 6341 0019 4016  .D6M....(.cA..@.
00006d10: 4043 3136 0000 2d00 170f 6353 0052 5352  @C16..-...cS.RSR
00006d20: 3300 0000 0001 0000 0000 0000 0000 0063  3..............c
00006d30: 0000 0000 0000 0000 0000 0000 0000 0000  ................
00006d40: 3200 0000 0000 0000 6300 6300 0063 0000  2.......c.c..c..
00006d50: 0000 0056 0069 6265 2048 6974 2020 2000  ...V.ibe Hit   .
00006d60: 003a 7f00 0000 0000 0060 3e00 0000 603d  .:.......`>...`=
00006d70: 0000 0002 0000 0000 0200 0c00 0032 000e  .............2..
00006d80: 0a34 3432 0032 0000 3f01 0105 211d 0600  .442.2..?...!...
00006d90: 0000 3400 0452 0a74 010c 0700 0000 0000  ..4..R.t........
00006da0: 0000 0000 044c 363c 5500 002d 0000 635e  .....L6<U..-..c^
00006db0: 0000 0063 0063 5400 003a 0000 0000 635f  ...c.cT..:....c_
00006dc0: 0000 142a 0000 0000 0000 0000 0000 0000  ...*............
00006dd0: 0000 6300 0000 0000 0000 0000 0000 0000  ..c.............
00006de0: 0000 0032 0000 0000 0000 0063 0000 6300  ...2.......c..c.
00006df0: 6300 0000 0000 0050 6c75 636b 0020 2020  c......Pluck.   
00006e00: 2020 0020 0038 0000 0000 0000 007c 4100    . .8.......|A.
00006e10: 0060 4100 0000 0000 0000 0002 0012 0300  .`A.............
00006e20: 1300 020b 0028 2828 2800 003f 0861 001f  .....((((..?.a..
00006e30: 2762 0000 0000 3b02 0200 0700 0008 0800  'b....;.........
00006e40: 5900 0003 0000 0000 6375 0000 0000 6362  Y.......cu....cb
00006e50: 0063 6300 0063 0052 0059 3e00 0055 0063  .cc..c.R.Y>..U.c
00006e60: 0063 4f00 2050 0009 0041 0801 0000 0000  .cO. P...A......
00006e70: 0000 0000 0000 6300 0000 0000 0000 0000  ......c.........
00006e80: 0000 0000 0000 0032 0000 0000 0000 0063  .......2.......c
00006e90: 0063 0063 0000 4040 4000 476f 006f 6420  .c.c..@@@.Go.od 
00006ea0: 2620 4261 0064 0100 1b00 1b00 0a00 6f1b  & Ba.d........o.
00006eb0: 2346 0043 0040 460e 1000 0500 0000 0002  #F.C.@F.........
00006ec0: 0007 0006 0000 0009 1c1c 1919 0000 001f  ................
00006ed0: 1500 0a27 140b 007d 047a 003c 000a 0401  ...'...}.z.<....
00006ee0: 0000 000e 0000 1d00 0000 0063 0248 6c00  ...........c.Hl.
00006ef0: 401d 5610 0060 1d0f 0f0f 5451 0440 4867  @.V..`....TQ.@Hg
00006f00: 5156 0800 0063 0a5c 0000 0322 022e 0822  QV...c.\..."..."
00006f10: 0000 0000 4216 6600 0000 486c 0063 401d  ....B.f...Hl.c@.
00006f20: 5600 5f37 0037 443c 5154 2948 0167 5156  V._7.7D<QT)H.gQV
00006f30: 0800 634c 401b 1b1b 1d22 2e08 0022 4469  ..cL@...."..."Di
00006f40: 6769 7461 006c 2032 2000 205c 017f 0000  gita.l 2 . \....
00006f50: 0000 007c 0046 0000 6046 0300 0000 0306  ...|.F..`F......
00006f60: 0003 0200 0003 000f 0005 1728 0028 3333  ...........(.(33
00006f70: 0000 3f12 0000 1414 3c00 0003 0050 0000  ..?.....<....P..
00006f80: 0000 0003 0005 0201 0000 0000 0000 0000  ................
00006f90: 430e 6340 0063 1e00 6219 2e1c 002c 3815  C.c@.c..b....,8.
00006fa0: 233e 0063 0000 0b00 6040 6337 1063 1e02  #>.c....`@c7.c..
00006fb0: 2208 0100 0000 0000 0000 0000 0063 0000  "............c..
00006fc0: 0000 0000 0000 0000 0000 0000 0000 3200  ..............2.
00006fd0: 0000 0000 0000 6300 6300 6300 0040 4040  ......c.c.c..@@@
00006fe0: 004d 7574 0065 2054 7270 2e20 0000 2023  .Mut.e Trp. .. #
00006ff0: 0000 0000 0000 007c 4400 0060 0044 0000  .......|D..`.D..
00007000: 0003 0905 0002 0200 0200 0800 0005 160d  ................
00007010: 0d32 3200 0000 3f1f 0017 143c 0000 0003  .22...?....<....
00007020: 1401 0000 0400 007d 0300 0200 0002 0000  .......}........
00007030: 4221 1535 0000 4d00 195e 0062 004f 1663  B!.5..M..^.b.O.c
00007040: 1c63 0054 0248 5a35 2e43 0463 0046 534f  .c.T.HZ5.C.c.FSO
00007050: 5601 0043 0109 0100 0000 0000 0000 0000  V..C............
00007060: 6300 0000 0000 0000 0000 0000 0000 0000  c...............
00007070: 0032 0000 0000 0000 0063 0063 0000 6300  .2.......c.c..c.
00007080: 4040 4000 0053 7472 6174 6f73 4020 2020  @@@..Stratos@   
00007090: 0100 1e7f 0201 7f00 1300 402f 0000 0560  ..........@/...`
000070a0: 2f00 0000 0003 0000 0002 0006 0000 0a00  /...............
000070b0: 0d04 3232 003e 3e00 001f 6300 0004 2800  ..22.>>...c...(.
000070c0: 0003 0603 0000 3d25 4c00 0402 017e 0000  ......=%L....~..
000070d0: 0000 0000 081c 6336 1e42 0000 0000 0063  ......c6.B.....c
000070e0: 4600 0000 0037 002a 3a00 4200 0000 2663  F....7.*:.B...&c
000070f0: 5d53 635e 0057 0000 0f00 0000 0000 0000  ]Sc^.W..........
00007100: 0062 0000 0000 0063 0000 0000 0062 5100  .b.....c.....bQ.
00007110: 0000 2e00 0021 0000 5d00 0000 0063 4263  .....!..]....cBc
00007120: 6363 3800 0000 0000 5369 7461 0072 2032  cc8.....Sita.r 2
00007130: 2020 2000 0000 0c00 0000 0000 0000 6044     ...........`D
00007140: 0000 6044 0000 0000 0300 0000 0002 0005  ..`D............
00007150: 0011 0001 000b 1414 3232 0000 001f 1c00  ........22......
00007160: 0d1f 2e00 0203 7d28 2503 001e 2000 0503  ......}(%... ...
00007170: 0302 7e04 4002 0020 260e 304b 005a 1808  ..~.@.. &.0K.Z..
00007180: 1400 6359 0018 110e 6363 5942 0179 3d00  ..cY....ccYB.y=.
00007190: 1b00 635e 0000 0000 1906 0002 0000 0000  ..c^............
000071a0: 0000 0000 0000 0063 0000 0000 0000 0000  .......c........
000071b0: 0000 0000 0000 0000 3200 0000 0000 0000  ........2.......
000071c0: 6300 6300 0063 0000 0000 0046 006c 6578  c.c..c.....F.lex
000071d0: 6174 6f6e 0065 2000 002c 0000 0000 0000  aton.e ..,......
000071e0: 0060 4002 0000 6040 0000 0002 0000 0004  .`@...`@........
000071f0: 0200 3200 0032 000b 0032 321e 001e 0000  ..2..2...22.....
00007200: 1f63 0903 0000 0200 030b 1d00 0014 372e  .c............7.
00007210: 0000 0418 000f 0000 5100 2314 044a 3649  ........Q.#..J6I
00007220: 0000 0030 0000 631e 2624 2363 0063 5436  ...0..c.&$#c.cT6
00007230: 0045 0040 0000 6363 6363 632f 0000 0000  .E.@..ccccc/....
00007240: 0100 0000 0000 0000 0000 6300 0000 0000  ..........c.....
00007250: 0000 0000 0000 0000 0000 0032 0000 0000  ...........2....
00007260: 0000 0063 0000 6300 6300 0000 0000 0044  ...c..c.c......D
00007270: 6967 6974 0061 6c20 3420 0000 0260 7f00  igit.al 4 ...`..
00007280: 0000 0000 0060 4400 0060 4400 0000 0002  .....`D..`D.....
00007290: 0000 0402 0000 0400 0c00 0b00 0032 3219  .............22.
000072a0: 1900 001f 0063 0d03 0004 0008 0008 1e00  .....c..........
000072b0: 0a37 2e00 0200 7b00 0000 0000 2000 6363  .7....{..... .cc
000072c0: 2b36 582c 0000 2c62 0063 1602 003b 373b  +6X,..,b.c...;7;
000072d0: 331e 3600 0037 0058 0063 6363 0063 6335  3.6..7.X.ccc.cc5
000072e0: 0022 0001 0000 0000 0000 0000 0000 6300  ."............c.
000072f0: 0000 0000 0000 0000 0000 0000 0000 0032  ...............2
00007300: 0000 0000 0000 0063 0063 0063 0000 0000  .......c.c.c....
00007310: 0000 536f 0066 7420 486f 726e 1073 0000  ..So.ft Horn.s..
00007320: 5b7f 0000 0000 0000 6040 0000 0060 4000  [.......`@...`@.
00007330: 0000 0300 0000 0402 0009 000c 0000 0b00  ................
00007340: 2828 1414 0000 001f 630d 0300 000f 0003  ((......c.......
00007350: 0421 0016 1037 2e00 007b 0502 0000 0000  .!...7...{......
00007360: 0063 6326 0236 581e 0000 6302 0063 2f08  .cc&.6X...c..c/.
00007370: 3908 361c 0032 3600 4100 0005 0063 5454  9.6..26.A....cTT
00007380: 5553 0a00 0000 0000 0000 0000 0000 0000  US..............
00007390: 0063 0000 0000 0000 0000 0000 0000 0000  .c..............
000073a0: 0000 3200 0000 0000 0000 6300 0063 0063  ..2.......c..c.c
000073b0: 0000 0000 0000 4865 6c6c 7342 0065 6c6c  ......HellsB.ell
000073c0: 7301 0029 017f 1500 0000 2460 0042 0000  s..)......$`.B..
000073d0: 6042 0000 0000 0000 0000 0200 0006 000c  `B..............
000073e0: 000a 0019 4019 1e1e 0000 1f34 0000 500a  ....@......4..P.
000073f0: 6801 0000 001e 0028 372e 0000 037b 1d10  h......(7....{..
00007400: 0063 3463 0000 0000 0000 4a00 0000 0000  .c4c......J.....
00007410: 6363 6363 0063 6300 4000 0000 0000 0000  cccc.cc.@.......
00007420: 630d 5100 0034 2f00 0000 0000 1000 0000  c.Q..4/.........
00007430: 6271 0000 0400 4237 4c00 0000 0000 635e  bq....B7L.....c^
00007440: 6358 0050 0063 4000 0000 0000 0000 6358  cX.P.c@.......cX
00007450: 0000 004c 0000 0000 0044 726f 0070 2020  ...L.....Dro.p  
00007460: 2020 2020 0800 2034 7f00 0000 0000 007c      .. 4.......|
00007470: 4100 0060 0041 0000 0000 0000 0000 0212  A..`.A..........
00007480: 0300 2100 0006 020a 0a13 1300 0800 3f04  ..!...........?.
00007490: 4800 0000 4000 0b0c 3a00 0027 0063 0000  H...@...:..'.c..
000074a0: 0000 5900 0000 0000 0000 0075 0000 6300  ..Y........u..c.
000074b0: 6362 0063 0063 6363 0052 0059 003e 0055  cb.c.ccc.R.Y.>.U
000074c0: 0063 0063 004f 0050 0001 0041 0108 0100  .c.c.O.P...A....
000074d0: 0000 0000 0000 0000 6300 0000 0000 0000  ........c.......
000074e0: 0000 0000 0000 0000 0032 0000 0000 0000  .........2......
000074f0: 0063 0063 0000 6300 4040 4000 005a 6570  .c.c..c.@@@..Zep
00007500: 6879 7220 4020 2020 0100 2e7f 001f 0000  hyr @   ........
00007510: 0015 603d 0000 0060 3d00 0000 0000 0000  ..`=...`=.......
00007520: 0002 0006 0000 0700 0217 3232 0032 3200  ..........22.22.
00007530: 001f 2100 1214 2a45 007f 004e 0000 0000  ..!...*E...N....
00007540: 0000 0300 0164 3900 0039 0008 0000 633c  .....d9..9....c<
00007550: 0000 0000 0000 0063 5900 0000 0063 0037  .......cY....c.7
00007560: 4800 1c00 0059 2f63 5f00 0000 0049 0000  H....Y/c_....I..
00007570: 0000 0000 0000 0000 0000 0037 003c 0000  ...........7.<..
00007580: 0000 0000 0063 5900 0000 0000 0037 3c00  .....cY......7<.
00007590: 2100 004b 0063 5900 0000 4d00 0000 0000  !..K.cY...M.....
000075a0: 452e 5069 0061 6e6f 2033 2000 0000 4d00  E.Pi.ano 3 ...M.
000075b0: 0000 0000 0000 6044 0000 6044 0000 0000  ......`D..`D....
000075c0: 0000 0000 0002 0004 0010 000b 0000 3232  ..............22
000075d0: 1414 0000 001f 6309 0300 0500 0007 0221  ......c........!
000075e0: 0015 372e 0400 007b 0000 0000 4000 0000  ..7....{....@...
000075f0: 001a 2a54 002d 000b 4b00 6347 0001 5800  ..*T.-..K.cG..X.
00007600: 4c3a 5436 0000 3b00 0000 6356 0000 0000  L:T6..;...cV....
00007610: 0800 2200 0000 0000 0000 0000 0000 0063  .."............c
00007620: 0000 0000 0000 0000 0000 0000 0000 0000  ................
00007630: 3200 0000 0000 0000 6300 6300 0063 0000  2.......c.c..c..
00007640: 0000 0053 0079 6e74 6842 7261 2073 7301  ...S.ynthBra ss.
00007650: 005b 7f5b 157f 0076 0240 4000 0000 6040  .[.[...v.@@...`@
00007660: 0000 0003 0005 0005 0200 0600 000a 000b  ................
00007670: 0028 2813 0013 0000 1f63 0d03 0000 0100  .((......c......
00007680: 0202 1a00 4028 3719 0000 0177 0002 0000  ....@(7....w....
00007690: 0000 1800 0432 3650 2600 002e 0002 631b  .....26P&.....c.
000076a0: 191c 1b1b 0019 2f36 002a 0000 0000 634f  ....../6.*....cO
000076b0: 535c 1404 0000 0000 0009 0200 0000 0000  S\..............
000076c0: 1800 3236 0000 2600 002d 0263 001b 1b1f  ..26..&..-.c....
000076d0: 191f 192f 0000 004e 0000 0063 0049 4549  .../...N...c.IEI
000076e0: 4604 0000 0000 0044 6967 6974 0061 6c20  F......Digit.al 
000076f0: 3520 0120 0a61 7f61 7f00 0700 005c 1c00  5 . .a.a.....\..
00007700: 0460 4200 0000 0000 0000 0002 0000 0c00  .`B.............
00007710: 0500 0b00 003c 3c28 2800 003f 0063 0a03  .....<<((..?.c..
00007720: 0003 0002 0006 1f00 1237 2e00 0200 7b02  .........7....{.
00007730: 0100 0000 2000 0000 0d44 6c53 0000 0024  .... ....DlS...$
00007740: 013c 2048 0033 4351 204a 3e00 0063 000b  .< H.3CQ J>..c..
00007750: 0a63 4f32 2037 3539 0242 0801 0000 0000  .cO2 759.B......
00007760: 0000 0000 0800 1f43 6450 0000 0029 0328  .......CdP...).(
00007770: 6326 3e24 0063 003f 0000 6200 0000 0663  c&>$.c.?..b....c
00007780: 633f 0000 0021 6363 6300 452e 0047 7569  c?...!ccc.E..Gui
00007790: 7461 7220 1031 0000 0a7f 0000 0800 0000  tar .1..........
000077a0: 6034 0000 0060 4400 0000 0100 0000 0002  `4...`D.........
000077b0: 0005 0110 0000 0b00 3232 1414 0000 001f  ........22......
000077c0: 630a 0300 0002 000a 0b0c 0028 1037 2e00  c..........(.7..
000077d0: 007b 0000 0000 0000 0000 0000 0236 534e  .{...........6SN
000077e0: 0007 2d00 0063 5f00 0000 6363 005e 0000  ..-..c_...cc.^..
000077f0: 3a00 0000 0063 5f00 0000 0400 0002 0000  :....c_.........
00007800: 0000 0000 0000 0000 0063 0000 0000 0000  .........c......
00007810: 0000 0000 0000 0000 0000 3200 0000 0000  ..........2.....
00007820: 0000 6300 0063 0063 0000 0000 0000 5268  ..c..c.c......Rh
00007830: 7974 686d 0020 2020 2000 0029 017f 0000  ythm.    ..)....
00007840: 0000 0060 0040 0203 6040 0000 0000 0200  ...`.@..`@......
00007850: 0004 0200 0006 0016 0009 0014 4014 1919  ............@...
00007860: 0000 1f7a 0000 3200 7d00 090b 001e 0016  ...z..2.}.......
00007870: 372e 0000 0004 0000 0000 0000 1023 1449  7............#.I
00007880: 365c 0d00 0000 4e00 631e 2624 0023 6363  6\....N.c.&$.#cc
00007890: 5936 004a 0000 5100 6363 6363 0063 2a00  Y6.J..Q.cccc.c*.
000078a0: 0000 0100 0000 0000 0000 0000 0063 0000  .............c..
000078b0: 0000 0000 0000 0000 0000 0000 0000 3200  ..............2.
000078c0: 0000 0000 0000 6300 6300 6300 0000 0000  ......c.c.c.....
000078d0: 004d 6f6e 006f 2053 796e 7468 0800 015a  .Mon.o Synth...Z
000078e0: 7f00 0000 0000 0060 4000 0060 0040 0000  .......`@..`.@..
000078f0: 0004 0000 0004 0200 0600 0a00 000d 0932  ...............2
00007900: 3223 2300 0000 1f63 0307 2802 0800 060c  2##....c..(.....
00007910: 7a00 320a 0974 010c 7400 0000 0000 0000  z.2..t..t.......
00007920: 0000 4736 0167 0000 0033 0063 0063 6363  ..G6.g...3.c.ccc
00007930: 6363 630f 0036 0032 0058 0063 0063 6363  ccc..6.2.X.c.ccc
00007940: 6301 0000 0000 0100 0000 0000 0000 0000  c...............
00007950: 6300 0000 0000 0000 0000 0000 0000 0000  c...............
00007960: 0032 0000 0000 0000 0063 0063 0000 6300  .2.......c.c..c.
00007970: 0000 0000 0048 6f6c 642e 2e2e 402e 2e2e  .....Hold...@...
00007980: 0120 2e7f 0207 7f00 0702 5c1c 0000 0620  . ........\.... 
00007990: 5403 0000 0000 0000 0008 000c 0000 2700  T.............'.
000079a0: 010c 2323 0032 3200 003f 1a00 202b 1f2e  ..##.22..?.. +..
000079b0: 0000 7d63 200b 1500 3200 7f05 0179 0500  ..}c ...2....y..
000079c0: 0000 0000 0800 6344 6c63 0000 0016 0162  ......cDlc.....b
000079d0: 2048 3343 0051 511d 3e00 0000 000b 0063   H3C.QQ.>......c
000079e0: 4f32 3735 0840 0242 0801 0000 0000 0000  O275.@.B........
000079f0: 0000 001f 0243 6450 0000 1f03 0062 4400  .....CdP.....bD.
00007a00: 5363 6362 0019 0000 0000 0006 0063 5132  Sccb.........cQ2
00007a10: 3263 4163 0063 4000 5761 6974 002e 2e2e  2cAc.c@.Wait....
00007a20: 2e2e 2e01 0020 2701 1e00 0000 0033 3c41  ..... '......3<A
00007a30: 0000 2042 0000 0000 0000 0000 0002 1207  .. B............
00007a40: 003c 0001 0009 1d1d 1919 0000 103f 1100  .<...........?..
00007a50: 4108 6400 0402 097c 003c 081f 0001 0807  A.d....|.<......
00007a60: 0059 0000 0000 0000 0000 3000 2063 0063  .Y........0. c.c
00007a70: 0a00 1d50 0062 5f2e 6362 133c 0000 1200  ...P.b_.cb.<....
00007a80: 6300 6349 404d 504d 4800 4108 0201 710b  c.cI@MPMH.A...q.
00007a90: 000a 0a01 1000 0015 4169 6300 0000 0f00  ........Aic.....
00007aa0: 2900 2900 2029 4063 2141 7111 0046 0002  ).). )@c!Aq..F..
00007ab0: 633f 4c63 004e 4663 6341 0053 0075 7270  c?Lc.NFccA.S.urp
00007ac0: 7269 7365 2021 2101 2020 7f1b 0001 0006  rise !!.  ......
00007ad0: 565c 2c37 0007 4044 0000 0000 0000 0000  V\,7..@D........
00007ae0: 0200 0300 000c 0001 1642 421e 001e 0000  .........BB.....
00007af0: 3f1f 000a 200c 4b00 0706 1d02 4000 0000  ?... .K.....@...
00007b00: 0002 0064 1000 0000 5c1d 0000 0063 4600  ...d....\....cF.
00007b10: 6300 0000 2243 1d51 6263 645f 0000 1665  c..."C.Qbcd_...e
00007b20: 0000 0063 0026 6319 4b06 532d 1400 4208  ...c.&c.K.S-..B.
00007b30: 0162 0838 0000 135d 0000 6300 0000 6300  .b.8...]..c...c.
00007b40: 0000 0062 0824 444f 711f 621b 023f 6500  ...b.$DOq.b..?e.
00007b50: 0000 0063 0063 3f46 3423 6363 0063 0000  ...c.c?F4#cc.c..
00007b60: 0102 0304 0005 0607 0303 0303 4003 0303  ............@...
00007b70: 0304 6c77 0001 4f68 2059 6573 0021 3120  ..lw..Oh Yes.!1 
00007b80: 2004 1600 0032 321f 1f00 001f 0063 0100   ....22......c..
00007b90: 0000 0007 0008 1300 2846 2e00 0200 7b3d  ........(F....{=
00007ba0: 2300 0005 005e 2b00 0001 5e2b 0000 0009  #....^+...^+....
00007bb0: 5a0f 0000 0005 6332 0006 0513 0028 0000  Z.....c2.....(..
00007bc0: 0524 2b00 4000 0509 2800 0005 0000 0102  .$+.@...(.......
00007bd0: 0304 0516 0017 0303 0303 0303 1003 0304  ................
00007be0: 697f 024f 0075 7420 5468 6572 0065 2004  i..O.ut Ther.e .
00007bf0: 0000 2525 0040 4065 010f 2e00 2013 212e  ..%%.@@e.... .!.
00007c00: 0000 7b2e 4000 002c 6300 007b 0017 2800  ..{.@..,c..{..(.
00007c10: 0005 6128 0000 0005 1f28 0000 0005 0028  ..a(.....(.....(
00007c20: 0000 0100 0028 0000 091b 2300 0000 0c06  .....(....#.....
00007c30: 6300 0005 0044 6300 0005 0001 0002 0314  c....Dc.........
00007c40: 1516 0703 0003 0303 0303 0303 0404 637f  ..............c.
00007c50: 0348 6172 006d 6f6e 7931 2020 0004 0000  .Har.mony1  ....
00007c60: 1f1f 2222 0001 650f 2100 2837 082e 0000  ..""..e.!.(7....
00007c70: 7b1f 001c 001c 6300 0c00 341e 0000 0005  {.....c...4.....
00007c80: 341e 0006 0005 2928 0000 0b29 0028 0000  4.....)(...).(..
00007c90: 0d10 6300 0000 0515 6300 0005 0002 6300  ..c.....c.....c.
00007ca0: 0005 0928 0400 0005 0001 0203 0004 0516  ...(............
00007cb0: 0703 0303 0003 0303 0303 0462 017f 0448  ...........b...H
00007cc0: 6172 6d6f 006e 7932 2020 0416 0000 3232  armo.ny2  ....22
00007cd0: 1919 0165 001f 6302 0000 0000 0004 0615  ...e..c.........
00007ce0: 002e 422e 0000 0c07 2028 0000 0005 1621  ..B..... (.....!
00007cf0: 0000 0902 0028 0000 0436 2800 0000 0b36  .....(...6(....6
00007d00: 2800 000d 002d 2800 0005 0663 0000 0005  (....-(....c....
00007d10: 0928 0000 0105 0001 0203 1415 0006 0703  .(..............
00007d20: 0303 0303 2003 0303 0450 7f05 004d 732e  .... ....P...Ms.
00007d30: 204d 7572 006f 2020 0416 0032 0032 2222   Mur.o  ...2.2""
00007d40: 0165 1f63 0002 0000 0000 0406 001c 0018  .e.c............
00007d50: 3700 0000 017b 161e 0000 0518 0026 0000  7....{.......&..
00007d60: 052b 1c00 0000 0134 1b00 0009 0038 6300  .+.....4.....8c.
00007d70: 0005 2063 0000 0005 382a 0000 2005 0928  .. c....8*.. ..(
00007d80: 0000 0500 0001 0203 0405 0607 0003 0303  ................
00007d90: 0303 0303 0803 046d 7f14 4f68 0020 5965  .......m..Oh. Ye
00007da0: 7321 3220 0020 0416 0032 321f 001f 0000  s!2 . ...22.....
00007db0: 1f63 0100 0000 0000 0708 1300 2028 462e  .c.......... (F.
00007dc0: 0000 7b3d 001e 0000 055e 2d00 0000 053c  ..{=.....^-....<
00007dd0: 2800 0005 0020 1700 0005 4106 0000 0001  (.... ....A.....
00007de0: 4106 0000 0009 242c 0000 0509 0828 0000  A.....$,.....(..
00007df0: 0100 0102 0003 0405 0607 0303 0003 0303  ................
00007e00: 0303 0304 0078 0014 4e65 7720 0053 6f6e  .....x..New .Son
00007e10: 6720 2004 0016 0332 3219 1900 0000 1f63  g  ....22......c
00007e20: 0100 0000 0000 0804 0c00 0067 003c 0007  ...........g.<..
00007e30: 0100 6300 0000 0500 6300 0005 0000 6300  ..c.....c.....c.
00007e40: 0005 0063 0000 0005 0063 0000 0005 0063  ...c.....c.....c
00007e50: 0000 0500 0063 0000 0500 6300 0000 0500  .....c....c.....
00007e60: 0102 0304 0005 0607 0303 0303 0003 0303  ................
00007e70: 0304 7800 0014 4e65 7720 536f 006e 6720  ..x...New So.ng 
00007e80: 2004 1600 0032 3214 1400 001f 0063 0100   ....22......c..
00007e90: 0000 0008 0009 1100 0037 2e00 000c 0700  .........7......
00007ea0: 6300 0005 0000 6300 0005 0063 0000 0005  c.....c....c....
00007eb0: 0063 0000 0005 0063 0000 0500 0063 0000  .c.....c.....c..
00007ec0: 0500 6300 0000 0500 6300 0005 0000 0102  ..c.....c.......
00007ed0: 0304 0506 0007 0303 0303 0303 0003 0304  ................
00007ee0: 7800 144e 0065 7720 536f 6e67 0020 2004  x..N.ew Song.  .
00007ef0: 0013 1515 0064 6400 000f 2100 2028 372e  .....dd...!. (7.
00007f00: 0000 7b00 0000 0000 0101 0000 0000 6300  ..{...........c.
00007f10: 0005 0063 0000 0005 0063 0000 0005 0063  ...c.....c.....c
00007f20: 0000 0500 0063 0000 0500 6300 0000 0500  .....c....c.....
00007f30: 6300 0005 0000 6300 0005 0001 0002 0304  c.....c.........
00007f40: 0506 0703 0003 0303 0303 0303 0004 7800  ..............x.
00007f50: 144e 6577 0020 536f 6e67 2020 0004 0000  .New. Song  ....
00007f60: 1f1f 2222 0001 650f 2100 2837 082e 0000  ..""..e.!.(7....
00007f70: 7b1f 001c 001c 6300 0c00 0063 0000 0005  {.....c....c....
00007f80: 0063 0000 0005 0063 0000 0500 0063 0000  .c.....c.....c..
00007f90: 0500 6300 0000 0500 6300 0005 0000 6300  ..c.....c.....c.
00007fa0: 0005 0063 0000 0005 0402 0401 0004 0204  ...c............
00007fb0: 0104 0204 0001 0402 0401 0401 0004 0204  ................
00007fc0: 0204 0204 0002 0401 0401 0401 0004 0104  ................
00007fd0: 0104 0104 0001 0401 0401 0401 0004 0104  ................
00007fe0: 0104 0104 0001 0401 0401 0401 0004 0104  ................
00007ff0: 0104 0104 0001 0401 0401 0401 0004 0104  ................
00008000: 0104 0104 0001 0401 0401 0401 0004 0104  ................
00008010: 0104 0104 0001 0401 0401 0401 0004 0104  ................
00008020: 0104 0104 0001 0401 0401 0401 0004 0104  ................
00008030: 0104 0104 0001 0401 0401 0401 0004 0104  ................
00008040: 0104 0104 0001 0401 0401 0401 0004 0104  ................
00008050: 0104 0104 0001 0401 0401 0401 0004 0104  ................
00008060: 0104 0104 0001 0401 0401 0401 0004 0104  ................
00008070: 0104 0104 0001 0401 0401 0401 0004 0104  ................
00008080: 0104 0104 0001 0401 0401 0401 1000 006c  ...............l
00008090: 0058 0044 0a01 3001 7c01 3c02 4128 0274  .X.D..0.|.<.A(.t
000080a0: 0628 073c 2807 4808 7c08 2c09 1510 0a10  .(.<(.H.|.,.....
000080b0: 0a10 0a10 000c 7c0e 0410 0c11 000c 110c  ......|.........
000080c0: 110c 1138 0012 6816 3018 581a 5140 1a2c  ...8..h.0.X.Q@.,
000080d0: 1b44 1b44 201b 141e 4823 3426 5564 2804  .D.D ...H#4&Ud(.
000080e0: 2904 2904 2a29 642a 182f 442f 5570 2f74  ).).*)d*./D/Up/t
000080f0: 3028 3170 2031 3832 6032 1432 5514 3214  0(1p 182`2.2U.2.
00008100: 3214 3214 2a32 1432 1432 1432 5514 3214  2.2.*2.2.2.2U.2.
00008110: 3214 3214 2a32 1432 1432 1432 5514 3214  2.2.*2.2.2.2U.2.
00008120: 3214 3214 2a32 1432 1432 1432 5514 3214  2.2.*2.2.2.2U.2.
00008130: 3214 3214 2a32 1432 1432 1432 5514 3214  2.2.*2.2.2.2U.2.
00008140: 3214 3214 2032 2433 3033 3c33 4148 3340  2.2. 2$303<3AH3@
00008150: 3450 3448 2234 5834 2035 3c35 4078 363c  4P4H"4X4 5<5@x6<
00008160: 3754 380c 2a38 0c38 0c38 0c38 550c 380c  7T8.*8.8.8.8U.8.
00008170: 380c 380c 2a38 0c38 0c38 0c38 550c 380c  8.8.*8.8.8.8U.8.
00008180: 380c 380c 2a38 0c38 0c38 0c38 550c 380c  8.8.*8.8.8.8U.8.
00008190: 380c 380c 2a38 0c38 0c38 0c38 550c 380c  8.8.*8.8.8.8U.8.
000081a0: 380c 380c 2a38 0c38 0c38 0c38 550c 380c  8.8.*8.8.8.8U.8.
000081b0: 380c 380c 2a38 0c38 0c38 0c38 550c 380c  8.8.*8.8.8.8U.8.
000081c0: 380c 380c 2a38 0c38 0c38 0c38 550c 380c  8.8.*8.8.8.8U.8.
000081d0: 380c 380c 2a38 0c38 0c38 0c38 550c 380c  8.8.*8.8.8.8U.8.
000081e0: 380c 380c 2a38 0c38 0c38 0c38 550c 380c  8.8.*8.8.8.8U.8.
000081f0: 380c 380c 2a38 0c38 0c38 0c38 550c 380c  8.8.*8.8.8.8U.8.
00008200: 380c 380c 2a38 0c38 0c38 0c38 550c 380c  8.8.*8.8.8.8U.8.
00008210: 380c 380c 2a38 0c38 0c38 0c38 550c 380c  8.8.*8.8.8.8U.8.
00008220: 380c 380c 0a38 0c38 0c38 0060 0000 0001  8.8..8.8.8.`....
00008230: 6000 0002 0060 0000 0360 0000 0004 6000  `....`...`....`.
00008240: 0005 6000 0000 0660 0000 0760 0000 0008  ..`....`...`....
00008250: 6000 0009 0060 0000 0a60 0000 000b 6000  `....`...`....`.
00008260: 000c 6000 0000 0d60 0000 0e60 0000 000f  ..`....`...`....
00008270: 6000 0010 0060 0000 1160 0000 0012 6000  `....`...`....`.
00008280: 0013 6000 0000 1460 0000 1560 2202 4016  ..`....`...`".@.
00008290: 6002 0017 4460 0240 1860 0200 1819 6003  `...D`.@.`....`.
000082a0: 4040 7000 0000 0060 0000 0160 0000 0002  @@p....`...`....
000082b0: 6000 0003 0060 0000 0460 0000 0005 6000  `....`...`....`.
000082c0: 0006 6000 0000 0760 0000 0860 2204 4009  ..`....`...`".@.
000082d0: 6004 000a 0060 0000 0b60 0000 080c 6004  `....`...`....`.
000082e0: 400d 6004 0100 0e60 0000 0f60 2000 0010  @.`....`...` ...
000082f0: 6004 4011 4460 0400 1260 0540 0013 6000  `.@.D`...`.@..`.
00008300: 0014 6000 1000 1560 0640 1660 2206 0017  ..`....`.@.`"...
00008310: 6006 4018 4460 0600 1960 0740 0140 7000  `.@.D`...`.@.@p.
00008320: 0000 6000 0000 0160 0000 0260 0000 0003  ..`....`...`....
00008330: 6000 0004 0060 0000 0560 0000 0006 6000  `....`...`....`.
00008340: 0007 6000 0000 0860 0000 0960 2000 000a  ..`....`...` ...
00008350: 6004 400b 0460 0400 0c60 0000 000d 6000  `.@..`...`....`.
00008360: 000e 6004 1140 0f60 0400 1060 0000 0011  ..`..@.`...`....
00008370: 6000 0012 4460 0440 1360 0400 0814 6005  `...D`.@.`....`.
00008380: 4015 6006 1140 1660 0600 1760 2206 4018  @.`..@.`...`".@.
00008390: 6006 0019 0c60 0740 4070 0000 6000 6000  `....`.@@p..`.`.
000083a0: 0000 447e 1d11 0142 7e15 0160 7c00 007e  ..D~...B~..`|..~
000083b0: 457e 117e 0743 7e15 0260 0000 7f7e 4515  E~.~.C~..`...~E.
000083c0: 107e 4314 7f14 243e 7e11 2442 3f7e 1f25  .~C...$>~.$B?~.%
000083d0: 3e7e 1503 7860 0000 7e3f 7e11 7f7e 437e  >~..x`..~?~..~C~
000083e0: 1f7e 3f7e 6115 0460 0000 7e3f 7f7e 117e  .~?~a..`..~?.~.~
000083f0: 437e 1f7e 073f 7e15 0560 0000 3b7e 3f4a  C~.~.?~..`..;~?J
00008400: 107e 434a 171e 7e3f 4b14 0660 4000 0007  .~CJ..~?K..`@...
00008410: 6000 0040 0070 0000 0060 0000 6e00 627e  `..@.p...`..n.b~
00008420: 0301 5c7e 1d07 0162 7e11 0160 7c00 007e  ..\~...b~..`|..~
00008430: 637e 037e 7f5d 7e07 7e63 7e11 7002 6000  c~.~.]~.~c~.p.`.
00008440: 007e 637e 7f03 7e5d 7e07 7e63 437e 1103  .~c~..~]~.~cC~..
00008450: 6000 007e 7f63 0a02 7e5d 0a06 0f7e 630b  `..~.c..~]...~c.
00008460: 1004 6000 2000 6330 0100 4070 0000 0000  ..`. .c0..@p....
00008470: 6000 0000 376a 7e03 016a 7e6b 6601 627e  `...7j~..j~kf.b~
00008480: 3b01 6a7e 6053 0160 0000 7e6b 7d7e 6b7e  ;.j~`S.`..~k}~k~
00008490: 6b7e 037e 3b6b 7e53 7e63 7e3b 3002 6000  k~.~;k~S~c~;0.`.
000084a0: 007e 6b37 766a 7e6b 3702 7e6b 4c37 527e  .~k7vj~k7.~kL7R~
000084b0: 6337 3a40 0070 0000 0060 0000 0001 6000  c7:@.p...`....`.
000084c0: 0002 6000 0000 0360 0000 0460 2200 4005  ..`....`...`".@.
000084d0: 6000 0006 4460 0040 0760 0000 0808 6000  `...D`.@.`....`.
000084e0: 4009 6000 1100 0a60 0040 0b60 2200 000c  @.`....`.@.`"...
000084f0: 6000 400d 4460 0000 0e60 0040 080f 6000  `.@.D`...`.@..`.
00008500: 0010 6000 1140 1160 0000 1260 2200 4013  ..`..@.`...`".@.
00008510: 6000 0014 4460 0140 1560 0240 0816 6002  `...D`.@.`.@..`.
00008520: 0017 6002 1140 1860 0200 1960 0603 4040  ..`..@.`...`..@@
00008530: 7000 0000 7060 0000 0166 1f2a 0001 6000  p...p`...f.*..`.
00008540: 0002 6000 0000 0360 0000 0460 0000 0005  ..`....`...`....
00008550: 6000 0006 0060 0000 0760 0000 0008 6000  `....`...`....`.
00008560: 0009 6000 0000 0a60 0000 0b60 2208 400c  ..`....`...`".@.
00008570: 6009 400d 4460 0900 0e60 0a40 080f 600a  `.@.D`...`.@..`.
00008580: 0010 600b 1140 1160 0b00 1260 220c 4013  ..`..@.`...`".@.
00008590: 600c 0014 1060 0000 007e 0656 2200 7403  `....`...~.V".t.
000085a0: 7200 7401 4476 007e 084a 016c 2a02 2202  r.t.Dv.~.J.l*.".
000085b0: 7e09 106c 117e 035e 787e 035e 3304 7e03  ~..l.~.^x~.^3.~.
000085c0: 5e10 7e03 765e 1c7e 051e 1c7e 6c03 5e28  ^.~.v^.~...~l.^(
000085d0: 7e05 1e28 597e 055e 347a 041e 3334 6a03  ~..(Y~.^4z..34j.
000085e0: 7834 5203 4048 1560 0000 0078 0a04 1e00  x4R.@H.`...x....
000085f0: 7e03 7800 116e 0c4c 0078 0e48 2a02 7e07  ~.x..n.L.x.H*.~.
00008600: 1018 3402 5472 1b5c 0610 246a 0805 4c24  ..4.Tr.\..$j..L$
00008610: 6605 4830 1572 1116 3078 0472 2230 6603  f.H0.r..0x.r"0f.
00008620: 6e30 7a06 445a 317e 065e 3172 2a19 1e33  n0z.DZ1~.^1r*..3
00008630: 7e08 1048 5550 0f16 4c6c 0510 2254 6a04  ~..HUP..Ll.."Tj.
00008640: 4c54 6c05 5448 6078 1216 607e 0807 7260  LTl.TH`x..`~..r`
00008650: 7806 6e60 1172 0f48 6074 0b4c 2a64 7e07  x.n`.r.H`t.L*d~.
00008660: 106f 5204 5510 7842 1016 7a48 6e03 1005  .oR.U.xB..zHn...
00008670: 5804 1010 1d7a 0f16 106a 0972 3310 6607  X....z...j.r3.f.
00008680: 6e10 7e05 665a 117e 065e 116a 6e13 1e12  n.~.fZ.~.^.jn...
00008690: 7e07 101c 5d5c 0410 2866 1216 3b2b 3405  ~...]\..(f..;+4.
000086a0: 1034 4003 664c 3450 0348 3656 0205 1016  .4@.fL4P.H6V....
000086b0: 6000 0000 157e 0f16 0072 0672 2200 7205  `....~...r.r".r.
000086c0: 6e00 6e05 444c 016e 0448 027e 0a08 100c  n.n.DL.n.H.~....
000086d0: 7a05 780c 1164 0648 0c6a 064c 2a0e 5806  z.x..d.H.j.L*.X.
000086e0: 1018 4810 5516 1a6a 0410 2442 0803 4824  ..H.U..j..$B..H$
000086f0: 6003 4c26 5560 0510 307e 1316 2230 7e07  `.L&U`..0~.."0~.
00008700: 7830 7e05 445a 307e 075e 316c 2a10 1e33  x0~.DZ0~.^1l*..3
00008710: 7e08 103e 5564 0710 4858 1116 2a4a 6605  ~..>Ud..HX..*Jf.
00008720: 1054 4202 5448 5756 0510 607a 0a0f 1660  .TB.THWV..`z...`
00008730: 5c08 6e60 1164 0872 606e 054c 2260 6e06  \.n`.d.r`n.L"`n.
00008740: 4862 7e08 5510 6e40 0610 7846 6a13 1679  Hb~.U.n@..xFj..y
00008750: 5806 1007 5d58 0510 107a 1416 3310 7208  X...]X...z..3.r.
00008760: 7210 6c07 666e 107e 055e 117e 6c03 5a11  r.l.fn.~.^.~l.Z.
00008770: 6a0c 1e13 5d7e 0710 1e60 0610 3b28 5c13  j...]~...`..;(\.
00008780: 162a 6a05 6710 3448 0348 3458 2c03 4c36  .*j.g.4H.H4X,.L6
00008790: 5606 1017 5060 0000 0078 1016 2200 6a06  V...P`...x..".j.
000087a0: 6e00 6607 4472 0062 034c 0162 2803 4802  n.f.Dr.b.L.b(.H.
000087b0: 7206 100c 5156 034c 185c 1216 2a1a 7e06  r...QV.L.\..*.~.
000087c0: 1024 6402 444c 2460 0348 2664 2a05 1030  .$d.DL$`.H&d*..0
000087d0: 7e11 1630 116e 066e 3074 0672 2230 7e04  ~..0.n.n0t.r"0~.
000087e0: 5a30 7e06 545e 3166 0e1e 3374 2a03 1048  Z0~.T^1f..3t*..H
000087f0: 5c11 1649 1578 0710 5442 0348 2254 5203  \..I.x..TB.H"TR.
00008800: 4c55 6204 5510 607a 1116 606e 0807 7260  LUb.U.`z..`n..r`
00008810: 6e06 6e60 1164 0648 616c 054c 2a78 4414  n.n`.d.Hal.L*xD.
00008820: 167a 7e08 7710 0562 0510 107a 4e14 1610  .z~.w..b...zN...
00008830: 7407 7210 1974 076e 107e 075e 3311 7e04  t.r..t.n.~.^3.~.
00008840: 5a11 6a0e 771e 2878 0610 285c 6e12 1634  Z.j.w.(x..(\n..4
00008850: 5a05 1034 197a 035a 347a 035e 2018 6000  Z..4.z.Z4z.^ .`.
00008860: 0000 7e0f 4516 0072 0672 006c 0805 6e00  ..~.E..r.r.l..n.
00008870: 7e06 5e0c 1160 0548 0c64 054c 2a18 5811  ~.^..`.H.d.L*.X.
00008880: 161a 6604 4510 2472 0f48 2478 280b 4c25  ..f.E.$r.H$x(.L%
00008890: 5004 1030 5574 0610 307e 1316 2230 6e07  P..0Ut..0~.."0n.
000088a0: 7230 6c06 446e 307c 085e 3062 2a0a 1e48  r0l.Dn0|.^0b*..H
000088b0: 5812 1649 156e 0510 5440 084c 2254 5005  X..I.n..T@.L"TP.
000088c0: 4856 5205 4510 607e 045c 607e 0a0f 1660  HVR.E.`~.\`~...`
000088d0: 6406 7260 5162 056e 6242 0310 2268 7204  d.r`Qb.nbB.."hr.
000088e0: 4a6f 4002 4510 706e 044a 786e 2804 4a78  Jo@.E.pn.Jxn(.Jx
000088f0: 5210 167a 1d6a 0410 0072 044a 3b06 5203  R..z.j...r.J;.R.
00008900: 1008 7a04 664a 107e 045c 107e 4e0f 1610  ..z.fJ.~.\.~N...
00008910: 6405 7210 5960 046e 1162 071e 3b12 6a03  d.r.Y`.n.b..;.j.
00008920: 1018 6c04 764a 1f64 0210 206c 4c04 4a28  ..l.vJ.d.. lL.J(
00008930: 7e04 4a28 5d60 1016 2a6e 0210 3330 7203  ~.J(]`..*n..30r.
00008940: 4a36 5201 0710 387e 034a 1960 0800 0000  J6R...8~.J.`....
00008950: 7e01 5e00 157e 0516 007e 0678 2200 6004  ~.^..~...~.x".`.
00008960: 6e01 7406 4448 0174 064c 017e 0802 5a01  n.t.DH.t.L.~..Z.
00008970: 7e05 5e03 156a 0110 047e 015c 2a0c 3a04  ~.^..j...~.\*.:.
00008980: 1018 3e03 0310 4070 0000 0060 1800 0000  ..>...@p...`....
00008990: 6a7e 6101 0366 7e49 0160 0000 777e 6b7e  j~a..f~I.`..w~k~
000089a0: 617e 677e 6049 0260 0000 7e6b 1d7e 617e  a~g~`I.`..~k.~a~
000089b0: 677e 4903 1860 0000 7e6b 1160 077e 677e  g~I..`..~k.`.~g~
000089c0: 4904 6000 0e00 7e67 7e49 0560 1c00 007e  I.`...~g~I.`...~
000089d0: 677e 4906 3860 0000 7e67 7e49 7007 6000  g~I.8`..~g~Ip.`.
000089e0: 007e 677e 6049 0860 0000 7e67 417e 4909  .~g~`I.`..~gA~I.
000089f0: 6000 007e 0367 7e49 0a60 0000 077e 677e  `..~.g~I.`...~g~
00008a00: 490b 6000 6e00 7e67 7e49 3e50 417e 610c  I.`.n.~g~I>PA~a.
00008a10: 6000 007e 3b51 7e61 7e67 7e49 700d 6000  `..~;Q~a~g~Ip.`.
00008a20: 007e 517e 0661 7e67 0948 0e60 1c00 007e  .~Q~.a~g.H.`...~
00008a30: 517e 610f 3860 0000 7e51 7e61 0000 4007  Q~a.8`..~Q~a..@.
00008a40: 1e10 6000 0e00 7e51 7e61 1160 4c00 007e  ..`...~Q~a.`L..~
00008a50: 5130 6040 0070 0000 0060 0000 6600 7e7e  Q0`@.p...`..f.~~
00008a60: 6f00 7e7e 0c79 017e 7e61 0160 5c00 007e  o.~~.y.~~a.`\..~
00008a70: 7f7e 6f7e 3b7f 7e79 7e7f 7e61 7002 6000  .~o~;.~y~.~ap.`.
00008a80: 007e 7f7e 6e6f 7e7f 7e79 7e7f 417e 6103  .~.~no~.~y~.A~a.
00008a90: 6000 007e 3b7f 7e6f 7e7f 7e79 077e 7f7e  `..~;.~o~.~y.~.~
00008aa0: 6104 6000 6e00 7e7f 7e6f 7e7f 1c24 787e  a.`.n.~.~o~..$x~
00008ab0: 7f7e 6105 3860 0000 7e7f 7e6f 077e 7f7e  .~a.8`..~.~o.~.~
00008ac0: 6106 6000 6600 7e7f 246e 7e7f 417e 6107  a.`.f.~.$n~.A~a.
00008ad0: 6000 007e 037f 7e61 0860 0000 077e 7f7e  `..~..~a.`...~.~
00008ae0: 6109 6000 0e00 7e7f 7e61 0a60 1c00 007e  a.`...~.~a.`...~
00008af0: 7f7e 610b 3860 0000 7e7f 1c60 0140 7000  .~a.8`..~..`.@p.
00008b00: 0000 6000 0000 0160 0000 0260 0000 0003  ..`....`...`....
00008b10: 6000 0004 0060 0000 0560 0000 0006 6000  `....`...`....`.
00008b20: 0007 6000 0000 0860 0000 0960 0000 000a  ..`....`...`....
00008b30: 6000 000b 0060 0000 0c60 0000 000d 6000  `....`...`....`.
00008b40: 000e 6000 1e00 3210 7e07 0f60 3c00 007e  ..`...2.~..`<..~
00008b50: 117e 0710 5710 7e11 2f14 6514 2e4b 1e7e  .~..W.~./.e..K.~
00008b60: 1b69 341d 1f1e 2d0a 7e15 1060 7c00 007e  .i4...-.~..`|..~
00008b70: 117e 077e 7f11 7e11 7e0b 7e15 6b7e 1f27  .~.~..~.~.~.k~.'
00008b80: 1a3f 187e 611b 1160 0000 7e11 6e39 067e  .?.~a..`..~.n9.~
00008b90: 114f 107e 7d0b 5014 7e19 071a 0140 7000  .O.~}.P.~....@p.
00008ba0: 0000 6000 0000 0160 0000 0260 4000 0003  ..`....`...`@...
00008bb0: 6000 003e 7f54 7e11 3f52 7e03 0f3f 527e  `..>.T~.?R~..?R~
00008bc0: 0b04 6000 7e00 7e55 7e11 7e53 3f7e 037e  ..`.~.~U~.~S?~.~
00008bd0: 537e 0b05 7860 0000 7e55 7e11 7f7e 537e  S~..x`..~U~..~S~
00008be0: 037e 537e 610b 0660 0000 7e55 7f02 107e  .~S~a..`..~U...~
00008bf0: 5301 027e 0753 030a 0760 0000 7739 547e  S..~.S...`..w9T~
00008c00: 793a 547e 1f03 3b54 7e0b 0860 5c00 007e  y:T~..;T~..`\..~
00008c10: 557e 797e 7f55 7e03 7e55 7e0b 7009 6000  U~y~.U~.~U~.p.`.
00008c20: 007e 557e 7e79 7e55 7e03 7e55 437e 0b0a  .~U~~y~U~.~UC~..
00008c30: 6000 007e 7b55 7e79 7e55 7e03 7f7e 5526  `..~{U~y~U~..~U&
00008c40: 0a3c 447e 6107 0b60 0000 7e55 6c16 787e  .<D~a..`..~Ul.x~
00008c50: 5516 027e 0745 7e07 0c60 0000 0f7e 457e  U..~.E~..`...~E~
00008c60: 070d 6000 3600 7e45 1706 4070 0000 0000  ..`.6.~E..@p....
00008c70: 6000 0001 0060 0000 0260 0000 0003 6000  `....`...`....`.
00008c80: 0004 6000 6000 0560 0000 3c56 7f7e 073d  ..`.`..`..<V.~.=
00008c90: 4a7e 0f3d 0358 7e7d 0660 0000 7f7e 577e  J~.=.X~}.`...~W~
00008ca0: 077e 4b7e 0f0f 7e59 7e7d 0760 7c00 007e  .~K~..~Y~}.`|..~
00008cb0: 577e 077e 3f4b 7e0f 7e59 7e7d 7008 6000  W~.~?K~.~Y~}p.`.
00008cc0: 007e 577e 7f07 7e4b 7e0f 7e59 417e 7d09  .~W~..~K~.~YA~}.
00008cd0: 6000 007e 5d57 3906 7e4b 330e 037e 593a  `..~]W9.~K3..~Y:
00008ce0: 7c0a 6000 4c00 0252 7e75 0252 397e 7f03  |.`.L..R~u.R9~..
00008cf0: 4c7e 070b 3860 0000 7e53 7e75 777e 537e  L~..8`..~S~uw~S~
00008d00: 7f7e 4d7e 1f07 3948 7e03 0c60 5c00 007e  .~M~..9H~..`\..~
00008d10: 537e 757e 7b53 7e7f 7e4d 3e06 0f7e 497e  S~u~{S~.~M>..~I~
00008d20: 030d 6000 6600 7e53 0374 7e53 7c18 7e7e  ..`.f.~S.t~S|.~~
00008d30: 4933 0240 0070 0000 0060 0000 6000 301b  I3.@.p...`..`.0.
00008d40: 0002 3a7e 6137 0160 0000 7e3b 437e 3702  ..:~a7.`..~;C~7.
00008d50: 6000 007e 073b 7e37 0360 0000 0f7e 3b24  `..~.;~7.`...~;$
00008d60: 3604 6000 1c00 160a 7e37 0560 3c00 007e  6.`.....~7.`<..~
00008d70: 0b7e 3706 7860 0000 7e0b 7e37 7007 6000  .~7.x`..~.~7p.`.
00008d80: 007e 0b7e 6137 0860 0000 7e0b 437e 3709  .~.~a7.`..~.C~7.
00008d90: 6000 007e 550b 0036 000a 5336 7a52 2e5d  `..~U..6..S6zR.]
00008da0: 3229 227e 612f 0a60 0000 7e23 3a4e 2e4a  2)"~a/.`..~#:N.J
00008db0: 1a7e 250b 7860 0000 7e1b 1024 000c 6000  .~%.x`..~..$..`.
00008dc0: 0030 3020 5c00 5918 7e2f 5a1c 437e 370d  .00 \.Y.~/Z.C~7.
00008dd0: 6000 007e 5d19 292e 7e1d 3136 2a2a 1c4b  `..~].).~.16**.K
00008de0: 2431 1a3b 5532 6b18 461e 700a 7e3a 2e2a  $1.;U2k.F.p.~:.*
00008df0: 1a7e 332b 071e 7e25 0e60 0000 3b7e 1b31  .~3+..~%.`..;~.1
00008e00: 327e 1f37 5524 2d16 4836 310a 3a52 2e79  2~.7U$-.H61.:R.y
00008e10: 107e 337b 070a 7e25 0f60 0000 7f7e 117e  .~3{..~%.`...~.~
00008e20: 337e 0b7e 6125 1060 0000 7e11 2e07 327e  3~.~a%.`..~...2~
00008e30: 0b08 2411 0860 0000 4070 0000 0000 6000  ..$..`..@p....`.
00008e40: 0001 6000 0000 0260 0000 0360 0000 0004  ..`....`...`....
00008e50: 6000 0005 5060 0000 007e 0c16 2200 7e0c  `...P`...~..".~.
00008e60: 7a00 7e0c 4508 187e 407a 187e 2a39 0818  z.~.E..~@z.~*9..
00008e70: 7e39 1654 557e 1308 547e 1b12 2254 7e17  ~9.TU~..T~.."T~.
00008e80: 786c 7e04 5508 6c7e 0916 6c7e 080b 7a78  xl~.U.l~..l~..zx
00008e90: 7e0a 7e78 557e 0f08 787e 0a1a 3b04 7e09  ~.~xU~..x~..;.~.
00008ea0: 1204 7e0a 6678 107e 267a 107e 2e26 0810  ..~.fx.~&z.~.&..
00008eb0: 7e26 1606 1060 0000 017e 0c7a 2a01 7e0c  ~&...`...~.z*.~.
00008ec0: 0801 7e0b 4516 187e 297a 197e 2a25 1619  ..~.E..~)z.~*%..
00008ed0: 7e25 0840 557e 0908 417e 0a12 2241 7e0b  ~%.@U~..A~.."A~.
00008ee0: 784f 7e0c 547a 507e 0a16 507e 2a09 0860  xO~.TzP~..P~*..`
00008ef0: 7e1a 0860 517e 117e 607e 101a 2a70 7e0a  ~..`Q~.~`~..*p~.
00008f00: 1670 7e0b 647a 7f7e 0878 007e 6e08 1200  .p~.dz.~.x.~n...
00008f10: 7e09 080e 597e 1678 0f7e 1408 3b0f 7e15  ~...Y~.x.~..;.~.
00008f20: 1226 7e15 6708 267e 1774 267e 0215 1007  .&~.g.&~.t&~....
00008f30: 6000 0000 557e 0816 007e 0808 2200 7e08  `...U~...~..".~.
00008f40: 7a18 7e41 547a 187e 3a08 187e 0a3b 1654  z.~ATz.~:..~.;.T
00008f50: 7e18 7854 557e 1512 547e 1308 226c 7e0a  ~.xTU~..T~.."l~.
00008f60: 7a6c 7e0c 5516 787e 0b1a 787e 680c 7e78  zl~.U.x~..x~h.~x
00008f70: 7e06 0804 597e 0878 047e 0a12 3b10 7e26  ~...Y~.x.~..;.~&
00008f80: 1610 7e27 167a 107e 2708 0860 2800 0000  ..~'.z.~'..`(...
00008f90: 7e2e 0800 517e 2f7a 007e 2d16 2a00 7e2e  ~...Q~/z.~-.*.~.
00008fa0: 0200 7e30 4474 307e 317e 307e 2831 7830  ..~0Dt0~1~0~(1x0
00008fb0: 7e2b 1030 157e 2b08 607e 2c7a 2a60 7e30  ~+.0.~+.`~,z*`~0
00008fc0: 0260 7e30 7510 607e 3008 107e 6c2b 7e10  .`~0u.`~0..~l+~.
00008fd0: 7e2c 0611 057e 2c0c 0960 0000 6600 7e2f  ~,...~,..`..f.~/
00008fe0: 7c00 7e2e 5d10 007e 2d06 007e 072e 0040  |.~.]..~-..~...@
00008ff0: 7000 0000 1060 0000 007e 0c7a 2200 7e0c  p....`...~.z".~.
00009000: 6c00 7e0c 5508 187e 3908 187e 0839 7a18  l.~.U..~9..~.9z.
00009010: 7e40 6c54 517e 176a 547e 1b04 2254 7e13  ~@lTQ~.jT~.."T~.
00009020: 7a6c 7e0b 546c 6c7e 0908 6c7e 2804 7a78  zl~.Tll~..l~(.zx
00009030: 7e0a 0c78 117e 0f7a 787e 0a70 3304 7e0a  ~..x.~.zx~.p3.~.
00009040: 6a04 7e09 7704 107e 2608 107e 0c26 7a10  j.~.w..~&..~.&z.
00009050: 7e26 6c01 0060 0000 0260 0000 2200 7e08  ~&l..`...`..".~.
00009060: 6c00 7e08 547a 007e 0808 187e 0a3b 0818  l.~.Tz.~...~.;..
00009070: 7e3a 7a18 117e 416c 547e 137a 2a54 7e16  ~:z..~AlT~.z*T~.
00009080: 0454 7e18 546a 6c7e 0c08 6c7e 080a 6c78  .T~.Tjl~..l~..lx
00009090: 7e06 7a78 517e 0c70 787e 0b0c 3b04 7e0a  ~.zxQ~.px~..;.~.
000090a0: 0404 7e08 666a 107e 277a 107e 2c27 6c10  ..~.fj.~'z.~,'l.
000090b0: 7e26 0803 1060 0000 007e 3066 2200 7e2e  ~&...`...~0f".~.
000090c0: 7400 7e2d 4508 007e 2f6c 017e 082d 7a30  t.~-E..~/l.~.-z0
000090d0: 7e2b 7a30 157e 2b02 307e 316a 2230 7e31  ~+z0.~+.0~1j"0~1
000090e0: 7060 7e30 547a 607e 3002 607e 4830 7460  p`~0Tz`~0.`~H0t`
000090f0: 7e2c 6c10 197e 2d7e 107e 2c78 0311 7e2a  ~,l..~-~.~,x..~*
00009100: 7004 6000 4c00 007e 2e72 007e 392d 7800  p.`.L..~.r.~9-x.
00009110: 7e2e 0200 037e 2f6e 0560 0000 2a00 7e0c  ~....~/n.`..*.~.
00009120: 1200 7e0c 5504 007e 0c20 187e 2a39 2018  ..~.U..~. .~*9 .
00009130: 7e39 1218 557e 4004 547e 1702 2a54 7e1b  ~9..U~@.T~..*T~.
00009140: 1c54 7e13 5512 6c7e 0b04 6c7e 2a09 206c  .T~.U.l~..l~*. l
00009150: 7e04 1278 557e 0a24 787e 0f12 3a78 7e0a  ~..xU~.$x~..:x~.
00009160: 0804 7e0a 7702 047e 091c 107e 6e26 2010  ..~.w..~...~n& .
00009170: 7e26 1210 057e 2604 0660 0000 2a01 7e0c  ~&...~&..`..*.~.
00009180: 0401 7e0b 5520 017e 0c12 187e 2a29 0419  ..~.U .~...~*)..
00009190: 7e25 1219 557e 2520 407e 0912 2a41 7e0b  ~%..U~% @~..*A~.
000091a0: 0241 7e0a 551c 4f7e 0c04 507e 2a0a 2050  .A~.U.O~..P~*. P
000091b0: 7e09 1260 557e 1108 607e 1a12 2a60 7e10  ~..`U~..`~..*`~.
000091c0: 2470 7e0b 5504 707e 0a20 7f7e 6e08 0200  $p~.U.p~. .~n...
000091d0: 7e09 1200 5d7e 081c 0e7e 1602 3b0f 7e15  ~...]~...~..;.~.
000091e0: 1c0f 7e14 6712 267e 177e 267e 2e15 1226  ..~.g.&~.~&~...&
000091f0: 7e15 1a07 5060 0000 007e 0804 2a00 7e08  ~...P`...~..*.~.
00009200: 1200 7e08 5520 187e 3b20 187e 2a3a 1218  ..~.U .~; .~*:..
00009210: 7e41 0454 557e 1312 547e 151c 2a54 7e18  ~A.TU~..T~..*T~.
00009220: 026c 7e0c 5520 6c7e 0a04 787e 2a06 1278  .l~.U l~..x~*..x
00009230: 7e0c 0878 5d7e 0b24 047e 0a1c 3b04 7e08  ~..x]~.$.~..;.~.
00009240: 0210 7e27 7712 107e 2704 107e 0226 2008  ..~'w..~'..~.& .
00009250: 6000 0000 517e 307e 007e 2e0c 2a00 7e2d  `...Q~0~.~..*.~-
00009260: 2000 7e2f 5504 017e 2d12 307e 2a2b 1230   .~/U..~-.0~*+.0
00009270: 7e2b 1a30 557e 3102 307e 3108 2a60 7e30  ~+.0U~1.0~1.*`~0
00009280: 1260 7e30 551a 607e 300c 607e 6e2c 0410  .`~0U.`~0.`~n,..
00009290: 7e2d 1610 5d7e 2c10 117e 2a08 6009 6000  ~-..]~,..~*.`.`.
000092a0: 0000 7e2e 5d0a 007e 2d10 007e 7b2e 1a00  ..~.]..~-..~{...
000092b0: 7e2f 0640 0070 0000 0060 0000 2001 6000  ~/.@.p...`.. .`.
000092c0: 0000 2e12 5516 0c3e 1020 0c3c 2a14 0818  ....U..>. .<*...
000092d0: 381a 0c24 553a 1616 3050 1320 2a30 4e11  8..$U:..0P. *0N.
000092e0: 083c 6212 550c 4856 1520 4850 2a16 1654  .<b.U.HV. HP*..T
000092f0: 620f 0860 5560 100c 6c66 1520 2a6c 6413  b..`U`..lf. *ld.
00009300: 1678 6a10 7708 046a 0e0c 1056 6e13 2a10  .xj.w..j...Vn.*.
00009310: 4c1b 2010 5d5a 1916 1c6e 1208 7b28 6c0d  L. .]Z...n..{(l.
00009320: 0c34 567e 7f29 3458 7e17 343e 437e 2102  .4V~.)4X~.4>C~!.
00009330: 6000 007e 5d57 7128 7e59 7316 2b7e 3f6f  `..~]Wq(~Ys.+~?o
00009340: 200c 5073 0108 0360 0000 0460 2800 0030   .Ps...`...`(..0
00009350: 6c07 0236 555c 0706 3c62 0602 2a42 6a07  l..6U\..<b..*Bj.
00009360: 0660 6a06 551a 665a 061e 6c58 6a06 1a72  .`j.U.fZ..lXj..r
00009370: 5a07 1e10 5d70 0832 287e 084a 2005 6000  Z...]p.2(~.J .`.
00009380: 0000 7008 5538 0052 072e 006a 2a08 2018  ..p.U8.R...j*. .
00009390: 722d 2018 555e 292e 186a 2a38 2a56 6c12  r- .U^)..j*8*Vl.
000093a0: 3456 5613 552e 566c 181c 6e5a 2a09 206f  4VV.U.Vl..nZ*. o
000093b0: 5618 387a 5566 0824 7b40 063c 3a7d 2e0c  V.8zUf.${@.<:}..
000093c0: 2e04 4207 7734 0664 081c 1274 6e15 2012  ..B.w4.d...tn. .
000093d0: 7815 3812 055a 152e 0660 0000 2007 6000  x.8..Z...`.. .`.
000093e0: 0000 7409 5538 0064 072e 016c 2a08 2018  ..t.U8.d...l*. .
000093f0: 7232 3818 5574 3320 1a62 2e2e 2a54 5c15  r28.Ut3 .b..*T\.
00009400: 2e54 7217 551c 5666 1234 563a 2a05 386e  .Tr.U.Vf.4V:*.8n
00009410: 6609 206f 555a 1138 7a48 083c 2a7a 6a07  f. oUZ.8zH.<*zj.
00009420: 247c 2e0d 772e 0534 0734 0662 6e07 1c10  $|..w..4.4.bn...
00009430: 720e 2010 5d78 0e38 1050 0d2e 2008 6000  r. .]x.8.P.. .`.
00009440: 0030 6431 5520 3064 311a 3064 6a2b 3230  .0d1U 0d1.0dj+20
00009450: 642b 2a10 5d64 2b20 1064 2c28 0b10 642d  d+*.]d+ .d,(..d-
00009460: 2e09 6000 5c00 0064 2f1e 0064 7b2e 3200  ..`.\..d/..d{.2.
00009470: 642d 2840 0070 0000 0060 0000 0001 6000  d-(@.p...`....`.
00009480: 0002 6000 0000 0360 0000 0460 0800 0018  ..`....`...`....
00009490: 6407 781e 1156 077c 2458 0678 222a 6406  d.x..V.|$X.x"*d.
000094a0: 7c48 6607 5510 4e5a 0714 5462 2a06 105a  |Hf.U.NZ..Tb*..Z
000094b0: 5e05 1478 5564 0728 7e60 072c 3b04 6407  ^..xUd.(~`.,;.d.
000094c0: 280a 5c07 772c 1078 0d32 287e 0208 4a05  (.\.w,.x.2(~..J.
000094d0: 6000 0006 5060 0000 0164 0c1c 2a01 640b  `...P`...d..*.d.
000094e0: 3801 640c 552a 1864 291c 1964 2a25 2a19  8.d.U*.d)..d*%*.
000094f0: 6425 3840 5564 092a 4164 0b1a 2a41 640a  d%8@Ud.*Ad..*Ad.
00009500: 344f 640c 551c 5064 0a38 5064 2a09 2a60  4Od.U.Pd.8Pd*.*`
00009510: 6411 2060 5564 1a2a 6064 103c 2a70 640b  d. `Ud.*`d.<*pd.
00009520: 1c70 640a 7538 7f64 081a 0064 6e09 2a00  .pd.u8.d...dn.*.
00009530: 6408 340e 5d64 161a 0f64 1534 3b0f 6414  d.4.]d...d.4;.d.
00009540: 2a26 6417 7716 2664 152a 2664 0215 3207  *&d.w.&d.*&d..2.
00009550: 6000 0008 5060 0000 0064 2e2a 2a00 642f  `...P`...d.**.d/
00009560: 1c00 642d 5538 0064 2e24 0064 2a30 1660  ..d-U8.d.$.d*0.`
00009570: 642c 1c60 5564 3024 6064 3032 3a60 6430  d,.`Ud0$`d02:`d0
00009580: 2a10 642b 7720 1064 2c28 1164 022c 2e09  *.d+w .d,(.d.,..
00009590: 6000 0000 7764 2e32 0064 2d28 1e00 642e  `...wd.2.d-(..d.
000095a0: 2240 7000 4000 0060 0000 303c 2e4b 1010  "@p.@..`..0<.K..
000095b0: 3c30 1001 5060 0000 303c 3810 3b04 3c05  <0..P`..0<8.;.<.
000095c0: 1010 3c30 4110 0260 0000 303c 2e45 1010  ..<0A..`..0<.E..
000095d0: 3c28 1003 5060 0000 303c 4410 3b10 3c1b  <(..P`..0<D.;.<.
000095e0: 1034 3c05 4110 0460 0000 003c 2304 1005  .4<.A..`...<#...
000095f0: 600d 4006 4460 0d40 0760 0d40 2008 6000  `.@.D`.@.`.@ .`.
00009600: 0000 3c06 5510 1a3c 0110 203c 2a01 1025  ..<.U..<.. <*..%
00009610: 3c01 102b 553c 0210 323c 0210 2a49 3c02  <..+U<..2<..*I<.
00009620: 104e 3c02 5510 543c 0210 5b3c 2a02 1063  .N<.U.T<..[<*..c
00009630: 3c03 1079 553c 0210 7f3c 0210 3b04 3c02  <..yU<...<..;.<.
00009640: 100a 3c02 7710 133c 0310 2a3c 4e00 102c  ..<.w..<..*<N..,
00009650: 3c04 782f 1d3c 0210 3342 0878 3b35 3c02  <.x/.<..3B.x;5<.
00009660: 103b 3c02 0710 3e62 0278 0960 2800 0000  .;<...>b.x.`(...
00009670: 3806 1030 5538 0510 3c3c 0510 2a48 4204  8..0U8..<<..*HB.
00009680: 1054 4604 5510 604c 0410 6c38 2805 606c  .TF.U.`L..l8(.`l
00009690: 5008 1078 1556 0310 7842 0560 3304 4c05  P..x.V..xB.`3.L.
000096a0: 6004 5a04 6710 1056 0560 1060 4e04 101c  `.Z.g..V.`.`N...
000096b0: 6004 601c 1d6a 0410 286a 0660 3b28 7403  `.`..j..(j.`;(t.
000096c0: 1034 7405 1660 347a 0310 0a60 2800 0001  .4t..`4z...`(...
000096d0: 7e03 1001 517e 0660 1436 0a24 2a27 3408  ~...Q~.`.6.$*'4.
000096e0: 2438 500b 5524 4a5e 0c24 5f72 6a14 247f  $8P.U$J^.$_rj.$.
000096f0: 3410 241d 0d34 1724 4070 0000 2000 6000  4.$..4.$@p.. .`.
00009700: 0000 320c 5516 003c 0c08 0040 2a0c 2418  ..2.U..<...@*.$.
00009710: 3a39 2418 5538 3916 1836 4008 2a54 3817  :9$.U89..6@.*T8.
00009720: 0654 2e1b 5520 5424 1316 6c34 2a0b 086c  .T..U T$..l4*..l
00009730: 3209 246c 552a 0416 783c 0a28 2a78 220f  2.$lU*..x<.(*x".
00009740: 1678 2e0a 770c 0430 0a06 0432 6e09 2010  .x..w..0...2n. .
00009750: 3426 2410 5d34 2616 1038 2608 0001 6000  4&$.]4&..8&...`.
00009760: 0002 6000 5400 002c 0808 0034 2a08 1600  ..`.T..,...4*...
00009770: 3a08 2418 553c 3b24 1834 3a16 2a18 3841  :.$.U<;$.4:.*.8A
00009780: 0854 3413 5516 543a 1620 543a 2a18 066c  .T4.U.T:. T:*..l
00009790: 340c 246c 553a 0a08 7822 0616 2a78 340c  4.$lU:..x"..*x4.
000097a0: 0c78 440b 7728 0444 0a20 0438 6e08 0610  .xD.w(.D. .8n...
000097b0: 3827 1610 5d3a 2708 1032 2624 2003 6000  8'..]:'..2&$ .`.
000097c0: 0000 3630 5502 0034 2e10 0028 2a2d 2400  ..60U..4...(*-$.
000097d0: 342f 0800 5534 2e16 3036 2b16 2a30 402b  4/..U4..06+.*0@+
000097e0: 1e30 4031 5506 303a 310c 6036 2a30 1660  .0@1U.0:1.`6*0.`
000097f0: 3c30 1e60 553a 3010 6036 2c08 3b10 462d  <0.`U:0.`6,.;.F-
00009800: 1a10 3c2c 1714 113a 2a0c 0460 3800 0000  ..<,...:*..`8...
00009810: 3c2e 0e00 7738 2d14 0030 2e1e 0e00 3c2f  <...w8-..0....</
00009820: 0a05 6000 5400 0032 0124 003c 2a00 1600  ..`.T..2.$.<*...
00009830: 400c 3200 5532 0c16 013c 0c08 2a01 400b  @.2.U2...<..*.@.
00009840: 2418 3a39 5532 1838 0024 1836 2a00 1618  $.:9U2.8.$.6*...
00009850: 3a39 2419 5538 3c16 1936 3f08 2a54 3817  :9$.U8<..6?.*T8.
00009860: 1454 2e1b 552e 5424 1324 5438 2a17 0654  .T..U.T$.$T8*..T
00009870: 2e1b 2055 5524 1216 6c34 0116 2a6c 3209  .. UU$..l4..*l2.
00009880: 326c 2a00 5524 6c34 0b08 6c32 2a09 246d  2l*.U$l4..l2*.$m
00009890: 2a0a 1678 553c 0a36 7822 0f24 2a78 2e0a  *..xU<.6x".$*x..
000098a0: 1a78 3c0a 5528 7822 0f16 792e 6e09 0c04  .x<.U(x"..y.n...
000098b0: 300a 1404 5d32 092e 0430 0a06 3b04 3209  0...]2...0..;.2.
000098c0: 2010 3426 7732 1034 0024 1038 6e00 1610   .4&w2.4.$.8n...
000098d0: 3426 2411 5d34 2516 1138 2508 2006 6000  4&$.]4%..8%. .`.
000098e0: 0001 4800 5516 0148 0c08 0138 2a0b 3201  ..H.U..H...8*.2.
000098f0: 3400 2401 5538 0c24 0134 0c16 2a18 3a01  4.$.U8.$.4..*.:.
00009900: 1618 3a29 5508 1938 0024 1936 2a25 3219  ..:)U..8.$.6*%2.
00009910: 3827 1619 5536 2524 402e 0924 2a40 2e09  8'..U6%$@..$*@..
00009920: 1641 4e0b 5514 4140 0a2e 414e 2a0b 0641  .AN.U.A@..AN*..A
00009930: 400a 204f 5540 0116 4f40 0c08 2a50 3e0a  @. OU@..O@..*P>.
00009940: 3250 3e00 5524 503e 0a24 503e 2a0b 1660  2P>.U$P>.$P>*..`
00009950: 3c11 1a60 5536 1124 603c 110c 2a60 3610  <..`U6.$`<..*`6.
00009960: 1660 4410 5536 6044 1028 7044 2a0b 1670  .`D.U6`D.(pD*..p
00009970: 480a 3271 5544 0a08 7148 0924 2a7f 4208  H.2qUD..qH.$*.B.
00009980: 147f 4208 7706 0038 0924 0042 6e08 2e00  ..B.w..8.$.Bn...
00009990: 3809 1600 5d42 0820 0e4c 1614 3b0e 4c16  8...]B. .L..;.L.
000099a0: 060f 3c15 772e 0f38 1424 0f3c 6e15 200f  ..<.w..8.$.<n. .
000099b0: 3814 1626 5d44 1710 262c 1524 3b26 4417  8..&]D..&,.$;&D.
000099c0: 0226 2c15 7716 264c 152c 264c 0215 1e07  .&,.w.&L.,&L....
000099d0: 6000 0000 5540 0016 0034 0124 2a00 3a08  `...U@...4.$*.:.
000099e0: 3200 4008 5508 0134 0716 013a 2a07 2418  2.@.U..4...:*.$.
000099f0: 3c3b 3218 5534 0024 1838 0016 2a18 3c3b  <;2.U4.$.8..*.<;
00009a00: 2419 343b 5516 1938 4008 5434 2a13 2454  $.4;U..8@.T4*.$T
00009a10: 3a15 2e54 553a 1814 5434 1316 2a54 3a15  :..TU:..T4..*T:.
00009a20: 2055 3a17 5506 6c34 0c32 6c3a 2a0a 166c   U:.U.l4.2l:*..l
00009a30: 340c 246c 553a 0a08 7822 0624 2a78 340c  4.$lU:..x".$*x4.
00009a40: 1a78 440b 5536 7922 0516 7934 6a0b 0c79  .xD.U6y"..y4j..y
00009a50: 440a 2804 5d44 0a2e 0438 0814 3b04 440a  D.(.]D...8..;.D.
00009a60: 2004 3808 7706 1038 0124 103a 6e00 1610   .8.w..8.$.:n...
00009a70: 3226 3210 5d38 2716 103a 2708 0b11 3226  2&2.]8'..:'...2&
00009a80: 2408 6000 5400 0036 0110 0034 2a2e 1e00  $.`.T..6...4*...
00009a90: 282d 3200 5534 0116 0034 0124 2a01 362f  (-2.U4...4.$*.6/
00009aa0: 0201 342f 5510 0128 2d24 0134 2a2e 0801  ..4/U..(-$.4*...
00009ab0: 342e 1630 5536 2b24 3040 2b2c 2a30 4031  4..0U6+$0@+,*0@1
00009ac0: 1430 3a31 551a 3036 2b16 3140 2a2a 1e31  .0:1U.06+.1@**.1
00009ad0: 4030 0631 553a 300c 6036 3024 2a60 3c30  @0.1U:0.`60$*`<0
00009ae0: 2c60 3a01 551e 6036 0016 6136 2a30 1661  ,`:.U.`6..a6*0.a
00009af0: 3c30 1e61 553a 3010 6136 2b08 3b10 462d  <0.aU:0.a6+.;.F-
00009b00: 2810 3c2c 7722 113a 001a 1146 6e2c 1a11  (.<,w".:...Fn,..
00009b10: 3c2b 1411 053a 2a0c 0960 0000 6e00 3c2e  <+...:*..`..n.<.
00009b20: 1c00 382d 5d22 0030 2e2c 003c 3b2e 0e00  ..8-]".0.,.<;...
00009b30: 382d 1401 7730 2d1e 013c 2e0a 000a 6000  8-..w0-..<....`.
00009b40: 0060 3018 7c00 7e42 7e1d 054a 7f7e 150c  .`0.|.~B~..J.~..
00009b50: 387e 070d 3f3a 7e0b 124c 7e73 0716 4a7e  8~..?:~..L~s..J~
00009b60: 690b 6000 7e00 7e43 7e1d 7e4b 7f7e 157e  i.`.~.~C~.~K.~.~
00009b70: 397e 077e 3f3b 7e0b 7e4d 7e73 077e 4b7e  9~.~?;~.~M~s.~K~
00009b80: 690c 6000 7e00 7e43 7e1d 7e4b 7f7e 157e  i.`.~.~C~.~K.~.~
00009b90: 397e 077e 3f3b 7e0b 7e4d 7e73 077e 4b7e  9~.~?;~.~M~s.~K~
00009ba0: 690d 6000 7e00 7e43 3c1c 7e4b 7f3d 147e  i.`.~.~C<.~K.=.~
00009bb0: 393e 067e 3f3b 3e0a 7e4d 3c72 177e 4b3f  9>.~?;>.~M<r.~K?
00009bc0: 6840 7000 6000 0060 0000 1a38 6e11 0226  h@p.`..`...8n..&
00009bd0: 3e0d 0632 7f3a 7e09 3f3c 7e0d 3001 6000  >..2.:~.?<~.0.`.
00009be0: 007e 3b04 1f08 7e3d 7e0d 0260 7c00 007e  .~;...~=~..`|..~
00009bf0: 3d0d 0c29 7d3c 0e10 3546 7e15 3003 6000  =..)}<..5F~.0.`.
00009c00: 007e 4706 5514 034c 3816 354a 6a2e 145f  .~G.U..L8.5Jj.._
00009c10: 4236 0c12 073a 7e11 0460 0000 6b7e 3b03  B6...:~..`..k~;.
00009c20: 1004 3c14 410e 0560 0000 0362 5925 6e03  ..<.A..`...bY%n.
00009c30: 6a29 5628 1956 0e52 2958 126a 7334 6a0b  j)V(.V.R)X.js4j.
00009c40: 4c34 507e 0e65 3f66 7e49 0660 5c00 007e  L4P~.e?f~I.`\..~
00009c50: 6712 487e 3151 0364 0344 0160 330e 561c  g.H~1Q.d.D.`3.V.
00009c60: 4c10 621a 6e64 2652 7e6b 2956 5d7e 533e  L.b.nd&R~k)V]~S>
00009c70: 567e 573f 0358 7e6f 0760 0000 337e 5303  V~W?.X~o.`..3~S.
00009c80: 6a7e 571f 6656 7e59 146e 7e57 0803 5222  j~W.fV~Y.n~W..R"
00009c90: 467f 5c25 1958 7874 2042 0e52 3321 4a0c  F.\%.Xxt B.R3!J.
00009ca0: 6a2c 420d 6656 2e5a 086e 3c66 1d7e 533c  j,B.fV.Z.n<f.~S<
00009cb0: 587e 7108 1860 0000 7e67 3352 237e 5935  X~q..`..~g3R#~Y5
00009cc0: 702d 6032 4456 2f60 3574 5d66 4837 585e  p-`2DV/`5t]fH7X^
00009cd0: 5838 7810 1952 2b5c 1050 1f7c 6009 6000  X8x..R+\.P.|`.`.
00009ce0: 0030 380b 4d04 3038 097c 3038 190a 7230  .08.M.08.|08..r0
00009cf0: 3809 6e30 0338 0c50 3a20 0100 003d 2000  8.n0.8.P: ...= .
00009d00: 006d 2001 0000 6e20 0200 6f20 0003 0070  .m ...n ..o ...p
00009d10: 2005 0071 0020 0700 7220 0a00 0073 200d   ..q. ..r ...s .
00009d20: 0075 200f 0000 7620 1100 7720 0013 0078  .u ...v ..w ...x
00009d30: 2016 0079 0020 1900 7a20 1c00 007c 201f   ..y. ..z ...| .
00009d40: 007d 2021 0000 7e20 2400 7f20 4427 0000  .} !..~ $.. D'..
00009d50: 2029 0001 0820 2c00 0320 2f00 1104 2032   )... ,.. /... 2
00009d60: 0005 2036 2200 0720 3d00 0820 4440 000a  .. 6".. =.. D@..
00009d70: 2043 000b 0820 4600 0c20 4900 110d 204d   C... F.. I... M
00009d80: 000f 2050 2200 1020 5400 1120 4457 0012  .. P".. T.. DW..
00009d90: 205a 0013 0820 5c00 1520 5f00 1116 2062   Z... \.. _... b
00009da0: 0017 2067 2200 1820 6a00 1920 446f 001a  .. g".. j.. Do..
00009db0: 2074 001b 0820 7900 1d20 7d00 111e 207f   t... y.. }... .
00009dc0: 003d 2059 2200 3e20 1600 4070 0000 0000  .= Y".> ..@p....
00009dd0: 6000 0001 5060 0000 514a 1002 2a51 6609  `...P`..QJ..*Qf.
00009de0: 1a56 560e 4452 566a 096a 6166 2a0f 0861  .VV.DRVj.jaf*..a
00009df0: 6c0b 2064 1174 0d58 656e 1570 2a6f 6c0d  l. d.t.Xen.p*ol.
00009e00: 0c6f 660c 4524 726c 0c5c 735e 680c 747f  .of.E$rl.\s^h.t.
00009e10: 6a09 2000 1d66 0a08 0272 0b58 3304 640b  j. ..f...r.X3.d.
00009e20: 700d 6e0a 770c 0e6e 0a24 1174 4c0d 5c13  p.n.w..n.$.tL.\.
00009e30: 6a0b 741d 5d60 0a0c 1e72 0924 3b2c 6409  j.t.]`...r.$;,d.
00009e40: 3c2d 7e11 665c 2d72 1074 2e7e 2e0d 0c2e  <-~.f\-r.t.~....
00009e50: 7e0e 2402 0060 0000 0360 0000 2200 362b  ~.$..`...`..".6+
00009e60: 6e30 3831 6470 603c 3074 1034 0026 6e04  n081dp`<0t.4.&n.
00009e70: 6000 0000 5334 0772 4e46 0a14 224e 3c0d  `...S4.rNF.."N<.
00009e80: 7c5e 5a16 751e 5e58 1606 0f58 6e09 2c0f  |^Z.u.^X...Xn.,.
00009e90: 6a0a 142e 5d64 0614 2e62 072c 7f3e 5c7e  j...]d...b.,.>\~
00009ea0: 153f 6a7e 612d 0560 0000 7e5d 2e3f 147e  .?j~a-.`..~].?.~
00009eb0: 6b3f 2c02 3356 2a56 0364 226e 2a4f 5a11  k?,.3V*V.d"n*OZ.
00009ec0: 164f 5c0f 552e 5f5e 1024 5f5a 4e17 0c28  .O\.U._^.$_ZN..(
00009ed0: 560d 5229 3966 0c6a 356a 7e4d 0737 6a7e  V.R)9f.j5j~M.7j~
00009ee0: 6506 6000 6600 7e6b 044c 7e6b 1804 6403  e.`.f.~k.L~k..d.
00009ef0: 6c0e 4803 5366 0660 1e6a 071a 2a1e 5609  l.H.Sf.`.j..*.V.
00009f00: 022e 6a0b 5520 2e56 0d08 3f64 2a08 0c3f  ..j.U .V..?d*..?
00009f10: 6a08 244f 556e 0824 4f72 060c 330e 6a1a  j.$OUn.$Or..3.j.
00009f20: 4c0f 5617 7720 0f46 1708 1060 4c19 6427  L.V.w .F...`L.d'
00009f30: 5c17 5228 5b5c 7e6b 2e66 090c 7b2e 720a  \.R([\~k.f..{.r.
00009f40: 243d 647e 6e57 3e5a 7e6f 3f62 3f7e 2d3f  $=d~nW>Z~o?b?~-?
00009f50: 667e 1507 1860 0000 7e5d 026a 337e 5b17  f~...`..~].j3~[.
00009f60: 6e7e 651d 7656 7e63 452c 7e67 0a43 1424  n~e.vV~cE,~g.C.$
00009f70: 6c75 5c25 516e 6d74 4e6c 0e16 2a4e 600f  lu\%QnmtNl..*N`.
00009f80: 2e4e 5a13 750c 4f5e 0824 1d56 4c0a 4c1d  .NZ.u.O^.$.VL.L.
00009f90: 640a 641f 5d56 0a1a 1f4a 0902 332a 660f  d.d.]V...J..3*f.
00009fa0: 4e2b 6a0b 7666 2f3c 0c1e 2f52 3e0c 063e  N+j.vf/<../R>..>
00009fb0: 447e 3d08 5860 0000 7e45 273c 2200 5e30  D~=.X`..~E'<".^0
00009fc0: 5200 622b 546a 0064 2c24 006c 2a2c 0c2e  R.b+Tj.d,$.l*,..
00009fd0: 4225 3830 1162 3156 306a 2b6e 2a30 622b  B%80.b1V0j+n*0b+
00009fe0: 0830 6e29 5520 5e3c 2636 606c 0837 5860  .0n)U ^<&6`l.7X`
00009ff0: 6c3a 7060 555a 2a06 6060 2b1e 3b0e 4624  l:p`UZ*.``+.;.F$
0000a000: 3210 6e2b 665c 106a 2674 105a 6e27 1a10  2.n+f\.j&t.Zn'..
0000a010: 5c2e 023f 7f56 7e1d 3f5e 7e15 7f3f 467e  \..?.V~.?^~..?F~
0000a020: 0b3f 567e 6107 0960 0000 7e57 7f3d 1c7e  .?V~a..`..~W.=.~
0000a030: 5f3b 147e 7f47 3c0a 7e57 3c06 1e2f 5809  _;.~.G<.~W<../X.
0000a040: 0040 7000 0000 0060 0000 0160 0000 0002  .@p....`...`....
0000a050: 6000 0003 0060 0000 0460 0000 0005 6000  `....`...`....`.
0000a060: 0006 6000 0000 0760 0000 0860 0000 0009  ..`....`...`....
0000a070: 6000 000a 0060 0000 0b60 0000 0f3a 2a7e  `....`...`...:*~
0000a080: 2b0c 6000 5e00 7e2b 7e2b 0032 3b7e 2d09  +.`.^.~+~+.2;~-.
0000a090: 307e 350d 7860 0000 7e2b 7e2b 7f7e 337e  0~5.x`..~+~+.~3~
0000a0a0: 2d7e 317e 6135 0e60 0000 7e2b 6e0d 2a7e  -~1~a5.`..~+n.*~
0000a0b0: 330d 2c7e 0d31 0d34 4070 0000 0000 6000  3.,~.1.4@p....`.
0000a0c0: 0001 6000 0000 0260 0000 0360 0000 0004  ..`....`...`....
0000a0d0: 6000 0005 0060 0000 0660 0000 0007 6000  `....`...`....`.
0000a0e0: 0008 6000 0000 0960 0000 0a60 4000 000b  ..`....`...`@...
0000a0f0: 6000 0033 7f2a 7e1d 3932 7e1f 700c 6000  `..3.*~.92~.p.`.
0000a100: 007e 2b7e 5f1d 7e33 7e1f 0230 437e 270d  .~+~_.~3~..0C~'.
0000a110: 6000 007e 7f2b 7e1d 7e33 7e1f 0f7e 317e  `..~.+~.~3~..~1~
0000a120: 270e 6000 7600 7e2b 061c 7e33 6e06 1e7e  '.`.v.~+..~3n..~
0000a130: 3106 2640 0070 0000 0060 0000 0001 6000  1.&@.p...`....`.
0000a140: 0000 302d 1600 2f74 0424 0260 0000 0003  ..0-../t.$.`....
0000a150: 6000 0003 5552 1d0c 3464 1908 3a63 6a13  `...UR..4d..:cj.
0000a160: 0610 6414 4102 0460 0000 0264 024b 0605  ..d.A..`...d.K..
0000a170: 6000 0006 0060 0000 0760 0000 2008 6000  `....`...`.. .`.
0000a180: 0005 6e19 550c 346e 1608 656e 2e13 0615  ..n.U.4n..en....
0000a190: 7808 0209 5060 0000 357a 040a 0110 3025  x...P`..5z....0%
0000a1a0: 000a 6000 4400 006e 0368 0652 0805 680e  ..`.D..n.h.R..h.
0000a1b0: 5803 6816 1138 0368 1d64 0368 2223 4603  X.h..8.h.d.h"#F.
0000a1c0: 682c 6e05 4468 3434 0368 3c6c 0803 6844  h,n.Dh44.h<l..hD
0000a1d0: 3003 684b 116a 0468 536a 0468 125b 6c03  0.hK.j.hSj.h.[l.
0000a1e0: 6840 7000 4000 0060 0000 0042 0a06 2201  h@p.@..`...B..".
0000a1f0: 7e06 6001 557a 0310 183a 0522 2a24 3405  ~.`.Uz...:."*$4.
0000a200: 2230 5a4d 5528 3052 0622 4840 2a04 2254  "0ZMU(0R."H@*."T
0000a210: 3804 2260 5542 0522 7840 0422 3b04 3404  8."`UB."x@.";.4.
0000a220: 2210 6005 7728 104a 0522 1c4e 6e11 2828  ".`.w(.J.".Nn.((
0000a230: 3c04 2234 053a 0422 0160 0000 2a00 4804  <."4.:.".`..*.H.
0000a240: 2218 4004 5522 243c 0422 3056 2a1c 2830  ".@.U"$<."0V*.(0
0000a250: 4e04 2248 553c 0422 543e 0322 2a60 5004  N."HU<."T>."*`P.
0000a260: 2278 3a04 7722 0446 0428 0440 6e04 2210  "x:.w".F.(.@n.".
0000a270: 6412 2810 5d4e 0422 2844 0422 0b34 3e04  d.(.]N."(D.".4>.
0000a280: 2202 6000 5400 0046 0422 1844 2a04 2224  ".`.T..F.".D*."$
0000a290: 4003 2230 5556 4d28 3044 0422 2a48 4204  @."0UVM(0D."*HB.
0000a2a0: 2254 4203 5522 6046 0422 784e 6e04 2204  "TB.U"`F."xNn.".
0000a2b0: 4203 2210 5d52 2228 1044 0422 3b28 4604  B.".]R"(.D.";(F.
0000a2c0: 2234 3c03 4122 0360 0000 004e 2a04 2218  "4<.A".`...N*.".
0000a2d0: 4404 2224 553e 0322 304e 0422 2a48 3a04  D."$U>."0N."*H:.
0000a2e0: 2260 4406 7522 7844 0422 043e 6e04 2210  "`D.u"xD.".>n.".
0000a2f0: 4c04 2228 5d40 0422 3438 0222 2004 6000  L."(]@."48." .`.
0000a300: 0000 340e 5510 003c 0222 183c 2a0f 1030  ..4.U..<.".<*..0
0000a310: 440e 1048 555c 0e10 6062 0d10 3a78 660c  D..HU\..`b..:xf.
0000a320: 1010 720f 6710 254e 0578 285a 4e05 102d  ..r.g.%N.x(ZN..-
0000a330: 4e0a 7834 1d62 0610 3b6e 0478 2005 6000  N.x4.b..;n.x .`.
0000a340: 0000 5652 5460 004e 0522 0378 2873 7818  ..VRT`.N.".x(sx.
0000a350: 3a03 2224 553a 0422 306a 5014 2a30 5004  :."$U:."0jP.*0P.
0000a360: 2248 4204 5522 5442 0422 6056 2855 6060  "HB.U"TB."`V(U``
0000a370: 5204 2278 5d44 0322 0440 0322 3b10 6630  R."x]D.".@.";.f0
0000a380: 1410 5604 7722 284e 0522 343a 0203 2206  ..V.w"(N."4:..".
0000a390: 6000 0000 5152 5560 0048 0422 2a18 5604  `...QRU`.H."*.V.
0000a3a0: 2224 4c03 5522 3064 4d14 305a 2a04 2248  "$L.U"0dM.0Z*."H
0000a3b0: 3e03 2254 1544 0322 6048 5560 2a60 5204  >."T.D."`HU`*`R.
0000a3c0: 2278 4804 7722 0434 0314 043e 6e02 2210  "xH.w".4...>n.".
0000a3d0: 6430 1410 5d44 0422 2856 0322 0b34 5804  d0..]D."(V.".4X.
0000a3e0: 2207 6000 4400 0056 5860 0058 2a05 2218  ".`.D..VX`.X*.".
0000a3f0: 4203 2224 5544 0322 305c 5014 2a30 5604  B."$UD."0\P.*0V.
0000a400: 2248 4c03 5522 544a 0322 603c 2855 6060  "HL.U"TJ."`<(U``
0000a410: 5604 2278 5d52 0322 044e 0322 3b10 602a  V."x]R.".N.";.`*
0000a420: 1410 4403 7722 284c 0322 3448 0203 2208  ..D.w"(L."4H..".
0000a430: 6000 0000 5130 2860 0058 0422 2a18 4604  `...Q0(`.X."*.F.
0000a440: 2224 4003 5522 3052 0422 483c 2a04 2254  "$@.U"0R."H<*."T
0000a450: 3c03 2260 554c 0522 7840 0322 3b04 4c04  <."`UL."x@.";.L.
0000a460: 2210 5004 7722 2850 0422 343e 2c0c 7234  ".P.w"(P."4>,.r4
0000a470: 4e03 2209 3060 0000 005a 1076 2600 6c0e  N.".0`...Z.v&.l.
0000a480: 7800 5804 0322 4070 0000 0060 4c00 0003  x.X.."@p...`L...
0000a490: 380b 7e09 5d48 0702 0b2c 0706 7b0e 4409  8.~.]H...,..{.D.
0000a4a0: 0814 427e 610d 0160 0000 7e43 6e7c 0c03  ..B~a..`..~Cn|..
0000a4b0: 3406 1005 5d34 0612 0744 0c16 0f0f 447e  4...]4...D....D~
0000a4c0: 1b02 6000 5600 7e45 061a 0338 0332 1603  ..`.V.~E...8.2..
0000a4d0: 6000 0004 0060 0000 0560 0000 0006 6000  `....`...`....`.
0000a4e0: 0007 6000 5400 0e58 0a0c 1a40 2a08 1625  ..`.T..X...@*..%
0000a4f0: 5607 1a31 056c 151a 3320 2900 0034 205f  V..1.l..3 )..4 _
0000a500: 0035 2071 0000 3620 5700 3720 002e 0037  .5 q..6 W.7 ...7
0000a510: 1060 4738 0020 1400 3810 5754 0039 200b  .`G8. ..8.WT.9 .
0000a520: 0039 1055 005f 3a10 5c68 3a20 000f 003b  .9.U._:.\h: ...;
0000a530: 1079 6b3b 0020 1400 3c10 446e 003c 201a  .yk;. ..<.Dn.< .
0000a540: 003d 103d 0070 3d20 2200 3e10 0062 713e  .=.=.p= ".>..bq>
0000a550: 2028 003f 0010 0873 3f20 2c00 0040 102d   (.?...s? ,..@.-
0000a560: 7440 202f 0000 4120 2a00 4210 0052 7542  t@ /..A *.B..RuB
0000a570: 2013 0043 0020 0000 4510 1166 2047 1006   ..C. ..E..f G..
0000a580: 4947 3e0b 011a 4810 0040 4b20 000b 004c  IG>...H..@K ...L
0000a590: 2005 004d 5020 0000 5566 5216 0058 2006   ..MP ..UfR..X .
0000a5a0: 0059 2024 0000 5a20 3200 5b20 0035 005c  .Y $..Z 2.[ .5.\
0000a5b0: 2039 005d 0020 4a00 5f20 5100 0060 2055   9.]. J._ Q..` U
0000a5c0: 0062 205b 0000 6520 5f00 6620 0062 0067  .b [..e _.f .b.g
0000a5d0: 2068 0068 0020 7200 6920 7f00 1105 2069   h.h. r.i .... i
0000a5e0: 0006 205e 2200 0720 5900 0820 4454 0009  .. ^".. Y.. DT..
0000a5f0: 2040 000a 0820 2900 0b20 0700 010c 2000   @... ).. .... .
0000a600: 0008 6000 5400 0d52 0b06 1860 2a08 0c24  ..`.T..R...`*..$
0000a610: 5606 102f 5578 0b16 3b42 0510 2a46 6009  V../Ux..;B..*F`.
0000a620: 0c52 3406 5506 6058 060c 6b6a 0207 0c6d  .R4.U.`X..kj...m
0000a630: 1009 686f 0010 7e7f 7010 7f7f 0073 1062  ..ho..~.p....s.b
0000a640: 7174 1038 405c 7510 0040 7850 6e08 0c03  qt.8@\u..@xPn...
0000a650: 3a06 060e 1d4a 0e02 1a3a 0e7e 7b27 5a08  :....J...:.~{'Z.
0000a660: 0233 727e 2307 3520 0b00 3620 441e 0037  .3r~#.5 ..6 D..7
0000a670: 2004 0038 0820 0000 3d20 0e00 113e 2030   ..8. ..= ...> 0
0000a680: 003f 2062 6000 0960 0000 7e73 0215 0600  .? b`..`..~s....
0000a690: 207b 0001 0020 7f00 1020 7300 0011 2032   {... ... s... 2
0000a6a0: 0012 2005 4000 1320 0000 1658 0a0a 0222  .. .@.. ...X..."
0000a6b0: 5c15 7e45 5562 090c 4c40 0b10 0a55 6437  \.~EUb..L@...Ud7
0000a6c0: 0c69 2004 0000 6a20 1300 6b20 002d 006c  .i ...j ..k .-.l
0000a6d0: 204c 006d 0020 6500 6e20 7c00 106f 207f   L.m. e.n |..o .
0000a6e0: 0005 2079 2200 0620 5800 0720 4433 0008  .. y".. X.. D3..
0000a6f0: 2014 0009 0820 0100 0a20 0000 3b1a 5e0b   .... ... ..;.^.
0000a700: 0c24 460a 7716 2e50 081a 3d4e 0202 1a0a  .$F.w..P..=N....
0000a710: 6000 0000 0564 161e 0820 0500 0009 2013  `....d... .... .
0000a720: 000a 2024 0000 0b20 3300 0c20 0039 000d  .. $... 3.. .9..
0000a730: 2041 000f 0020 3800 1020 2400 0011 2010   A... 8.. $... .
0000a740: 0012 2001 4000 1320 0000 1650 2a08 1a22  .. .@.. ...P*.."
0000a750: 3e06 162d 5562 0b1a 3b3c 0810 2a47 6407  >..-Ub..;<..*Gd.
0000a760: 1653 781b 0116 5520 0b00 5620 002c 0057  .Sx...U ..V .,.W
0000a770: 203d 0058 0020 2d00 5920 1100 205a 2000   =.X. -.Y .. Z .
0000a780: 006d 5007 7510 7950 080c 053a 6e04 0612  .mP.u.yP...:n...
0000a790: 5203 0c16 5d54 070e 225e 0b0c 0b31 380a  R...]T.."^...18.
0000a7a0: 060b 6000 5400 0246 0704 0656 0273 0625  ..`.T..F...V.s.%
0000a7b0: 2001 0027 0020 0300 2820 0600 0029 200b   ..'. ..( ...) .
0000a7c0: 002a 2011 0000 2b20 1800 2c20 0020 002d  .* ...+ .., . .-
0000a7d0: 2035 002e 0020 3e00 2f20 4a00 0030 2055   5... >./ J..0 U
0000a7e0: 0031 205d 0000 3220 6700 3320 0070 0034  .1 ]..2 g.3 .p.4
0000a7f0: 2078 0035 0020 7f00 6720 7200 0068 204b   x.5. ..g r..h K
0000a800: 0069 2022 0000 6a20 0500 6c20 6c00 0015  .i "..j ..l l...
0000a810: 5208 021b 5d4a 0c06 253c 0d02 1731 527e  R...]J..%<...1R~
0000a820: 7f3a 2003 2200 3b20 0800 3c20 4410 003d  .: .".; ..< D..=
0000a830: 2016 003e 0820 2000 3f20 2d00 300c 6000   ..>.  .? -.0.`.
0000a840: 007e 533c 007e 0020 3800 0120 0045 0002  .~S<.~. 8.. .E..
0000a850: 204c 0003 0020 5200 0420 5700 0005 205c   L... R.. W... \
0000a860: 0006 2060 0000 0720 6700 0820 006b 0009  .. `... g.. .k..
0000a870: 2071 000a 0020 7600 0b20 7f00 0037 2055   q... v.. ...7 U
0000a880: 0038 2017 2000 3920 0000 0110 4425 4102  .8 . .9 ....D%A.
0000a890: 1015 4503 0810 0649 0410 514b 1105 1041  ..E....I..QK...A
0000a8a0: 4f06 1057 2254 0710 405a 0810 4403 5f09  O..W"T..@Z..D._.
0000a8b0: 104e 610a 0810 1166 0b10 5c68 110c 1001  .Na....f..\h....
0000a8c0: 6a0d 1079 226b 0e10 446e 0f10 446a 6f11  j..y"k..Dn..Djo.
0000a8d0: 100f 7113 0810 3572 1610 5a73 1118 1025  ..q...5r..Zs...%
0000a8e0: 7619 104b 6277 1a10 167a 1b6c 4615 0c1b  v..Kbw...z.lF...
0000a8f0: 1061 7c1d 0810 2b7f 1f10 7f7f 1124 1043  .a|...+......$.C
0000a900: 7925 1001 226a 2610 414f 2710 6c00 4031  y%.."j&.AO'.l.@1
0000a910: 3c0b 063f 073e 7e0d 0d60 0000 2b7e 3f0b  <..?.>~..`..+~?.
0000a920: 0c19 6209 5510 252e 0616 2e44 2a09 1a3a  ..b.U.%....D*..:
0000a930: 3807 1045 0548 091a 5210 7841 0a53 6009  8..E.H..R.xA.S`.
0000a940: 1a53 1014 0050 5410 305e 5510 0009 6856  .S...PT.0^U...hV
0000a950: 1017 6f59 0010 3667 5a10 555f 005c 1067  ..oY..6gZ.U_.\.g
0000a960: 505e 1076 144c 5e34 0d1a 5f10 000e 4760  P^.v.L^4.._...G`
0000a970: 1000 406c 554c 0b16 7838 0810 1b02 6028  ..@lUL..x8....`(
0000a980: 160e 2009 2200 0f20 3600 1120 4458 0012  .. .".. 6.. DX..
0000a990: 206b 0013 0820 7f00 2220 5300 1123 2021   k... .." S..# !
0000a9a0: 0024 2000 1600 292e 0610 0e60 2800 0039  .$ ...)....`(..9
0000a9b0: 520c 0c4a 5558 0c0e 5b40 0e12 2a6c 4c0a  R..JUX..[@..*lL.
0000a9c0: 167c 640c 771a 0d6c 0d1c 1e56 6e0a 1a2d  .|d.w..l...Vn..-
0000a9d0: 600a 1c3a 074a 7e1b 0f60 0000 2b7e 4b04  `..:.J~..`..+~K.
0000a9e0: 1a04 460b 551c 0e40 081a 163a 2a09 1c1e  ..F.U..@...:*...
0000a9f0: 4607 1a25 553c 081c 2c40 071a 2a32 420a  F..%U<..,@..*2B.
0000aa00: 1c3b 4406 551a 4140 091c 4a44 2a07 1a50  .;D.U.A@..JD*..P
0000aa10: 3a06 1c57 553c 061a 5f3a 0b16 2a6a 340b  :..WU<.._:..*j4.
0000aa20: 1278 380b 3f0e 062c 7e0d 1020 4402 0011  .x8.?..,~.. D...
0000aa30: 200c 0012 0820 1a00 1320 3300 1114 203f   .... ... 3... ?
0000aa40: 0015 2049 2200 1620 5500 1720 4460 0018  .. I".. U.. D`..
0000aa50: 206b 0019 0820 7600 1a20 7f00 3010 6000   k... v.. ..0.`.
0000aa60: 007e 2d30 010c 2a20 6800 2b20 0045 002c  .~-0..* h.+ .E.,
0000aa70: 2020 002d 0820 0000 4070 0000 2000 6000    .-. ..@p.. .`.
0000aa80: 0000 3a1d 4d16 0040 2b7e 0044 2a22 1e00  ..:.M..@+~.D*"..
0000aa90: 4025 0c24 553e 2910 2450 1e16 2a24 422a  @%.$U>).$P..*$B*
0000aaa0: 2048 3a0c 5516 4852 0e1e 483c 2a18 0c60   H:.U.HR..H<*..`
0000aab0: 5250 1060 573c 7e09 603c 541a 0a60 3a51  RP.`W<~.`<T..`:Q
0000aac0: 1201 6000 5600 7e3d 0108 003e 284b 7e00  ..`.V.~=...>(K~.
0000aad0: 5825 0c00 5538 1e16 0056 241e 2a24 4a24  X%..U8...V$.*$J$
0000aae0: 1024 5024 5520 2452 1916 4834 2a08 1648  .$P$U $R..H4*..H
0000aaf0: 4e08 1e48 154e 0a0c 602c 5f74 2a60 3c59  N..H.N..`,_t*`<Y
0000ab00: 0860 2805 550c 6042 5312 6c2a 024f 1a02  .`(.U.`BS.l*.O..
0000ab10: 6000 0000 733a 137e 0056 2c0c 3e00 3e2f  `...s:.~.V,.>.>/
0000ab20: 1610 522d 0e7c 344e 7e79 0360 1c00 007e  ..R-.|4N~y.`...~
0000ab30: 4f0f 7800 773c 2608 003a 2e0c 3e00 402e  O.x.w<&..:..>.@.
0000ab40: 1610 442c 0e74 3440 7e71 0460 1c00 007e  ..D,.t4@~q.`...~
0000ab50: 4110 7000 373a 0d08 004c 317e 6a00 467b  A.p.7:...L1~j.F{
0000ab60: 0c00 3801 6716 1046 286e 103c 6e21 0c10  ..8.g..F(n.<n!..
0000ab70: 1a1b 1634 033e 7e6b 0560 0000 237e 3f27  ...4.>~k.`..#~?'
0000ab80: 6a00 522f 5478 0050 3108 0040 0a27 1630  j.R/Tx.P1..@.'.0
0000ab90: 5033 6e30 5148 247e 3052 260c 2a30 3c2e  P3n0QH$~0R&.*0<.
0000aba0: 1660 4a32 4470 6044 257e 603c 6a2e 0860  .`J2Dp`D%~`<j..`
0000abb0: 4429 0c04 593c 2174 103c 2302 3b10 4026  D)..Y<!t.<#.;.@&
0000abc0: 0c10 5625 4110 0660 0000 0052 284f 7818  ..V%A..`...R(Ox.
0000abd0: 3841 0624 554a 3e10 3c44 2a14 2254 5236  8A.$UJ>.<D*."TR6
0000abe0: 7860 4838 5506 6c3a 2c10 7842 6e3a 1404  x`H8U.l:,.xBn:..
0000abf0: 5029 1e10 5952 1778 1c46 1606 7b28 4c14  P)..YR.x.F..{(L.
0000ac00: 1034 427e 611f 0760 0000 7e43 0a01 1e00  .4B~a..`..~C....
0000ac10: 5254 7e18 553c 2a0c 244e 3216 2a3c 5633  RT~.U<*.$N2.*<V3
0000ac20: 1e54 3e0e 450c 605a 527e 6c46 6a37 0c6c  .T>.E.`ZR~lFj7.l
0000ac30: 243a 1604 5d4c 1f20 1c50 221e 7b28 3a10  $:..]L. .P".{(:.
0000ac40: 0c34 3e7e 6117 0860 0000 7e3f 0a01 1600  .4>~a..`..~?....
0000ac50: 5257 7818 553e 2a08 244e 2c0c 2e3c 4a7e  RWx.U>*.$N,..<J~
0000ac60: 1754 361c 5d08 543c 7e0d 6058 4a1b 1e78  .T6.].T<~.`XJ..x
0000ac70: 5237 7804 5d50 1720 103a 1d08 0f28 527e  R7x.]P. .:...(R~
0000ac80: 1f09 6000 7600 7e53 0f1e 7e3d 2e02 0c7e  ..`.v.~S..~=...~
0000ac90: 4b01 1600 1152 5370 184a 4d7e 2a24 383e  K....RSp.JM~*$8>
0000aca0: 083c 4237 550c 543a 2716 6052 0840 706c  .<B7U.T:'.`R.@pl
0000acb0: 404c 7e78 5d3c 2c08 0456 350c 3b1c 3c1c  @L~x]<,..V5.;.<.
0000acc0: 1628 5a0f 406e 0a60 0000 0036 2821 6a00  .(Z.@n.`...6(!j.
0000acd0: 4225 0800 5150 2578 0040 2f16 2230 3c32  B%..QP%x.@/."0<2
0000ace0: 6e30 5a2a 5502 3044 290c 303c 0822 7e60  n0Z*U.0D).0<."~`
0000acf0: 4032 7060 5142 2c7e 604c 2c0c 3a60 4c27  @2p`QB,~`L,.:`L'
0000ad00: 0810 401c 7674 1036 2202 1036 2e21 0c10  ..@.vt.6"..6.!..
0000ad10: 5020 100b 1060 0000 0034 577a 2a18 3630  P ...`...4Wz*.60
0000ad20: 0224 3647 5516 3c40 2d0c 5444 0a11 0260  .$6GU.<@-.TD...`
0000ad30: 4c49 7a6c 5542 2802 7840 220c 3b04 4224  LIzlUB(.x@".;.B$
0000ad40: 161c 4e17 7702 283e 160c 343c 020a 160c  ..N.w.(>..4<....
0000ad50: 6000 0000 5148 5478 0c36 3606 2a18 3623  `...QHTx.66.*.6#
0000ad60: 0824 4240 5516 3c3e 2a08 5436 1a0b 0660  .$B@U.<>*.T6...`
0000ad70: 567e 796c 5540 1d06 7842 2008 3b04 4225  V~ylU@..xB .;.B%
0000ad80: 1610 340e 7706 1c3c 1f08 2836 3e14 0634  ..4.w..<..(6>..4
0000ad90: 327e 170d 1860 0000 7e57 0278 2b7e 3304  2~...`..~W.x+~3.
0000ada0: 1600 4034 547a 0c3e 3202 1840 2a4f 0c24  ..@4Tz.>2..@*O.$
0000adb0: 3a3f 163c 5138 1c7a 5438 0e02 2660 3c7e  :?.<Q8.zT8..&`<~
0000adc0: 7b6c 3a2c 7d02 7832 7e0d 0444 7e1e 161c  {l:,}.x2~..D~...
0000add0: 447e 0334 0732 7e17 0e60 0000 3b7e 4502  D~.4.2~..`..;~E.
0000ade0: 027e 3d01 767a 7e33 020c 7e33 0a06 1600  .~=.vz~3..~3....
0000adf0: 5054 760c 552c 3204 2438 4b16 2a3c 4026  PTv.U,2.$8K.*<@&
0000ae00: 0c54 320d 4504 6052 5a76 6c36 7a24 0478  .T2.E.`RZvl6z$.x
0000ae10: 3c7e 1704 5d3c 160c 1034 0204 7f28 3a7e  <~..]<...4...(:~
0000ae20: 0d34 367e 6105 0f60 0000 7e3b 6e02 0c7e  .46~a..`..~;n..~
0000ae30: 3d09 167e 3537 0104 0048 7e77 6e0c 407e  =..~57...H~wn.@~
0000ae40: 0324 347e 1d0d 3c22 7e17 1060 6c00 007e  .$4~..<"~..`l..~
0000ae50: 410a 027e 5d35 090c 7e23 0c16 137e 4909  A..~]5..~#...~I.
0000ae60: 7640 7000 0000 0060 0000 0160 3c00 003f  v@p....`...`<..?
0000ae70: 327e 2502 5860 0000 7e33 0a24 2a19 2c3a  2~%.X`..~3.$*.,:
0000ae80: 2453 2e19 1520 6c2c 1824 7610 0078 4177  $S... l,.$v..xAw
0000ae90: 1057 5478 0010 6466 7910 7f7f 1106 1070  .WTx..dfy......p
0000aea0: 7807 1003 225f 0810 0649 0910 6c00 400a  x..."_...I..l.@.
0000aeb0: 1407 2011 7d3a 1a24 3e30 7e25 3003 6000  .. .}:.$>0~%0.`.
0000aec0: 007e 3106 5524 1830 2424 3c2a 2a10 204b  .~1.U$.0$$<**. K
0000aed0: 3830 245a 0010 1450 5b10 1166 005c 1068  80$Z...P[..f.\.h
0000aee0: 7a5d 107f 007f 6b10 4379 6c10 007c 556d  z]....k.Cyl..|Um
0000aef0: 1000 407c 5d34 0820 0f2c 1720 7b24 3816  ..@|]4. .,. {$8.
0000af00: 1e3c 307e 6125 0460 0000 7e31 2a04 2415  .<0~a%.`..~1*.$.
0000af10: 3040 2454 5534 1720 6a34 1424 0074 1076  0@$TU4. j4.$.t.v
0000af20: 4c75 1073 0062 7610 5275 7710 6c7f 7f02  Lu.s.bv.Ruw.l...
0000af30: 340d 2004 0810 5a73 0510 555f 3106 1000  4. ...Zs..U_1...
0000af40: 400f 2c22 7724 3234 051e 364c 3e08 203d  @.,"w$24..6L>. =
0000af50: 347e 2505 5860 0000 7e35 2c24 2a2a 3a26  4~%.X`..~5,$**:&
0000af60: 1e5c 3632 3f1e 0c36 7e1b 3b10 444a 423c  .\62?..6~.;.DJB<
0000af70: 1051 4b3d 0810 2a55 3e10 035f 013f 1027  .QK=..*U>.._.?.'
0000af80: 6b06 6000 1e00 7e37 241a 0010 004b 7701  k.`...~7$....Kw.
0000af90: 107e 7f02 0810 7f7f 2b10 7078 112c 1079  .~......+.px.,.y
0000afa0: 6b2d 1046 2263 2e10 655b 2f10 444f 5630  k-.F"c..e[/.DOV0
0000afb0: 1039 5131 0810 764c 3210 6047 1133 101d  .9Q1..vL2.`G.3..
0000afc0: 4334 1000 4040 0760 0000 0026 3f2d 3229  C4..@@.`...&?-2)
0000afd0: 227e 3708 5860 0000 7e23 0336 3a02 1e7e  "~7.X`..~#.6:..~
0000afe0: 2e0d 2230 632e 3e10 3c3b 3f30 077e 3d3f  .."0c.>.<;?0.~=?
0000aff0: 107a 2b09 7860 0000 7e31 0f3c 0000 103f  .z+.x`..~1.<...?
0000b000: 2502 1047 0023 0510 1226 0610 0027 2b07  %..G.#...&...'+.
0000b010: 1010 3108 0010 5335 0910 4439 000a 100f  ..1...S5..D9....
0000b020: 3c0b 105a 603e 0c10 0040 0d2e 3e2f 383f  <..Z`>...@..>/8?
0000b030: 0a7e 370a 5860 0000 7e0b 2f36 2a2e 2c32  .~7.X`..~./6*.,2
0000b040: 3261 1c32 172e 122a 2b2c 0b60 7800 0004  2a.2...*+,.`x...
0000b050: 167e 2938 0810 7f3f 3910 623c 113a 101e  .~)8...?9.b<.:..
0000b060: 383c 1002 222a 3d10 1924 3e10 4031 1e0c  8<.."*=..$>.@1..
0000b070: 6000 007e 0717 2328 0110 0514 0002 102b  `..~..#(.......+
0000b080: 0a03 103b 0006 0410 4a02 0510 4400 0036  ...;....J...D..6
0000b090: 1015 0537 0810 6710 3810 6b2f 0139 1000  ...7..g.8.k/.9..
0000b0a0: 400d 6000 7c00 0026 3728 3414 437e 2b0e  @.`.|..&7(4.C~+.
0000b0b0: 6000 007e 7515 062a 001a 7e2f 700f 6000  `..~u..*..~/p.`.
0000b0c0: 007e 1b7e 5d2f 030a 7e2b 610a 437e 2110  .~.~]/..~+a.C~!.
0000b0d0: 6000 007e 5d1b 622e 7e0b 612a 1b7e 0b61  `..~].b.~.a*.~.a
0000b0e0: 2040 7000 0000 0060 0000 0160 0000 0002   @p....`...`....
0000b0f0: 6000 0001 5576 090c 1a76 360c 2a55 7614  `...Uv...v6.*Uv.
0000b100: 086d 760b 750c 7876 0a10 0376 2e07 080e  .mv.u.xv...v....
0000b110: 762b 0c03 5060 0000 0076 090c 2a18 7620  v+..P`...v..*.v 
0000b120: 0c3c 760b 5508 4c76 090c 5b76 2a12 106c  .<v.U.Lv..[v*..l
0000b130: 760e 0c7b 5d76 0808 0c76 1508 0b25 7610  v..{]v...v...%v.
0000b140: 0604 6000 5400 0076 0d0c 1a76 2a39 0c54  ..`.T..v...v*9.T
0000b150: 7615 086b 5576 070c 7776 0a10 3b02 7608  v..kUv..wv..;.v.
0000b160: 080d 761f 770c 2f76 0706 3676 3e08 083d  ..v.w./v..6v>..=
0000b170: 767e 0d05 5860 0000 7e77 300c 2a30 762f  v~..X`..~w0.*0v/
0000b180: 0660 7630 7706 1076 2e02 3f76 437e 0706  .`v0w..v..?vC~..
0000b190: 6000 007e 0f77 2f06 4070 0000 0000 6000  `..~.w/.@p....`.
0000b1a0: 0001 6000 0000 0260 0000 0360 0000 0004  ..`....`...`....
0000b1b0: 6000 0005 0060 0000 0660 0000 0734 727e  `....`...`...4r~
0000b1c0: 5d07 6000 4600 7e73 015c 0078 4d09 6610  ].`.F.~s.\.xM.f.
0000b1d0: 6219 6628 036a 7e65 0860 0000 237e 6b02  b.f(.j~e.`..#~k.
0000b1e0: 6400 6c7c 6660 044a 0560 106c 1c19 6028  d.l|f`.J.`.l..`(
0000b1f0: 6c7e 5d09 1860 0000 7e6d 025c 3600 780b  l~]..`..~m.\6.x.
0000b200: 5810 6c2d 0656 1052 0552 0a60 0800 0000  X.l-.V.R.R.`....
0000b210: 622b 5230 1178 3456 607e 3758 7310 6c22  b+R0.x4V`~7Xs.l"
0000b220: 5c34 4a7e 6061 0b60 0000 7e4b 1802 6000  \4J~`a.`..~K..`.
0000b230: 6a3c 620c 3060 0000 006c 2960 0334 5a0b  j<b.0`...l)`.4Z.
0000b240: 600d 6000 0c00 006c 3e62 0e60 1800 0000  `.`....l>b.`....
0000b250: 6c7e 5f0f 1860 0000 7e6d 105e 220c 340e  l~_..`..~m.^".4.
0000b260: 6c18 380d 4476 2434 0b6c 3028 080d 5e3c  l.8.Dv$4.l0(..^<
0000b270: 300d 6c48 113a 0d76 543a 0c6c 2260 320b  0.lH.:.vT:.l"`2.
0000b280: 5e6c 2a0d 646c 7834 0d76 0436 4c0c 6c10  ^l*.dlx4.v.6L.l.
0000b290: 3c0b 5e1c 1930 0c6c 2832 0b76 0334 300a  <.^..0.l(2.v.40.
0000b2a0: 6c10 6000 4400 0038 0a5e 0c32 080d 6c18  l.`.D..8.^.2..l.
0000b2b0: 360d 7624 1132 0d6c 3032 0c5e 223c 340f  6.v$.2.l02.^"<4.
0000b2c0: 6c48 3a0e 4476 5436 0c6c 6034 081b 5e6c  lH:.DvT6.l`4..^l
0000b2d0: 300e 6c78 1938 1376 0432 0e6c 3310 3e11  0.lx.8.v.2.l3.>.
0000b2e0: 5e1c 380f 666c 2836 0f76 3436 417e 6d11  ^.8.fl(6.v46A~m.
0000b2f0: 6000 007e 1137 036c 0034 115e 220c 340f  `..~.7.l.4.^".4.
0000b300: 6c18 3411 4476 2432 116c 3030 080e 5e3c  l.4.Dv$2.l00..^<
0000b310: 360e 6c48 1134 0d76 542c 0e6c 066c 347e  6.lH.4.vT,.l.l4~
0000b320: 5f12 6000 2600 7e35 055e 4070 4000 0000  _.`.&.~5.^@p@...
0000b330: 6000 0004 5932 374c 104c 3010 3310 6230  `...Y27L.L0.3.b0
0000b340: 7810 6430 165c 1c3e 2426 0160 5800 0000  x.d0.\.>$&.`X...
0000b350: 3a33 4c04 5d30 0636 1064 2336 0b10 3a30  :3L.]0.6.d#6..:0
0000b360: 2602 6000 4400 003a 0f72 0050 2928 4c30  &.`.D..:.r.P)(L0
0000b370: 5647 1430 1134 1f70 6034 1d70 3b10 5630  VG.0.4.p`4.p;.V0
0000b380: 1410 3a25 6670 1042 305c 3440 2c09 4c34  ..:%fp.B0\4@,.L4
0000b390: 3205 2203 1060 0000 003a 1f70 2600 5830  2."..`...:.p&.X0
0000b3a0: 4c00 4207 5522 305a 4c14 3030 4822 7060  L.B.U"0ZL.00H"p`
0000b3b0: 3420 7010 1d4a 3014 102c 2170 0310 6630  4 p..J0..,!p..f0
0000b3c0: 6004 6000 4400 0036 1f70 004c 392b 4c00  `.`.D..6.p.L9+L.
0000b3d0: 4628 2230 154c 4c14 3034 2370 3260 3023  F("0.LL.04#p2`0#
0000b3e0: 7010 5830 6714 1036 2470 1052 4c30 6034  p.X0g..6$p.RL0`4
0000b3f0: 2805 4c34 0534 0622 0560 0000 2200 3a24  (.L4.4.".`..".:$
0000b400: 7000 6059 544c 004a 3822 3046 0a56 1430  p.`YTL.J8"0F.V.0
0000b410: 3a24 7060 113c 2470 6020 404c 3a60 302c  :$p`.<$p` @L:`0,
0000b420: 2210 481d 0714 103a 2270 0660 0800 0000  ".H....:"p.`....
0000b430: 5231 6000 153c 1e10 003a 5170 2600 442e  R1`..<...:Qp&.D.
0000b440: 4c30 401b 5510 3c66 1b3a 6048 2a24 1060  L0@.U.<f.:`H*$.`
0000b450: 6217 3678 5d2a 0600 042a 0500 3b10 5227  b.6x]*...*..;.R'
0000b460: 1010 4405 765c 1038 0600 1c4c 6c05 5c1c  ..D.v\.8...Ll.\.
0000b470: 3e07 0028 595a 055c 2852 0a00 3334 5a05  >..(YZ.\(R..34Z.
0000b480: 7834 640c 065c 3430 047c 0760 0800 0000  x4d..\40.|.`....
0000b490: 6c0e 7800 115c 574c 0c18 0a7c 2224 3c04  l.x..\WL...|"$<.
0000b4a0: 7c30 601a 4510 3062 1070 3074 2852 5c30  |0`.E.0b.p0t(R\0
0000b4b0: 5811 0048 113c 0d70 605e 1270 2260 4e49  X..H.<.p`^.p"`NI
0000b4c0: 4c60 3817 647c 783a 0970 0436 6c08 7c10  L`8.d|x:.p.6l.|.
0000b4d0: 561b 1010 1966 0f70 1076 305c 3b10 4405  V....f.p.v0\;.D.
0000b4e0: 001c 4605 6700 2850 0870 286c 4e08 0034  ..F.g.(P.p(lN..4
0000b4f0: 660c 7634 1942 084c 3426 047c 2008 6000  f.v4.B.L4&.| .`.
0000b500: 0000 3e10 4470 0058 544c 0034 0808 7c18  ..>.Dp.XTL.4..|.
0000b510: 3e0b 7030 1556 2210 3072 1070 2230 764f  >.p0.V".0r.p"0vO
0000b520: 5c30 500f 4500 483a 0d70 6052 0812 7060  \0P.E.H:.p`R..p`
0000b530: 4460 4c60 112a 0b7c 7838 0b70 3304 6e03  D`L`.*.|x8.p3.n.
0000b540: 5c10 601e 6710 106c 1070 1042 6c04 5c10  \.`.g..l.p.Bl.\.
0000b550: 5e17 001c 194c 035c 283c 0e70 3328 5604  ^....L.\(<.p3(V.
0000b560: 5c34 6404 065c 3436 067c 0960 0800 0000  \4d..\46.|.`....
0000b570: 6210 7000 1166 235c 0042 0a7c 220c 602e  b.p..f#\.B.|".`.
0000b580: 780c 4c3e 444c 1834 0870 3042 0a50 1030  x.L>DL.4.p0B.P.0
0000b590: 6e10 7030 5178 555c 3052 1000 2248 360f  n.p0QxU\0R.."H6.
0000b5a0: 7054 3009 444c 5430 007c 543c 0805 7c60  pT0.DLT0.|T<..|`
0000b5b0: 5214 7060 1146 4f4c 7834 0d70 3b10 5830  R.p`.FOLx4.p;.X0
0000b5c0: 1010 6a0c 6670 1078 305c 105a 4e19 0028  ..j.fp.x0\.ZN..(
0000b5d0: 4007 7034 1958 0c76 3434 057c 200a 6000  @.p4.X.v44.| .`.
0000b5e0: 0000 5e0e 4470 004e 564c 0042 081f 7c18  ..^.Dp.NVL.B..|.
0000b5f0: 400e 7030 155a 3110 306c 1070 2230 784a  @.p0.Z1.0l.p"0xJ
0000b600: 5c30 661a 4500 482c 0c70 5434 0805 7c60  \0f.E.H,.pT4..|`
0000b610: 6011 7060 1152 354c 603c 177c 3278 300c  `.p`.R5L`<.|2x0.
0000b620: 7010 5c21 6710 1062 1070 1076 6c30 5c10  p.\!g..b.p.vl0\.
0000b630: 580f 001c 194a 104c 2826 0970 0334 4008  X....J.L(&.p.4@.
0000b640: 4c0b 6000 5400 0040 0d10 0052 192b 7800  L.`.T..@...R.+x.
0000b650: 422c 4c00 5132 207c 182e 0b10 2224 3a2c  B,L.Q2 |...."$:,
0000b660: 7c30 7e48 7460 6c14 1d22 0434 4c06 6410  |0~Ht`l..".4L.d.
0000b670: 3a06 6410 1d32 0722 1c44 0664 3b1c 3607  :.d..2.".D.d;.6.
0000b680: 2228 5c0a 7664 2840 0622 3450 2c07 4c34  "(\.vd(@."4P,.L4
0000b690: 5c06 220c 3060 0000 0066 354c 2200 4612  \.".0`...f5L".F.
0000b6a0: 7c00 5601 4522 242c 267c 307e 2808 6060  |.V.E"$,&|0~(.``
0000b6b0: 2e07 106c 553a 0610 6c20 0722 2a78 3c05  ...lU:..l ."*x<.
0000b6c0: 1078 300b 7722 0450 0710 0428 6c04 5c10  .x0.w".P...(l.\.
0000b6d0: 5208 1010 596c 095c 102c 0622 3b1c 5a06  R...Yl.\.,.";.Z.
0000b6e0: 101c 3406 7722 2864 0910 284e 6c04 5c28  ..4.w"(d..(Nl.\(
0000b6f0: 4008 2234 1964 0c5c 343a 077c 600d 6000  @."4.d.\4:.|`.`.
0000b700: 0000 5629 4c78 0060 384c 0050 2a06 0000  ..V)Lx.`8L.P*...
0000b710: 5209 2230 517e 0860 782a 0722 3b04 3406  R."0Q~.`x*.";.4.
0000b720: 3604 3206 7722 1062 2036 103a 6e00 2210  6.2.w".b 6.:n.".
0000b730: 3a06 221c 5d4a 0a22 3432 0c10 0334 2a05  :.".]J."42...4*.
0000b740: 7c0e 6000 4400 0040 1170 003e 0839 4c00  |.`.D..@.p.>.9L.
0000b750: 460d 7c0c 150a 0610 183a 0a70 2a24 4011  F.|......:.p*$@.
0000b760: 1024 5037 4460 2438 097c 3050 080f 7048  .$P7D`$8.|0P..pH
0000b770: 3a0c 7048 1138 3a4c 601e 0970 2a60 1a05  :.pH.8:L`..p*`..
0000b780: 226c 340d 4510 6c3e 3b60 7824 6806 7078  "l4.E.l>;`x$h.px
0000b790: 0e06 2204 1d2a 0822 1042 304c 3b10 3007  .."..*.".B0L;.0.
0000b7a0: 221c 4007 6722 2834 0a70 2846 4e06 2234  ".@.g"(4.p(FN."4
0000b7b0: 420c 6034 0544 0522 0f60 0000 2a00 3c06  B.`4.D.".`..*.<.
0000b7c0: 1000 4e0e 5470 0062 0122 003e 2812 7c0c  ..N.Tp.b.".>(.|.
0000b7d0: 3806 1018 153a 0610 184a 4470 2218 3c39  8....:...JDp".<9
0000b7e0: 4c24 4406 5510 305a 0b10 3c3c 082b 6060  L$D.U.0Z..<<.+``
0000b7f0: 3c3d 4c78 5930 0c70 042a 0610 3304 3c2e  <=LxY0.p.*..3.<.
0000b800: 6010 3606 6710 1036 0d70 1c3a 6e06 101c  `.6.g..6.p.:n...
0000b810: 2000 001c 5d20 0500 283a 0510 3328 3c18   ...] ..(:..3(<.
0000b820: 7028 3a18 764c 2826 0000 282e 6e04 0034  p(:.vL(&..(.n..4
0000b830: 3a05 1034 5d34 0000 342e 0400 2010 6000  :..4]4..4... .`.
0000b840: 0000 5a0c 5510 004c 0400 0c40 2863 760c  ..Z.U..L...@(cv.
0000b850: 3c00 000c 3550 0400 183a 1760 2a18 3800  <...5P...:.`*.8.
0000b860: 0018 3605 5500 243a 0500 301c 0a06 003c  ..6.U.$:..0....<
0000b870: 3275 4c3c 552e 0000 3c2e 0300 0a48 3808  2uL<U...<....H8.
0000b880: 0011 6000 3400 6c5c 5224 4070 0000 0000  ..`.4.l\R$@p....
0000b890: 6000 0001 0060 0000 0260 0000 0003 6000  `....`...`....`.
0000b8a0: 0004 6000 1000 0560 0040 0660 2200 0007  ..`....`.@.`"...
0000b8b0: 6000 4008 4460 0000 0960 0140 0140 7000  `.@.D`...`.@.@p.
0000b8c0: 0000 6000 1000 0160 0440 0260 2204 0003  ..`....`.@.`"...
0000b8d0: 6004 4004 4460 0400 0560 0440 0806 6004  `.@.D`...`.@..`.
0000b8e0: 0007 6004 1140 0860 0400 0960 0605 4040  ..`..@.`...`..@@
0000b8f0: 7000 0000 0060 0000 0160 0000 0002 6000  p....`...`....`.
0000b900: 0003 6000 0000 0460 0000 0560 0000 0006  ..`....`...`....
0000b910: 6000 0007 0060 0000 0860 0000 6009 6000  `....`...`..`.`.
0000b920: 0000 367e 5c6f 0134 7e07 3040 0a0c 1432  ..6~\o.4~.0@...2
0000b930: 3206 7c61 1542 4b14 6530 467c 7f28 407e  2.|a.BK.e0F|.(@~
0000b940: 1129 367e 6101 0a60 0000 7e37 7d31 6e7e  .)6~a..`..~7}1n~
0000b950: 357e 077e 5d41 2610 7e37 3500 2a19 3a17  5~.~]A&.~75.*.:.
0000b960: 142f 3a33 5478 3136 1618 483c 3a1d 1060  ./:3Tx16..H<:..`
0000b970: 407e 1562 0334 7e7d 0b60 0000 3b7e 3504  @~.b.4~}.`..;~5.
0000b980: 067e 3502 567c 7e41 0314 0330 397e 6f31  .~5.V|~A...09~o1
0000b990: 2c7e 0731 5532 1014 633a 4c14 0f2c 3a7e  ,~.1U2..c:L..,:~
0000b9a0: 110c 6000 6e00 7e31 306e 7e2d 2f7e 077e  ..`.n.~10n~-/~.~
0000b9b0: 3b1d 1016 5536 2714 3c2e 2718 0a61 325b  ;...U6'.<.'..a2[
0000b9c0: 140d 6000 5600 7e2d 0706 0d22 397e 6f41  ..`.V.~-..."9~oA
0000b9d0: 0e7e 0745 5d2a 1b14 0036 3d14 700e 6000  .~.E]*...6=.p.`.
0000b9e0: 007e 237e 5e6f 7e0f 7e07 0030 2a23 101e  .~#~^o~.~..0*#..
0000b9f0: 361a 1440 5532 1a18 612e 2a10 300f 6000  6..@U2..a.*.0.`.
0000ba00: 007e 2358 566e 7e0f 1406 422c 437e 1510  .~#XVn~...B,C~..
0000ba10: 6000 007e 0d2d 7b14 4070 0000 0000 6000  `..~.-{.@p....`.
0000ba20: 0001 6000 0000 0260 0000 0360 0000 0004  ..`....`...`....
0000ba30: 6000 0005 0060 0000 0660 0000 0007 6000  `....`...`....`.
0000ba40: 0008 6000 4000 0960 0000 3124 6a13 1462  ..`.@..`..1$j..b
0000ba50: 1e4a 1429 071c 7e11 0a60 0000 2b7e 1d1b  .J.)..~..`..+~..
0000ba60: 1018 2c17 5514 2e24 1618 4718 2a18 105e  ..,.U..$..G.*..^
0000ba70: 1c5a 140b 5060 0000 3222 1114 7a62 2050  .Z..P`..2"..zb P
0000ba80: 1431 1e7e 6111 0c60 0000 7e1f 2a1b 1019  .1.~a..`..~.*...
0000ba90: 2423 143b 7524 2418 6016 7e15 300d 6000  $#.;u$$.`.~.0.`.
0000baa0: 007e 1702 7514 460a 1a2c 0318 437e 2d0e  .~..u.F..,..C~-.
0000bab0: 6000 007e 5519 032c 0418 1d28 2a20 1c20  `..~U..,...(* . 
0000bac0: 2c3e 1e25 1530 651c 2628 0f60 3800 0042  ,>.%.0e.&(.`8..B
0000bad0: 147e 2d10 7860 0000 7e15 7e2d 3011 6000  .~-.x`..~.~-0.`.
0000bae0: 007e 1547 032c 4070 0000 0060 0000 0001  .~.G.,@p...`....
0000baf0: 6000 0002 0060 0000 0360 0000 0004 6000  `....`...`....`.
0000bb00: 0005 6000 0000 0660 0000 0760 0000 0008  ..`....`...`....
0000bb10: 6000 0009 7060 0000 0078 7e1b 700a 6000  `...p`...x~.p.`.
0000bb20: 007e 797e 611b 0b60 0000 7e79 437e 1b0c  .~y~a..`..~yC~..
0000bb30: 6000 007e 0f79 401a 4070 0000 0000 6000  `..~.y@.@p....`.
0000bb40: 0001 6000 0000 0260 0000 0360 0000 0004  ..`....`...`....
0000bb50: 6000 0005 0060 0000 0660 0000 0007 6000  `....`...`....`.
0000bb60: 0008 6000 4000 0960 0000 0078 437e 1f0a  ..`.@..`...xC~..
0000bb70: 6000 007e 0779 7e1f 0b60 0000 0f7e 797e  `..~.y~..`...~y~
0000bb80: 1f0c 6000 3e00 7e79 3f1e 4070 0000 0000  ..`.>.~y?.@p....
0000bb90: 6000 0001 4460 0040 0260 0000 0803 6000  `...D`.@.`....`.
0000bba0: 4004 6000 1100 0560 0040 0660 2200 0007  @.`....`.@.`"...
0000bbb0: 6000 4008 0c60 0000 4070 0000 0800 6008  `.@..`..@p....`.
0000bbc0: 4001 6009 1140 0260 0900 0360 220a 4004  @.`..@.`...`".@.
0000bbd0: 600a 0005 4460 0b40 0660 0b00 0807 600c  `...D`.@.`....`.
0000bbe0: 4008 600c 4100 0960 0000 007a 4808 5600  @.`.A..`...zH.V.
0000bbf0: 7e08 4a40 0070 0000 0060 0000 2200 6a03  ~.J@.p...`..".j.
0000bc00: 5400 6609 4456 0c52 0a56 186e 0808 6e24  T.f.DV.R.V.n..n$
0000bc10: 5206 5630 117a 076a 3c50 0656 2248 6e06  R.V0.z.j<P.V"Hn.
0000bc20: 6a54 6607 4456 606a 0864 6c58 4809 5678  jTf.DV`j.dlXH.Vx
0000bc30: 6c06 6804 196a 0856 1066 0964 331c 6406  l.h..j.V.f.d3.d.
0000bc40: 5628 7809 065c 346e 0c60 0160 0800 0000  V(x..\4n.`.`....
0000bc50: 6a07 560c 1160 0956 186c 076e 2224 5203  j.V..`.V.l.n"$R.
0000bc60: 5630 7806 446a 3c62 0356 483e 0805 6454  V0x.Dj<b.VH>..dT
0000bc70: 6404 5660 116e 0760 6c44 0356 3278 6207  d.V`.n.`lD.V2xb.
0000bc80: 6404 4004 6656 107e 0960 1c6c 4c08 5028  d.@.fV.~.`.lL.P(
0000bc90: 7408 5234 0974 0a54 4070 0000 2000 6000  t.R4.t.T@p.. .`.
0000bca0: 0000 7e0d 0256 4070 0000 0060 0800 0000  ..~..V@p...`....
0000bcb0: 6609 5a0c 1152 0a5a 186e 0872 2224 5206  f.Z..R.Z.n.r"$R.
0000bcc0: 5a30 7a07 446e 3c50 065a 486e 0806 6e54  Z0z.Dn<P.ZHn..nT
0000bcd0: 6607 5a60 116a 0868 6c58 095a 3278 6c06  f.Z`.j.hlX.Z2xl.
0000bce0: 6c04 6a08 665a 1066 0968 1c64 4c06 5a28  l.j.fZ.f.h.dL.Z(
0000bcf0: 7809 6034 016e 0c64 0160 0000 2200 6a07  x.`4.n.d.`..".j.
0000bd00: 5a0c 6009 445a 186c 0772 2452 0803 5a30  Z.`.DZ.l.r$R..Z0
0000bd10: 7806 6e3c 1162 035a 483e 0568 2254 6404  x.n<.b.ZH>.h"Td.
0000bd20: 5a60 6e07 4464 6c44 035a 7862 4c07 6804  Z`n.DdlD.ZxbL.h.
0000bd30: 4004 5a10 197e 0964 1c6c 0854 3328 7408  @.Z..~.d.l.T3(t.
0000bd40: 5634 740a 0258 4070 0000 0060 4800 0000  V4t..X@p...`H...
0000bd50: 7e0d 5a40 0070 0000 0060 0000 220c 7806  ~.Z@.p...`..".x.
0000bd60: 7c0c 7407 4506 3074 087c 306e 0a10 0660  |.t.E.0t.|0n...`
0000bd70: 6a08 7860 5566 0802 6c5a 0802 226c 5207  j.x`Uf..lZ.."lR.
0000bd80: 7878 4c06 7478 7856 0702 046e 4e0e 0204  xxL.txxV...nN...
0000bd90: 660c 781c 5d66 0f00 1c3a 0602 331c 2e05  f.x.]f...:..3...
0000bda0: 761c 2a0d 7e78 3478 7e03 346a 417e 7901  v.*.~x4x~.4jA~y.
0000bdb0: 6000 007e 1d79 0f02 7e6b 0778 2a0c 4009  `..~.y..~k.x*.@.
0000bdc0: 060c 6606 547c 306e 1106 306e 6c0d 7c1c  ..f.T|0n..0nl.|.
0000bdd0: 6c07 021c 1d72 070c 1c6c 087c 0140 7000  l....r...l.|.@p.
0000bde0: 0000 6000 4400 005a 057c 0058 0603 0640  ..`.D..Z.|.X...@
0000bdf0: 7000 0000 5060 0000 0c78 0600 2a0c 7407  p...P`...x..*.t.
0000be00: 0a30 7408 5500 306e 100a 606a 2808 7c60  .0t.U.0n..`j(.|`
0000be10: 6608 066c 155a 0806 6c52 077c 2278 4c06  f..l.Z..lR.|"xL.
0000be20: 7c78 5607 7706 046e 0e06 0466 6c0c 7c1c  |xV.w..n...fl.|.
0000be30: 660f 041c 1d3a 0606 1c2e 057a 731c 2a0d  f....:.....zs.*.
0000be40: 7c34 787e 0f07 346a 7e7d 0160 6c00 007e  |4x~..4j~}.`l..~
0000be50: 790f 067e 516b 077c 0c40 090a 2a0c 6606  y..~Qk.|.@..*.f.
0000be60: 0030 6e11 750a 306e 0d00 1c6c 6e07 061c  .0n.u.0n...ln...
0000be70: 7207 101c 0d6c 0800 4070 0000 2000 6000  r....l..@p.. .`.
0000be80: 0000 5a05 3500 0058 030a 4070 0000 0000  ..Z.5..X..@p....
0000be90: 6000 0000 117e 0356 0c72 0256 2218 6403  `....~.V.r.V".d.
0000bea0: 5624 6a03 4456 307e 0756 3c7e 0808 783c  V$j.DV0~.V<~..x<
0000beb0: 6e07 4a54 117e 0b78 546c 064a 326c 5605  n.JT.~.xTl.J2lV.
0000bec0: 4a04 6003 664a 0a60 034a 107e 4c06 7810  J.`.fJ.`.J.~L.x.
0000bed0: 7e0a 5610 1974 054a 3474 0156 0140 7000  ~.V..t.J4t.V.@p.
0000bee0: 0000 6000 4400 0078 134a 007e 0862 7824  ..`.D..x.J.~.bx$
0000bef0: 6005 4a2e 1558 0f10 307e 076e 2230 7e0b  `.J..X..0~.n"0~.
0000bf00: 5648 3e06 446e 544e 044a 607e 080a 6e60  VH>.DnTN.J`~..n`
0000bf10: 6c10 4a78 1960 0672 0458 044a 3310 7e0a  l.Jx.`.r.X.J3.~.
0000bf20: 7210 7e08 7656 1466 0b10 1c5a 4c06 4a28  r.~.vV.f...ZL.J(
0000bf30: 3008 7234 016c 0c4a 0160 0000 2200 7a0a  0.r4.l.J.`..".z.
0000bf40: 7224 4e04 444a 307e 0b72 307e 2809 5632  r$N.DJ0~.r0~(.V2
0000bf50: 780b 1048 114a 0672 5440 044a 2260 7a0d  x..H.J.rT@.J"`z.
0000bf60: 7260 6a17 644a 785a 0472 0466 4c05 4a10  r`j.dJxZ.r.fL.J.
0000bf70: 7807 7210 597e 0356 1174 0e10 331c 7e07  x.r.Y~.V.t..3.~.
0000bf80: 6e1c 7404 6656 286e 0256 3450 0403 5640  n.t.fV(n.V4P..V@
0000bf90: 7000 0000 1060 0000 007e 0f72 2200 7e08  p....`...~.r".~.
0000bfa0: 560c 6e0c 444a 186e 0572 2462 0805 4a30  V.n.DJ.n.r$b..J0
0000bfb0: 7e0b 7230 517e 0756 327e 1710 2234 7e0e  ~.r0Q~.V2~.."4~.
0000bfc0: 7848 3407 4472 607a 0c72 606c 4809 4a78  xH4.Dr`z.r`lH.Jx
0000bfd0: 3e07 7204 1960 054a 107e 0e72 3310 7e07  >.r..`.J.~.r3.~.
0000bfe0: 5611 7812 6710 284c 0a72 3434 0004 4a01  V.x.g.(L.r44..J.
0000bff0: 6000 0000 117e 0d72 0064 074a 220c 7e04  `....~.r.d.J".~.
0000c000: 5618 2a08 4472 1878 0556 245c 0805 4a30  V.*.Dr.x.V$\..J0
0000c010: 7e0d 7230 517a 0356 327e 1210 223c 7e05  ~.r0Qz.V2~.."<~.
0000c020: 5648 5207 4472 547e 0456 607e 080d 7260  VHR.DrT~.V`~..r`
0000c030: 7e08 566c 1160 084a 786c 0872 3304 6003  ~.Vl.`.Jxl.r3.`.
0000c040: 4a0a 6003 764a 1078 1010 107e 4c0a 7210  J.`.vJ.x...~L.r.
0000c050: 7e04 561c 197a 0356 287a 066e 3328 7a04  ~.V..z.V(z.n3(z.
0000c060: 5634 7803 0256 4070 0000 0060 0800 0000  V4x..V@p...`....
0000c070: 7e03 7800 5172 084a 0064 1f22 2218 6a03  ~.x.Qr.J.d."".j.
0000c080: 7224 6606 544a 307e 0d10 307e 0809 7230  r$f.TJ0~..0~..r0
0000c090: 7e08 5630 156a 2022 5452 074a 2260 7e09  ~.V0.j "TR.J"`~.
0000c0a0: 7260 6c21 6522 7826 0672 0466 6c05 4a10  r`l!e"x&.r.fl.J.
0000c0b0: 7a10 1010 197e 0b72 107a 0356 3b10 5e1d  z....~.r.z.V;.^.
0000c0c0: 221c 6c05 6656 2850 0772 3466 0004 4a01  ".l.fV(P.r4f..J.
0000c0d0: 6000 0000 117e 0972 007a 154a 2a00 5e06  `....~.r.z.J*.^.
0000c0e0: 2218 4e07 4472 2456 044a 307e 080b 7230  ".N.Dr$V.J0~..r0
0000c0f0: 7e08 5630 5560 0422 327e 0d10 2248 7809  ~.V0U`."2~.."Hx.
0000c100: 6e54 7a08 444a 606e 0c72 6064 4a06 2278  nTz.DJ`n.r`dJ."x
0000c110: 6a06 7204 1956 054a 1078 0672 3310 7803  j.r..V.J.x.r3.x.
0000c120: 5610 6404 7722 127e 0c10 1c7a 4c07 6e1c  V.d.w".~...zL.n.
0000c130: 6003 5628 5972 0256 2856 0322 3334 6203  `.V(Yr.V(V."34b.
0000c140: 5634 5c05 0322 4070 0000 0060 0800 0000  V4\.."@p...`....
0000c150: 7e05 7200 517e 0756 006c 0522 220c 6005  ~.r.Q~.V.l."".`.
0000c160: 4a18 6c05 4472 1850 084a 2460 0803 4a2a  J.l.Dr.P.J$`..J*
0000c170: 6003 4a30 117e 3678 307e 0872 2230 7e07  `.J0.~6x0~.r"0~.
0000c180: 5630 6e04 5522 327e 0e10 4860 0803 7254  V0n.U"2~..H`..rT
0000c190: 5c04 4a60 1178 0772 6074 194a 2a60 6a05  \.J`.x.r`t.J*`j.
0000c1a0: 2278 6403 6672 0464 064a 1074 4c06 7210  "xd.fr.d.J.tL.r.
0000c1b0: 7e08 5610 5d6c 0622 117e 1010 331c 7205  ~.V.]l.".~..3.r.
0000c1c0: 6e34 6e03 4056 0160 0000 007e 0806 7200  n4n.@V.`...~..r.
0000c1d0: 7a04 5600 156a 0522 0c78 0556 2218 5603  z.V..j.".x.V".V.
0000c1e0: 7218 5a04 444a 246a 064a 2f7e 0a12 1030  r.Z.DJ$j.J/~...0
0000c1f0: 6e07 7230 116a 0276 3064 0264 2a30 7208  n.r0.j.v0d.d*0r.
0000c200: 223c 6403 4464 4856 0372 486a 0805 4a54  "<d.DdHV.rHj..JT
0000c210: 7a02 6054 1164 0364 6074 0576 2260 7406  z.`T.d.d`t.v"`t.
0000c220: 7260 6606 544a 606c 0622 6c7a 0802 606c  r`f.TJ`l."lz..`l
0000c230: 6404 6478 1150 0372 7850 054a 3304 5602  d.dx.P.rxP.J3.V.
0000c240: 6004 6402 6664 107e 0356 107e 6c07 7210  `.d.fd.~.V.~l.r.
0000c250: 4003 2212 1d7a 0b10 1872 0456 331c 6205  @."..z...r.V3.b.
0000c260: 4a1c 4004 6722 207a 0356 287c 4c04 5628  J.@.g" z.V(|L.V(
0000c270: 6603 7228 1d58 0522 3074 0256 3b34 5004  f.r(.X."0t.V;4P.
0000c280: 2238 7202 0256 4070 0000 0060 2800 0000  "8r..V@p...`(...
0000c290: 3c0d 1018 553c 0710 243c 0610 2a30 3c12  <...U<..$<..*0<.
0000c2a0: 1048 3c05 5510 543c 0410 603c 6a12 1078  .H<.U.T<..`<j..x
0000c2b0: 3c04 1004 5d3c 0410 103c 1010 3b28 3c06  <...]<...<..;(<.
0000c2c0: 1034 3c04 0310 4070 0000 f7fc 7c90 5446  .4<...@p....|.TF
0000c2d0: 3b4f 484a 4c5b 233c 3538 4844 4830 521c  ;OHJL[#<58HDH0R.
0000c2e0: 8054 4611 4f48 0c4c 5b81 4248 4433 3052  .TF.OH.L[.BHD30R
0000c2f0: 4a3c 3536 9054 5236 4f4e 0651 3632 4c55  J<56.TR6ON.Q62LU
0000c300: 0d80 5136 1954 5223 9048 5005 804f 4e34  ..Q6.TR#.HP..ON4
0000c310: 9030 5d49 804c 5581 2948 5059 305d 3090  .0]I.LU.)HPY0]0.
0000c320: 5440 3d4f 4e09 5134 334c 5701 8051 3424  T@=ON.Q43LW..Q4$
0000c330: 5440 224f 4e04 9048 5232 3062 4280 4c57  T@"ON..HR20bB.LW
0000c340: 3248 5282 6330 6200 ff2f 00              2HR.c0b../.
